<svg id="svg" version="1.1" xmlns="http://www.w3.org/2000/svg" xmlns:xlink="http://www.w3.org/1999/xlink" width="400" height="248.55769230769232" viewBox="0, 0, 400,248.55769230769232"><g id="svgg"><path id="path0" d="M120.075 12.417 C 120.075 12.548,118.551 12.710,116.656 12.782 C 111.337 12.983,108.888 13.192,108.888 13.443 C 108.888 13.569,108.160 13.673,107.272 13.673 C 106.360 13.673,105.656 13.781,105.656 13.922 C 105.656 14.060,104.993 14.170,104.164 14.170 C 103.335 14.170,102.672 14.281,102.672 14.419 C 102.672 14.556,102.113 14.667,101.429 14.667 C 100.746 14.667,100.186 14.779,100.186 14.916 C 100.186 15.053,99.683 15.165,99.068 15.165 C 98.452 15.165,97.949 15.277,97.949 15.413 C 97.949 15.550,97.502 15.662,96.955 15.662 C 96.408 15.662,95.960 15.774,95.960 15.911 C 95.960 16.047,95.513 16.159,94.966 16.159 C 94.419 16.159,93.971 16.271,93.971 16.408 C 93.971 16.544,93.580 16.656,93.101 16.656 C 92.623 16.656,92.231 16.768,92.231 16.905 C 92.231 17.042,91.896 17.154,91.485 17.154 C 91.075 17.154,90.740 17.265,90.740 17.402 C 90.740 17.539,90.404 17.651,89.994 17.651 C 89.584 17.651,89.248 17.763,89.248 17.899 C 89.248 18.036,89.010 18.148,88.719 18.148 C 88.052 18.148,84.180 19.436,84.069 19.695 C 84.023 19.801,83.722 19.888,83.400 19.888 C 83.077 19.888,82.745 20.000,82.660 20.137 C 82.576 20.273,82.289 20.385,82.024 20.385 C 81.758 20.385,81.541 20.497,81.541 20.634 C 81.541 20.771,81.268 20.883,80.934 20.883 C 80.601 20.883,80.259 20.994,80.174 21.131 C 80.090 21.268,79.803 21.380,79.538 21.380 C 79.272 21.380,79.055 21.492,79.055 21.628 C 79.055 21.765,78.838 21.877,78.573 21.877 C 78.307 21.877,78.021 21.989,77.937 22.126 C 77.852 22.262,77.566 22.374,77.300 22.374 C 77.035 22.374,76.818 22.486,76.818 22.623 C 76.818 22.759,76.594 22.871,76.321 22.871 C 76.047 22.871,75.823 22.983,75.823 23.120 C 75.823 23.257,75.600 23.369,75.326 23.369 C 75.053 23.369,74.829 23.480,74.829 23.617 C 74.829 23.754,74.605 23.866,74.332 23.866 C 74.058 23.866,73.835 23.978,73.835 24.114 C 73.835 24.251,73.611 24.363,73.337 24.363 C 73.064 24.363,72.840 24.475,72.840 24.612 C 72.840 24.748,72.617 24.860,72.343 24.860 C 72.070 24.860,71.846 24.972,71.846 25.109 C 71.846 25.245,71.622 25.357,71.349 25.357 C 71.075 25.357,70.851 25.469,70.851 25.606 C 70.851 25.743,70.676 25.855,70.461 25.855 C 70.029 25.855,67.793 27.089,67.661 27.399 C 67.615 27.507,67.364 27.595,67.102 27.595 C 66.840 27.595,66.625 27.707,66.625 27.843 C 66.625 27.980,66.479 28.092,66.299 28.092 C 66.120 28.092,65.756 28.288,65.491 28.527 C 65.226 28.766,64.702 29.121,64.326 29.315 C 63.950 29.509,63.642 29.761,63.642 29.874 C 63.642 29.988,63.443 30.081,63.200 30.081 C 62.956 30.081,62.596 30.305,62.399 30.578 C 62.202 30.851,61.922 31.075,61.778 31.075 C 61.633 31.075,61.353 31.299,61.156 31.572 C 60.959 31.846,60.623 32.070,60.410 32.070 C 60.197 32.070,59.861 32.293,59.664 32.567 C 59.467 32.840,59.134 33.064,58.923 33.064 C 58.713 33.064,58.239 33.344,57.870 33.686 C 57.502 34.027,57.111 34.308,57.003 34.308 C 56.894 34.309,56.448 34.644,56.011 35.054 C 55.574 35.464,55.146 35.799,55.059 35.799 C 54.973 35.799,54.472 36.246,53.947 36.793 C 53.421 37.340,52.863 37.787,52.707 37.787 C 52.551 37.787,51.878 38.347,51.212 39.030 C 50.546 39.714,49.881 40.273,49.735 40.273 C 49.410 40.273,41.844 47.828,40.857 49.138 C 40.468 49.655,39.730 50.515,39.217 51.048 C 38.704 51.581,38.285 52.125,38.285 52.256 C 38.285 52.387,37.837 52.924,37.290 53.449 C 36.743 53.975,36.296 54.524,36.296 54.671 C 36.296 54.817,35.960 55.257,35.550 55.649 C 35.140 56.041,34.804 56.439,34.804 56.533 C 34.804 56.627,34.544 56.964,34.226 57.282 C 33.908 57.600,33.503 58.210,33.326 58.638 C 33.149 59.066,32.905 59.416,32.785 59.416 C 32.665 59.416,32.567 59.556,32.566 59.727 C 32.566 59.897,32.231 60.429,31.821 60.907 C 31.411 61.386,31.076 61.917,31.076 62.088 C 31.075 62.259,30.963 62.399,30.827 62.399 C 30.690 62.399,30.578 62.542,30.578 62.717 C 30.578 62.892,30.354 63.196,30.081 63.393 C 29.807 63.591,29.584 63.941,29.584 64.173 C 29.584 64.405,29.500 64.632,29.397 64.678 C 29.164 64.782,28.356 66.106,28.172 66.687 C 28.096 66.927,27.935 67.122,27.814 67.122 C 27.694 67.122,27.595 67.346,27.595 67.620 C 27.595 67.893,27.483 68.117,27.346 68.117 C 27.209 68.117,27.098 68.331,27.098 68.593 C 27.098 68.855,27.013 69.107,26.909 69.153 C 26.597 69.290,25.357 71.856,25.357 72.366 C 25.357 72.627,25.245 72.840,25.109 72.840 C 24.972 72.840,24.860 73.064,24.860 73.337 C 24.860 73.611,24.748 73.835,24.612 73.835 C 24.475 73.835,24.363 74.058,24.363 74.332 C 24.363 74.605,24.251 74.829,24.114 74.829 C 23.978 74.829,23.866 75.053,23.866 75.326 C 23.866 75.600,23.754 75.823,23.617 75.823 C 23.480 75.823,23.369 76.047,23.369 76.321 C 23.369 76.594,23.257 76.818,23.120 76.818 C 22.983 76.818,22.871 77.098,22.871 77.439 C 22.871 77.781,22.759 78.061,22.623 78.061 C 22.486 78.061,22.374 78.285,22.374 78.558 C 22.374 78.832,22.262 79.055,22.126 79.055 C 21.989 79.055,21.877 79.328,21.877 79.662 C 21.877 79.996,21.765 80.338,21.628 80.423 C 21.492 80.507,21.380 80.793,21.380 81.059 C 21.380 81.324,21.268 81.541,21.131 81.541 C 20.994 81.541,20.883 81.877,20.883 82.287 C 20.883 82.697,20.771 83.033,20.634 83.033 C 20.497 83.033,20.385 83.202,20.385 83.409 C 20.385 83.615,20.178 84.258,19.925 84.838 C 19.179 86.544,18.437 89.027,18.254 90.429 C 18.161 91.147,17.986 91.734,17.867 91.734 C 17.748 91.734,17.651 92.175,17.651 92.714 C 17.651 93.253,17.539 93.763,17.402 93.847 C 17.265 93.932,17.154 94.442,17.154 94.980 C 17.154 95.519,17.042 95.960,16.905 95.960 C 16.768 95.960,16.656 96.520,16.656 97.203 C 16.656 97.887,16.544 98.446,16.408 98.446 C 16.271 98.446,16.159 99.062,16.159 99.814 C 16.159 100.566,16.047 101.181,15.911 101.181 C 15.768 101.181,15.662 101.927,15.662 102.921 C 15.662 103.915,15.555 104.661,15.413 104.661 C 15.269 104.661,15.165 105.473,15.165 106.600 C 15.165 107.667,15.059 108.646,14.929 108.776 C 14.322 109.384,14.321 127.533,14.928 127.533 C 15.058 127.533,15.165 128.421,15.165 129.507 C 15.165 130.593,15.277 131.550,15.413 131.635 C 15.550 131.719,15.662 132.509,15.662 133.389 C 15.662 134.291,15.771 134.991,15.911 134.991 C 16.047 134.991,16.159 135.606,16.159 136.358 C 16.159 137.110,16.271 137.725,16.408 137.725 C 16.544 137.725,16.656 138.285,16.656 138.968 C 16.656 139.652,16.768 140.211,16.905 140.211 C 17.042 140.211,17.154 140.715,17.154 141.330 C 17.154 141.945,17.265 142.449,17.402 142.449 C 17.539 142.449,17.651 142.896,17.651 143.443 C 17.651 143.990,17.763 144.438,17.899 144.438 C 18.036 144.438,18.153 144.801,18.159 145.245 C 18.165 145.690,18.331 146.501,18.528 147.048 C 18.725 147.595,18.888 148.294,18.890 148.602 C 18.892 148.909,19.006 149.161,19.142 149.161 C 19.279 149.161,19.391 149.434,19.391 149.768 C 19.391 150.102,19.503 150.444,19.640 150.528 C 19.776 150.613,19.888 150.901,19.888 151.168 C 19.888 151.637,19.978 151.879,20.595 153.073 C 20.753 153.379,20.883 153.854,20.883 154.130 C 20.883 154.405,20.994 154.630,21.131 154.630 C 21.268 154.630,21.380 154.832,21.380 155.078 C 21.380 155.633,21.935 156.863,22.188 156.866 C 22.290 156.867,22.374 157.141,22.374 157.474 C 22.374 157.808,22.486 158.150,22.623 158.235 C 22.759 158.319,22.871 158.606,22.871 158.871 C 22.871 159.136,22.983 159.354,23.120 159.354 C 23.257 159.354,23.369 159.577,23.369 159.851 C 23.369 160.124,23.480 160.348,23.617 160.348 C 23.754 160.348,23.866 160.572,23.866 160.845 C 23.866 161.119,23.978 161.342,24.114 161.342 C 24.251 161.342,24.363 161.622,24.363 161.964 C 24.363 162.306,24.475 162.585,24.612 162.585 C 24.748 162.585,24.860 162.809,24.860 163.083 C 24.860 163.356,24.972 163.580,25.109 163.580 C 25.245 163.580,25.357 163.739,25.357 163.933 C 25.357 164.369,27.121 167.899,27.396 168.013 C 27.505 168.059,27.595 168.311,27.595 168.573 C 27.595 168.835,27.686 169.049,27.797 169.049 C 27.908 169.049,28.154 169.443,28.343 169.925 C 28.532 170.406,28.888 170.983,29.135 171.206 C 29.382 171.429,29.584 171.763,29.584 171.947 C 29.584 172.130,29.695 172.281,29.832 172.281 C 29.969 172.281,30.081 172.428,30.081 172.607 C 30.081 172.786,30.277 173.150,30.516 173.415 C 30.755 173.680,31.110 174.204,31.304 174.580 C 31.498 174.956,31.749 175.264,31.863 175.264 C 31.977 175.264,32.070 175.411,32.070 175.590 C 32.070 175.769,32.267 176.133,32.509 176.398 C 32.750 176.663,33.318 177.463,33.771 178.175 C 34.224 178.888,34.978 179.888,35.445 180.399 C 35.913 180.910,36.296 181.429,36.296 181.552 C 36.296 181.676,36.631 182.090,37.042 182.474 C 37.452 182.857,37.787 183.236,37.787 183.316 C 37.787 183.517,38.459 184.317,39.714 185.612 C 40.295 186.212,40.771 186.812,40.771 186.946 C 40.771 187.250,49.939 196.395,50.243 196.395 C 50.364 196.395,51.035 196.955,51.733 197.638 C 52.431 198.322,53.118 198.881,53.259 198.881 C 53.400 198.881,53.696 199.083,53.917 199.329 C 54.139 199.575,54.767 200.106,55.314 200.507 C 55.861 200.909,56.489 201.435,56.710 201.675 C 56.931 201.916,57.270 202.113,57.463 202.113 C 57.656 202.113,57.976 202.337,58.173 202.610 C 58.370 202.884,58.646 203.108,58.787 203.108 C 58.928 203.108,59.434 203.444,59.913 203.853 C 60.392 204.263,60.898 204.598,61.039 204.599 C 61.180 204.599,61.456 204.823,61.653 205.096 C 61.850 205.370,62.143 205.594,62.303 205.594 C 62.689 205.594,62.896 206.180,62.896 207.271 C 62.896 207.761,62.980 208.079,63.083 207.976 C 63.185 207.873,63.331 174.713,63.406 134.286 C 63.497 85.426,63.628 60.450,63.797 59.789 C 64.940 55.325,68.458 51.951,73.089 50.880 C 73.841 50.706,95.993 50.575,140.705 50.481 C 201.341 50.354,207.209 50.307,207.279 49.945 C 207.359 49.528,197.893 39.776,197.408 39.776 C 197.263 39.776,196.572 39.217,195.874 38.533 C 195.176 37.850,194.493 37.290,194.357 37.290 C 194.220 37.290,193.812 36.982,193.450 36.606 C 192.335 35.449,189.107 33.064,188.655 33.064 C 188.510 33.064,188.077 32.728,187.694 32.318 C 187.311 31.908,186.843 31.572,186.655 31.572 C 186.467 31.572,186.151 31.349,185.954 31.075 C 185.757 30.802,185.453 30.578,185.278 30.578 C 185.103 30.578,184.960 30.466,184.960 30.329 C 184.960 30.193,184.792 30.081,184.587 30.081 C 184.382 30.081,184.214 29.969,184.214 29.832 C 184.214 29.695,184.046 29.584,183.841 29.584 C 183.636 29.584,183.468 29.472,183.468 29.335 C 183.468 29.198,183.244 29.086,182.971 29.086 C 182.697 29.086,182.474 28.993,182.474 28.880 C 182.474 28.766,182.166 28.515,181.790 28.321 C 181.414 28.127,181.050 27.912,180.982 27.844 C 180.582 27.443,177.459 25.857,177.067 25.856 C 176.896 25.855,176.756 25.743,176.756 25.606 C 176.756 25.469,176.532 25.357,176.259 25.357 C 175.985 25.357,175.761 25.245,175.761 25.109 C 175.761 24.972,175.538 24.860,175.264 24.860 C 174.991 24.860,174.767 24.748,174.767 24.612 C 174.767 24.475,174.543 24.363,174.270 24.363 C 173.996 24.363,173.773 24.251,173.773 24.114 C 173.773 23.978,173.549 23.866,173.275 23.866 C 173.002 23.866,172.778 23.754,172.778 23.617 C 172.778 23.480,172.554 23.369,172.281 23.369 C 172.007 23.369,171.784 23.257,171.784 23.120 C 171.784 22.983,171.560 22.871,171.287 22.871 C 171.013 22.871,170.789 22.759,170.789 22.623 C 170.789 22.486,170.566 22.374,170.292 22.374 C 170.019 22.374,169.795 22.262,169.795 22.126 C 169.795 21.989,169.515 21.877,169.173 21.877 C 168.832 21.877,168.552 21.765,168.552 21.628 C 168.552 21.492,168.328 21.380,168.055 21.380 C 167.781 21.380,167.557 21.268,167.557 21.131 C 167.557 20.994,167.284 20.883,166.951 20.883 C 166.617 20.883,166.275 20.771,166.190 20.634 C 166.106 20.497,165.819 20.385,165.554 20.385 C 165.289 20.385,165.071 20.273,165.071 20.137 C 165.071 20.000,164.745 19.888,164.346 19.888 C 163.948 19.888,163.584 19.802,163.538 19.698 C 163.421 19.428,159.593 18.142,158.919 18.145 C 158.611 18.147,158.359 18.036,158.359 17.899 C 158.359 17.763,158.024 17.651,157.613 17.651 C 157.203 17.651,156.868 17.539,156.868 17.402 C 156.868 17.265,156.532 17.154,156.122 17.154 C 155.712 17.154,155.376 17.042,155.376 16.905 C 155.376 16.768,154.984 16.656,154.506 16.656 C 154.027 16.656,153.636 16.544,153.636 16.408 C 153.636 16.271,153.307 16.159,152.905 16.159 C 152.503 16.159,152.104 16.047,152.020 15.911 C 151.935 15.774,151.369 15.662,150.762 15.662 C 150.155 15.662,149.658 15.550,149.658 15.413 C 149.658 15.277,149.211 15.165,148.664 15.165 C 148.117 15.165,147.669 15.053,147.669 14.916 C 147.669 14.779,147.054 14.667,146.302 14.667 C 145.550 14.667,144.935 14.556,144.935 14.419 C 144.935 14.281,144.272 14.170,143.443 14.170 C 142.614 14.170,141.952 14.060,141.952 13.922 C 141.952 13.781,141.247 13.673,140.336 13.673 C 139.424 13.673,138.720 13.565,138.720 13.424 C 138.720 13.280,137.896 13.176,136.746 13.176 C 135.660 13.176,134.702 13.064,134.618 12.927 C 134.527 12.781,133.041 12.679,130.998 12.679 C 128.854 12.679,127.533 12.584,127.533 12.430 C 127.533 12.275,126.124 12.181,123.804 12.181 C 121.622 12.181,120.075 12.279,120.075 12.417 " stroke="none" fill="#9b8ba4" fill-rule="evenodd"></path><path id="path1" d="M89.530 56.710 C 85.228 59.232,86.697 65.382,91.601 65.382 C 93.582 65.382,95.040 64.389,95.828 62.503 C 97.390 58.765,92.966 54.695,89.530 56.710 M119.080 133.859 C 118.191 134.178,117.182 134.503,116.838 134.581 C 116.343 134.693,116.141 134.974,115.877 135.913 C 115.372 137.710,114.858 139.250,114.463 140.149 C 114.268 140.594,113.952 141.321,113.761 141.765 C 113.571 142.209,113.179 143.104,112.891 143.754 C 112.603 144.403,112.157 145.410,111.900 145.991 C 108.576 153.497,108.379 154.388,109.538 156.676 L 110.188 157.959 109.908 161.702 C 109.754 163.760,109.508 166.537,109.361 167.872 C 109.056 170.643,109.706 173.374,110.990 174.724 C 111.338 175.089,112.124 175.914,112.737 176.555 C 113.349 177.197,114.272 177.918,114.787 178.157 C 115.302 178.396,116.070 178.850,116.493 179.165 C 116.916 179.481,117.425 179.739,117.624 179.739 C 117.823 179.739,118.093 179.831,118.222 179.944 C 118.352 180.057,118.962 180.294,119.577 180.470 C 120.193 180.647,120.976 180.881,121.318 180.990 C 123.998 181.850,131.359 181.728,135.115 180.763 C 135.662 180.622,136.445 180.432,136.855 180.341 C 137.265 180.249,137.881 179.936,138.222 179.646 C 139.022 178.966,139.867 178.496,140.288 178.496 C 140.471 178.496,141.614 177.517,142.828 176.321 L 145.035 174.145 145.276 170.375 C 145.514 166.638,144.949 161.163,143.931 157.336 C 143.510 155.752,143.645 154.722,144.438 153.471 C 145.577 151.675,145.166 149.951,142.702 146.178 C 142.211 145.426,141.576 144.307,141.290 143.692 C 141.004 143.076,140.432 141.846,140.019 140.957 C 139.606 140.068,139.019 138.696,138.714 137.908 C 138.410 137.119,138.066 136.415,137.950 136.343 C 137.834 136.271,137.620 135.771,137.475 135.231 C 137.108 133.871,134.831 133.401,134.503 134.618 C 134.173 135.841,133.829 136.104,132.550 136.107 C 131.725 136.108,131.154 136.254,130.833 136.544 C 129.925 137.366,128.963 137.110,127.805 135.736 C 126.541 134.237,126.415 134.226,124.981 135.488 C 123.104 137.140,121.724 136.692,121.336 134.306 C 121.153 133.179,121.038 133.156,119.080 133.859 M122.457 156.251 C 122.924 156.732,123.306 157.213,123.306 157.320 C 123.306 157.667,122.721 158.111,122.262 158.111 C 121.715 158.111,121.697 158.314,122.194 158.863 C 122.709 159.432,122.403 160.094,121.546 160.265 C 120.930 160.388,120.888 160.451,121.204 160.768 C 122.163 161.726,121.559 162.303,119.764 162.143 C 118.478 162.029,118.120 161.273,118.955 160.437 C 119.160 160.232,119.400 159.765,119.487 159.398 C 119.574 159.032,119.768 158.578,119.916 158.390 C 120.065 158.202,120.152 157.710,120.108 157.297 C 119.909 155.400,121.111 154.864,122.457 156.251 M131.269 156.129 C 131.608 156.469,131.755 156.906,131.717 157.465 C 131.683 157.978,131.823 158.459,132.083 158.719 C 132.997 159.633,132.537 160.476,130.928 160.836 C 129.231 161.217,128.577 160.309,129.770 159.229 C 130.411 158.649,130.414 158.263,129.774 158.663 C 128.487 159.467,128.240 157.791,129.436 156.369 C 130.173 155.494,130.581 155.441,131.269 156.129 M133.241 161.389 C 134.332 162.561,133.744 163.580,131.976 163.580 C 130.617 163.580,130.372 163.186,130.967 161.964 C 131.587 160.693,132.401 160.487,133.241 161.389 " stroke="none" fill="#c2a973" fill-rule="evenodd"></path><path id="path2" d="M74.083 50.963 L 73.213 51.146 74.208 51.162 C 74.755 51.170,75.426 51.081,75.699 50.963 C 76.347 50.685,75.405 50.685,74.083 50.963 M71.795 51.457 C 70.863 51.738,68.365 53.021,68.365 53.218 C 68.365 53.307,69.099 53.004,69.996 52.545 C 70.893 52.085,71.816 51.707,72.047 51.705 C 72.278 51.703,72.635 51.593,72.840 51.461 C 73.318 51.152,72.814 51.150,71.795 51.457 M67.126 54.316 C 66.664 54.792,66.335 55.220,66.394 55.267 C 66.453 55.314,66.877 54.924,67.338 54.401 C 68.384 53.212,68.249 53.158,67.126 54.316 M344.487 53.856 C 344.404 53.938,344.505 54.174,344.710 54.379 C 345.193 54.861,345.360 54.694,344.952 54.136 C 344.779 53.900,344.569 53.773,344.487 53.856 M65.497 56.374 C 64.867 57.617,64.634 58.173,64.743 58.173 C 64.895 58.173,66.166 55.642,66.064 55.540 C 66.012 55.487,65.757 55.863,65.497 56.374 M90.677 56.115 C 91.122 56.170,91.849 56.170,92.293 56.115 C 92.738 56.060,92.374 56.015,91.485 56.015 C 90.597 56.015,90.233 56.060,90.677 56.115 M76.694 56.642 C 76.283 56.893,75.783 57.312,75.582 57.573 C 75.281 57.965,75.325 57.956,75.831 57.519 C 76.169 57.228,76.781 56.813,77.191 56.597 C 77.601 56.381,77.825 56.200,77.688 56.195 C 77.551 56.190,77.104 56.391,76.694 56.642 M81.313 56.743 C 81.370 56.778,81.753 57.085,82.163 57.427 L 82.909 58.048 82.306 57.365 C 81.974 56.989,81.592 56.681,81.457 56.681 C 81.321 56.681,81.256 56.709,81.313 56.743 M95.612 58.396 C 95.824 58.820,96.034 59.167,96.079 59.167 C 96.282 59.167,95.873 58.161,95.567 57.907 C 95.310 57.694,95.321 57.814,95.612 58.396 M64.417 58.587 C 64.401 58.747,64.315 59.083,64.227 59.333 C 64.102 59.687,64.135 59.725,64.375 59.504 C 64.544 59.348,64.630 59.012,64.564 58.759 C 64.499 58.505,64.433 58.428,64.417 58.587 M74.427 59.526 C 74.352 59.723,74.334 60.086,74.387 60.334 C 74.448 60.614,74.533 60.480,74.614 59.975 C 74.749 59.129,74.661 58.916,74.427 59.526 M83.299 59.339 C 83.355 59.984,83.744 60.532,83.761 59.990 C 83.771 59.690,83.667 59.376,83.530 59.291 C 83.393 59.207,83.289 59.228,83.299 59.339 M96.206 60.958 C 96.139 61.875,96.174 62.534,96.284 62.424 C 96.394 62.313,96.449 61.563,96.406 60.757 L 96.327 59.291 96.206 60.958 M63.799 61.244 C 63.695 61.770,63.668 62.259,63.738 62.329 C 63.927 62.518,64.199 61.271,64.086 60.741 C 64.027 60.466,63.914 60.666,63.799 61.244 M74.332 61.763 C 74.332 62.097,74.424 62.426,74.536 62.496 C 74.647 62.565,74.691 62.292,74.632 61.889 C 74.501 61.000,74.332 60.929,74.332 61.763 M76.321 64.748 C 76.321 65.106,77.947 65.631,79.055 65.631 C 80.164 65.631,81.790 65.106,81.790 64.748 C 81.790 64.680,81.460 64.794,81.056 65.003 C 80.653 65.212,79.753 65.382,79.055 65.382 C 78.358 65.382,77.458 65.212,77.054 65.003 C 76.651 64.794,76.321 64.680,76.321 64.748 M63.642 137.742 C 63.642 189.233,63.572 205.507,63.349 205.921 C 63.001 206.564,63.031 215.971,63.383 216.850 C 63.505 217.153,63.751 217.938,63.929 218.592 C 64.241 219.737,64.548 220.145,67.188 222.927 C 68.564 224.376,70.888 225.496,73.835 226.129 C 75.947 226.583,335.207 226.657,337.402 226.205 C 341.620 225.335,342.869 224.536,346.429 220.430 C 347.261 219.471,347.794 218.209,347.794 217.198 C 347.794 216.832,347.906 216.532,348.042 216.532 C 348.207 216.532,348.291 192.045,348.291 143.567 L 348.291 70.603 301.568 70.603 C 270.688 70.603,254.794 70.519,254.692 70.354 C 254.590 70.189,222.454 70.106,159.090 70.106 L 63.642 70.106 63.642 137.742 M178.612 83.355 C 183.999 84.972,186.557 87.881,187.686 93.673 C 188.118 95.891,188.034 201.274,187.599 203.480 C 186.414 209.482,183.345 212.478,177.129 213.703 C 174.456 214.229,87.000 214.210,84.243 213.683 C 78.350 212.555,75.116 209.454,73.967 203.827 C 73.345 200.784,73.510 94.011,74.140 91.929 C 75.663 86.892,78.618 84.271,84.027 83.159 C 86.874 82.574,176.629 82.760,178.612 83.355 M254.953 105.141 C 255.096 105.280,267.285 105.404,285.561 105.452 L 315.933 105.531 316.574 106.134 C 317.881 107.362,317.409 109.273,315.541 110.317 C 314.875 110.689,310.851 110.740,310.628 110.379 C 310.527 110.216,300.930 110.131,282.645 110.131 C 264.259 110.131,254.817 110.046,254.817 109.882 C 254.817 109.719,249.315 109.627,238.844 109.615 C 220.192 109.594,221.380 109.755,221.380 107.251 C 221.380 105.964,221.450 105.749,221.939 105.535 C 222.247 105.400,222.498 105.204,222.498 105.100 C 222.498 104.821,254.668 104.862,254.953 105.141 M293.249 131.509 C 293.408 131.668,301.487 131.779,315.972 131.820 L 338.447 131.883 338.925 132.792 C 339.484 133.853,339.144 135.101,338.231 135.344 C 337.213 135.615,201.021 135.199,200.353 134.923 C 198.974 134.353,198.896 132.249,200.229 131.581 C 200.932 131.229,292.898 131.158,293.249 131.509 M337.104 147.404 C 337.104 147.532,337.411 147.672,337.787 147.715 C 338.756 147.826,339.137 149.290,338.445 150.240 L 337.974 150.886 269.733 150.875 C 192.808 150.864,200.079 151.061,199.925 148.976 C 199.783 147.063,193.344 147.228,269.173 147.199 C 311.091 147.182,337.104 147.261,337.104 147.404 M231.821 160.845 C 231.923 161.010,250.053 161.100,285.347 161.112 C 335.719 161.129,338.762 161.155,339.466 161.565 C 340.466 162.150,340.615 163.370,339.794 164.260 L 339.217 164.886 269.782 164.761 L 200.347 164.636 199.738 164.065 C 198.770 163.155,199.156 161.100,200.296 161.096 C 200.596 161.095,200.910 160.982,200.994 160.845 C 201.094 160.684,206.503 160.597,216.408 160.597 C 226.313 160.597,231.721 160.684,231.821 160.845 M337.223 176.359 C 338.646 177.097,338.764 178.999,337.421 179.530 C 336.844 179.758,201.627 179.758,201.050 179.530 C 199.752 179.017,199.818 177.118,201.160 176.378 C 202.065 175.880,336.262 175.861,337.223 176.359 M250.963 188.689 C 251.064 188.852,260.413 188.937,278.200 188.937 C 296.089 188.937,305.283 189.022,305.283 189.186 C 305.283 189.349,310.494 189.434,320.419 189.434 C 336.810 189.434,336.528 189.412,337.237 190.778 C 337.658 191.590,337.240 192.538,336.229 193.063 C 335.396 193.495,305.672 193.592,305.407 193.163 C 305.306 193.000,295.963 192.915,278.185 192.915 C 260.408 192.915,251.064 192.830,250.963 192.666 C 250.863 192.503,242.383 192.418,226.334 192.418 C 200.991 192.418,201.546 192.438,200.311 191.447 C 199.752 190.999,199.738 189.501,200.287 188.895 C 200.765 188.367,250.639 188.164,250.963 188.689 M131.945 234.365 C 132.526 234.417,133.477 234.417,134.058 234.365 C 134.640 234.312,134.164 234.270,133.002 234.270 C 131.840 234.270,131.364 234.312,131.945 234.365 M283.841 234.365 C 284.422 234.417,285.373 234.417,285.954 234.365 C 286.535 234.312,286.060 234.270,284.897 234.270 C 283.735 234.270,283.260 234.312,283.841 234.365 " stroke="none" fill="#3c3c53" fill-rule="evenodd"></path><path id="path3" d="M77.018 56.691 C 72.760 58.940,74.228 65.363,79.003 65.378 C 82.969 65.390,85.002 61.221,82.609 57.984 C 81.356 56.289,78.868 55.714,77.018 56.691 M222.498 105.100 C 222.498 105.204,222.247 105.400,221.939 105.535 C 221.450 105.749,221.380 105.964,221.380 107.251 C 221.380 109.755,220.192 109.594,238.844 109.615 C 249.315 109.627,254.817 109.719,254.817 109.882 C 254.817 110.046,264.259 110.131,282.645 110.131 C 300.930 110.131,310.527 110.216,310.628 110.379 C 310.851 110.740,314.875 110.689,315.541 110.317 C 316.855 109.582,317.216 109.079,317.216 107.977 C 317.216 106.126,316.826 105.904,313.570 105.904 C 311.979 105.904,310.715 105.798,310.628 105.656 C 310.527 105.492,300.976 105.407,282.784 105.407 C 264.593 105.407,255.042 105.322,254.941 105.158 C 254.758 104.863,222.498 104.805,222.498 105.100 M121.442 116.397 C 120.677 116.836,120.340 117.392,120.331 118.229 C 120.313 120.003,122.791 120.745,123.873 119.289 C 125.098 117.641,123.203 115.387,121.442 116.397 M129.254 116.824 C 128.396 117.682,128.338 118.365,129.041 119.353 C 130.100 120.839,132.505 120.031,132.505 118.189 C 132.505 116.299,130.585 115.492,129.254 116.824 M200.229 131.581 C 198.896 132.249,198.974 134.353,200.353 134.923 C 201.044 135.209,337.230 135.610,338.285 135.330 C 338.614 135.242,338.844 134.989,338.844 134.713 C 338.844 134.456,338.956 134.245,339.093 134.245 C 339.467 134.245,339.359 133.467,338.868 132.629 L 338.431 131.883 315.964 131.820 C 301.484 131.779,293.408 131.668,293.249 131.509 C 292.898 131.158,200.932 131.229,200.229 131.581 M200.559 147.585 C 199.402 148.195,199.685 150.404,200.920 150.404 C 201.166 150.404,201.367 150.516,201.367 150.653 C 201.367 150.818,224.266 150.901,269.565 150.901 L 337.763 150.901 338.303 150.326 C 339.160 149.414,338.750 147.675,337.678 147.671 C 337.378 147.670,337.064 147.557,336.979 147.421 C 336.705 146.977,201.404 147.140,200.559 147.585 M200.994 160.845 C 200.910 160.982,200.596 161.095,200.296 161.096 C 199.268 161.099,198.748 163.157,199.585 163.914 C 199.997 164.288,201.478 164.326,215.729 164.326 C 225.921 164.326,231.473 164.413,231.572 164.574 C 231.674 164.739,249.916 164.823,285.490 164.823 L 339.255 164.823 339.813 164.229 C 340.616 163.373,340.456 162.143,339.466 161.565 C 338.762 161.155,335.713 161.129,285.208 161.112 C 249.712 161.100,231.697 161.010,231.697 160.845 C 231.697 160.682,226.440 160.597,216.422 160.597 C 206.508 160.597,201.094 160.684,200.994 160.845 M201.160 176.378 C 199.769 177.145,199.731 178.803,201.090 179.444 C 202.026 179.886,336.478 179.870,337.416 179.428 C 338.647 178.848,338.571 177.028,337.289 176.388 C 336.238 175.864,202.111 175.854,201.160 176.378 M200.287 188.895 C 199.738 189.501,199.752 190.999,200.311 191.447 C 201.546 192.438,200.991 192.418,226.334 192.418 C 242.383 192.418,250.863 192.503,250.963 192.666 C 251.064 192.830,260.408 192.915,278.185 192.915 C 295.963 192.915,305.306 193.000,305.407 193.163 C 305.672 193.592,335.396 193.495,336.229 193.063 C 337.240 192.538,337.658 191.590,337.237 190.778 C 336.528 189.412,336.810 189.434,320.419 189.434 C 310.494 189.434,305.283 189.349,305.283 189.186 C 305.283 189.022,296.089 188.937,278.200 188.937 C 260.413 188.937,251.064 188.852,250.963 188.689 C 250.639 188.164,200.765 188.367,200.287 188.895 " stroke="none" fill="#46835b" fill-rule="evenodd"></path><path id="path4" d="M131.627 90.828 C 132.172 91.226,131.968 92.116,131.384 91.892 C 130.902 91.707,130.914 91.979,131.419 92.700 C 131.814 93.264,131.809 93.276,131.233 93.131 C 130.907 93.049,130.780 93.046,130.951 93.124 C 131.463 93.359,131.302 93.769,130.764 93.599 C 130.244 93.433,130.030 94.044,130.505 94.338 C 130.636 94.418,130.689 94.624,130.624 94.794 C 130.558 94.965,130.672 95.325,130.875 95.594 C 131.234 96.069,131.246 96.063,131.254 95.427 C 131.280 93.205,132.602 95.029,132.810 97.576 C 132.877 98.397,132.884 98.872,132.824 98.633 C 132.765 98.393,132.601 98.198,132.460 98.198 C 132.319 98.198,132.266 98.362,132.343 98.563 C 132.420 98.763,132.391 98.984,132.279 99.054 C 132.166 99.123,132.130 99.470,132.197 99.825 C 132.285 100.283,132.398 100.393,132.587 100.204 C 133.351 99.439,133.493 100.483,132.753 101.429 C 132.486 101.771,132.265 101.911,132.262 101.740 C 132.259 101.569,132.144 101.429,132.007 101.429 C 131.615 101.429,131.718 102.355,132.128 102.512 C 132.350 102.598,132.439 102.830,132.353 103.098 C 132.270 103.355,132.298 103.438,132.419 103.294 C 133.277 102.278,133.499 102.335,133.499 103.567 C 133.499 104.732,133.486 104.754,133.109 104.215 C 132.895 103.909,132.615 103.723,132.488 103.802 C 132.136 104.019,132.211 105.309,132.594 105.627 C 133.116 106.060,132.813 107.200,132.226 107.013 C 131.952 106.926,131.759 106.985,131.759 107.154 C 131.759 107.313,131.960 107.495,132.206 107.559 C 132.875 107.734,133.318 108.566,133.017 109.083 C 132.880 109.317,132.765 109.411,132.761 109.292 C 132.757 109.173,132.585 109.214,132.380 109.385 C 132.083 109.632,131.931 109.631,131.629 109.380 C 131.050 108.900,130.893 109.289,131.371 110.019 C 132.102 111.134,131.747 111.419,130.217 110.949 C 128.545 110.436,124.653 110.387,122.746 110.854 C 121.959 111.047,121.255 111.145,121.183 111.073 C 120.959 110.849,120.935 108.796,121.149 108.204 C 121.300 107.787,121.259 107.644,120.988 107.644 C 120.648 107.644,120.323 107.148,120.323 106.630 C 120.323 106.504,120.491 106.401,120.696 106.401 C 120.946 106.401,121.069 106.152,121.069 105.648 C 121.069 105.207,120.914 104.835,120.696 104.751 C 120.491 104.672,120.323 104.456,120.323 104.270 C 120.323 104.083,120.463 103.985,120.634 104.050 C 120.809 104.117,121.093 103.835,121.283 103.407 C 121.625 102.634,121.465 102.031,121.082 102.651 C 120.918 102.916,120.815 102.878,120.599 102.474 C 120.218 101.763,120.254 101.560,120.696 101.927 C 121.011 102.188,121.069 102.137,121.069 101.599 C 121.069 101.248,121.181 100.892,121.318 100.808 C 121.454 100.723,121.566 100.248,121.566 99.751 C 121.566 98.909,121.542 98.881,121.211 99.331 C 120.876 99.787,120.846 99.789,120.684 99.369 C 120.464 98.803,121.265 97.844,121.674 98.184 C 121.866 98.343,122.059 98.181,122.285 97.672 C 122.632 96.888,122.451 96.334,122.054 96.962 C 121.803 97.359,121.765 97.277,121.765 96.333 C 121.765 95.320,121.800 95.225,122.126 95.344 C 122.535 95.494,122.914 95.222,123.291 94.507 C 123.573 93.972,123.556 93.938,123.079 94.089 C 122.396 94.306,122.379 93.648,123.049 92.929 C 123.440 92.509,123.609 92.464,123.897 92.703 C 124.281 93.021,124.701 92.677,124.441 92.257 C 124.366 92.135,124.499 91.959,124.737 91.866 C 125.127 91.714,125.111 91.648,124.576 91.212 C 123.876 90.641,123.401 90.921,122.709 92.312 C 122.329 93.075,122.311 93.082,122.158 92.532 C 121.919 91.670,121.451 92.020,121.371 93.121 C 121.262 94.619,121.143 94.840,120.662 94.441 C 120.297 94.138,120.278 94.271,120.445 95.936 C 120.578 97.258,120.552 97.717,120.352 97.594 C 120.199 97.500,120.066 97.177,120.055 96.878 C 120.042 96.531,119.990 96.469,119.911 96.706 C 119.843 96.911,119.731 97.247,119.664 97.452 C 119.571 97.735,119.453 97.675,119.175 97.203 C 118.811 96.587,118.809 96.589,118.958 97.452 C 119.383 99.912,119.389 100.257,119.011 100.469 C 118.714 100.635,118.680 100.876,118.851 101.614 C 119.158 102.933,119.133 103.174,118.707 103.011 C 118.287 102.850,118.177 103.540,118.583 103.791 C 119.084 104.101,118.870 104.956,118.334 104.786 C 117.982 104.674,117.837 104.741,117.837 105.017 C 117.837 105.232,117.949 105.407,118.086 105.407 C 118.222 105.407,118.336 105.603,118.338 105.842 C 118.341 106.211,118.377 106.221,118.576 105.906 C 118.769 105.602,118.868 105.593,119.132 105.860 C 119.395 106.125,119.372 106.230,119.006 106.436 C 118.541 106.698,118.607 108.649,119.101 109.274 C 119.217 109.420,119.152 109.836,118.953 110.220 C 118.623 110.856,118.631 110.895,119.057 110.759 C 120.334 110.354,119.819 111.874,118.102 113.576 C 115.461 116.194,114.881 119.311,116.452 122.441 C 117.863 125.251,115.420 127.257,111.595 126.430 C 110.566 126.207,109.633 126.920,109.633 127.928 C 109.633 128.966,112.632 131.262,113.989 131.262 C 114.488 131.262,114.752 131.961,114.390 132.322 C 113.807 132.905,114.064 133.977,114.911 134.492 C 115.353 134.760,115.792 135.178,115.888 135.420 C 116.035 135.793,116.065 135.776,116.079 135.306 C 116.092 134.911,116.294 134.707,116.781 134.595 C 117.157 134.509,118.229 134.171,119.163 133.843 C 121.049 133.180,121.317 133.224,121.319 134.197 C 121.322 136.483,123.128 137.119,124.981 135.488 C 126.415 134.226,126.541 134.237,127.805 135.736 C 128.963 137.110,129.925 137.366,130.833 136.544 C 131.154 136.254,131.725 136.108,132.550 136.107 C 133.829 136.104,134.173 135.841,134.503 134.618 C 134.683 133.952,136.480 133.781,137.073 134.374 C 137.445 134.746,137.477 134.743,137.483 134.325 C 137.487 134.045,137.853 133.705,138.438 133.435 C 139.926 132.750,140.239 131.586,139.246 130.433 C 138.886 130.015,138.894 129.956,139.346 129.711 C 142.075 128.232,142.525 124.601,139.910 125.163 C 137.541 125.673,136.131 125.607,135.520 124.957 L 134.934 124.333 135.456 123.600 C 138.054 119.951,137.208 115.072,133.561 112.678 C 132.907 112.249,132.849 111.810,133.386 111.364 C 133.597 111.189,133.719 110.911,133.656 110.748 C 133.593 110.584,133.755 110.127,134.016 109.731 C 134.277 109.335,134.491 108.704,134.492 108.328 C 134.493 107.952,134.605 107.644,134.742 107.644 C 134.879 107.644,134.991 107.465,134.991 107.245 C 134.991 107.007,134.852 106.899,134.646 106.978 C 134.404 107.071,134.339 106.967,134.426 106.631 C 134.495 106.368,134.632 106.153,134.731 106.153 C 134.830 106.153,135.060 105.677,135.243 105.096 C 135.425 104.515,135.667 103.933,135.780 103.804 C 136.107 103.427,136.018 102.921,135.625 102.921 C 135.426 102.921,135.150 103.117,135.011 103.356 C 134.813 103.695,134.757 103.709,134.758 103.418 C 134.758 103.213,134.925 102.825,135.129 102.555 C 135.532 102.021,135.589 98.041,135.197 97.799 C 135.084 97.728,134.991 96.963,134.991 96.096 C 134.991 94.108,134.413 93.642,133.988 95.287 C 133.444 97.395,133.437 97.399,133.068 95.836 C 132.843 94.882,132.771 93.777,132.868 92.770 C 133.007 91.328,132.977 91.184,132.514 91.063 C 132.235 90.990,132.007 90.831,132.007 90.711 C 132.007 90.590,131.818 90.491,131.587 90.491 C 131.212 90.491,131.216 90.527,131.627 90.828 M133.508 92.961 C 133.366 93.225,133.253 93.757,133.256 94.142 L 133.262 94.842 133.735 94.225 C 134.341 93.437,134.538 92.480,134.095 92.480 C 133.914 92.480,133.649 92.696,133.508 92.961 M131.266 96.738 C 131.264 97.097,131.432 97.532,131.641 97.705 C 132.267 98.225,132.353 97.776,131.794 96.903 L 131.270 96.085 131.266 96.738 M134.669 97.835 C 134.595 98.555,134.362 99.463,134.151 99.852 L 133.768 100.559 133.758 99.697 C 133.744 98.482,134.304 96.216,134.577 96.385 C 134.702 96.462,134.744 97.115,134.669 97.835 M120.075 99.117 C 120.075 99.617,120.003 99.717,119.793 99.507 C 119.638 99.352,119.579 99.050,119.661 98.836 C 119.888 98.243,120.075 98.369,120.075 99.117 M134.527 105.072 C 134.293 105.475,134.259 105.441,134.252 104.798 C 134.247 104.263,134.319 104.139,134.519 104.339 C 134.716 104.536,134.718 104.743,134.527 105.072 M119.571 108.247 C 119.237 108.582,118.988 108.243,119.187 107.724 C 119.330 107.352,119.390 107.341,119.580 107.649 C 119.716 107.869,119.712 108.106,119.571 108.247 M123.823 116.575 C 125.622 118.374,123.795 121.198,121.462 120.223 C 120.466 119.807,120.072 119.182,120.082 118.040 C 120.102 116.022,122.378 115.131,123.823 116.575 M131.873 116.238 C 132.579 116.700,132.996 117.756,132.825 118.648 C 132.457 120.573,129.539 121.046,128.649 119.324 C 127.512 117.126,129.836 114.902,131.873 116.238 M137.478 135.254 C 137.477 135.330,137.868 136.169,138.346 137.118 C 138.824 138.067,139.216 139.033,139.216 139.264 C 139.217 139.496,139.322 139.749,139.450 139.829 C 139.715 139.993,139.475 139.052,138.913 137.725 C 138.529 136.820,137.479 135.012,137.478 135.254 M115.447 136.343 C 115.371 136.541,115.353 136.904,115.406 137.151 C 115.467 137.432,115.552 137.298,115.633 136.793 C 115.768 135.946,115.680 135.734,115.447 136.343 M114.946 138.160 C 114.869 138.400,114.649 139.015,114.459 139.528 C 114.268 140.040,114.170 140.460,114.241 140.460 C 114.379 140.460,114.781 139.512,115.112 138.409 C 115.333 137.671,115.179 137.441,114.946 138.160 M139.714 140.297 C 139.714 140.563,140.531 141.964,140.628 141.866 C 140.757 141.738,140.022 140.211,139.832 140.211 C 139.767 140.211,139.714 140.250,139.714 140.297 M141.708 144.504 C 141.702 144.728,143.465 147.421,143.619 147.421 C 143.766 147.421,142.769 145.681,142.193 144.935 C 141.930 144.593,141.711 144.399,141.708 144.504 M110.518 148.543 C 109.981 149.827,110.052 149.973,110.657 148.827 C 110.934 148.301,111.103 147.814,111.033 147.743 C 110.963 147.673,110.731 148.033,110.518 148.543 M144.189 148.798 C 144.189 148.872,144.413 149.371,144.686 149.907 C 145.239 150.991,145.315 151.904,144.921 152.720 C 144.668 153.244,144.672 153.246,145.045 152.780 C 145.570 152.126,145.531 151.189,144.923 149.814 C 144.471 148.792,144.189 148.402,144.189 148.798 M109.048 152.209 C 108.436 153.810,108.542 155.273,109.385 156.868 C 109.782 157.620,110.112 158.147,110.119 158.040 C 110.125 157.933,109.851 157.294,109.509 156.619 C 108.797 155.214,108.722 153.919,109.263 152.385 C 109.758 150.982,109.574 150.832,109.048 152.209 M120.383 155.870 C 120.213 156.141,120.076 156.505,120.078 156.678 C 120.080 156.851,120.223 156.713,120.395 156.373 C 120.776 155.621,121.372 155.466,121.891 155.985 C 122.103 156.197,122.368 156.367,122.481 156.362 C 122.868 156.346,121.510 155.376,121.101 155.376 C 120.876 155.376,120.553 155.598,120.383 155.870 M129.602 156.184 C 129.325 156.492,129.014 156.911,128.912 157.116 C 128.809 157.321,129.024 157.126,129.390 156.681 C 130.444 155.400,131.700 155.902,131.403 157.486 C 131.290 158.088,131.374 158.384,131.755 158.729 C 132.321 159.240,132.400 159.856,131.958 160.298 C 131.758 160.498,131.749 160.597,131.931 160.597 C 132.569 160.597,132.673 159.309,132.083 158.719 C 131.823 158.459,131.683 157.978,131.717 157.465 C 131.820 155.940,130.527 155.156,129.602 156.184 M143.709 156.542 C 143.765 157.188,144.154 157.735,144.171 157.193 C 144.181 156.893,144.077 156.579,143.940 156.495 C 143.804 156.410,143.700 156.432,143.709 156.542 M122.972 157.478 C 122.817 157.881,120.471 158.052,120.260 157.676 C 120.203 157.573,120.185 157.615,120.220 157.770 C 120.255 157.924,120.162 158.172,120.013 158.321 C 119.864 158.470,119.602 159.001,119.430 159.501 C 119.219 160.115,119.208 160.319,119.397 160.131 C 119.551 159.977,119.794 159.489,119.938 159.046 C 120.375 157.697,122.547 158.342,122.178 159.711 C 122.050 160.184,122.062 160.189,122.322 159.771 C 122.544 159.416,122.520 159.224,122.210 158.881 C 121.693 158.309,121.711 158.111,122.282 158.111 C 122.762 158.111,123.478 157.454,123.248 157.224 C 123.177 157.153,123.053 157.267,122.972 157.478 M128.543 157.894 C 128.516 158.570,129.228 159.004,129.790 158.653 C 130.417 158.261,130.404 158.656,129.770 159.229 C 128.648 160.245,129.260 161.243,130.764 160.849 L 131.635 160.621 130.646 160.671 C 129.407 160.734,129.235 160.230,130.131 159.165 C 130.779 158.394,130.530 157.883,129.747 158.378 C 129.210 158.719,129.028 158.656,128.783 158.048 C 128.631 157.670,128.553 157.620,128.543 157.894 M144.356 159.602 C 144.438 160.354,144.546 161.016,144.596 161.073 C 144.788 161.293,144.639 159.203,144.429 158.732 C 144.284 158.407,144.258 158.709,144.356 159.602 M109.793 160.400 C 109.709 160.713,109.656 161.865,109.675 162.958 L 109.710 164.947 109.886 162.461 C 110.069 159.874,110.050 159.440,109.793 160.400 M120.572 160.318 C 120.572 160.438,120.740 160.675,120.945 160.845 C 121.442 161.258,121.416 161.758,120.883 162.068 C 120.398 162.351,120.566 162.419,121.173 162.186 C 121.670 161.995,121.681 161.244,121.193 160.756 C 120.861 160.424,120.881 160.371,121.379 160.275 C 121.860 160.182,121.842 160.162,121.255 160.133 C 120.879 160.115,120.572 160.198,120.572 160.318 M118.641 161.342 C 118.641 161.821,118.692 162.017,118.754 161.778 C 118.817 161.538,118.817 161.147,118.754 160.907 C 118.692 160.668,118.641 160.864,118.641 161.342 M131.610 161.036 C 131.459 161.136,131.198 161.498,131.028 161.840 C 130.722 162.459,130.723 162.458,131.302 161.795 C 131.622 161.429,132.107 161.078,132.380 161.016 L 132.878 160.903 132.380 160.878 C 132.107 160.864,131.760 160.935,131.610 161.036 M133.131 161.467 C 133.679 162.860,133.467 163.207,132.069 163.207 C 131.351 163.207,130.764 163.291,130.764 163.393 C 130.765 163.702,133.128 163.603,133.449 163.282 C 133.861 162.870,133.810 162.061,133.333 161.467 L 132.935 160.970 133.131 161.467 M144.842 162.585 C 145.044 163.978,145.185 164.176,145.180 163.062 C 145.177 162.595,145.064 162.045,144.927 161.840 C 144.754 161.579,144.728 161.804,144.842 162.585 M145.297 168.879 C 145.290 171.902,145.342 172.823,145.453 171.659 C 145.674 169.343,145.688 165.300,145.477 164.777 C 145.384 164.547,145.303 166.393,145.297 168.879 M109.302 165.486 C 109.211 165.577,109.153 166.332,109.174 167.164 L 109.212 168.676 109.377 167.060 C 109.555 165.315,109.551 165.236,109.302 165.486 M109.154 171.210 C 109.144 171.509,109.248 171.824,109.385 171.908 C 109.679 172.090,109.679 171.846,109.385 171.162 C 109.179 170.683,109.170 170.685,109.154 171.210 M109.712 174.239 C 109.229 174.632,108.965 175.572,108.411 178.869 C 107.529 184.124,108.603 190.172,110.456 190.385 C 111.530 190.508,111.871 190.056,111.871 188.507 C 111.871 186.797,112.781 184.994,114.947 182.415 C 117.476 179.403,117.485 179.538,114.671 178.090 C 113.717 177.599,113.204 177.124,110.916 174.612 C 110.248 173.880,110.180 173.859,109.712 174.239 M144.951 173.925 C 144.927 174.330,140.679 178.496,140.288 178.496 C 139.880 178.496,139.026 178.963,138.299 179.583 C 137.713 180.082,138.092 181.231,138.841 181.231 C 139.231 181.231,140.697 182.596,141.379 183.592 C 141.891 184.341,142.565 186.378,143.331 189.487 C 143.989 192.160,145.107 192.484,146.153 190.305 C 147.456 187.589,147.733 186.433,147.860 183.174 L 147.983 180.022 147.069 177.664 C 146.567 176.368,145.980 175.161,145.766 174.983 C 145.552 174.805,145.284 174.432,145.171 174.154 C 145.059 173.876,144.959 173.773,144.951 173.925 M131.324 181.402 C 131.563 181.464,131.955 181.464,132.194 181.402 C 132.433 181.339,132.237 181.288,131.759 181.288 C 131.280 181.288,131.085 181.339,131.324 181.402 " stroke="none" fill="#bb8250" fill-rule="evenodd"></path><path id="path5" d="M207.334 50.465 C 207.334 50.628,184.927 50.741,141.516 50.797 C 95.241 50.858,75.293 50.964,74.332 51.155 C 71.955 51.627,71.516 51.770,69.832 52.626 C 67.481 53.820,64.636 57.247,64.636 58.884 C 64.636 59.122,64.535 59.423,64.412 59.553 C 64.062 59.921,63.856 61.932,63.732 66.190 L 63.618 70.106 159.078 70.106 C 222.450 70.106,254.590 70.189,254.692 70.354 C 254.794 70.519,270.693 70.603,301.583 70.603 L 348.319 70.603 348.270 65.376 C 348.244 62.501,348.126 60.089,348.008 60.016 C 347.890 59.943,347.794 59.604,347.794 59.262 C 347.794 58.911,347.685 58.708,347.545 58.794 C 347.405 58.881,347.296 58.677,347.296 58.326 C 347.296 57.985,347.183 57.635,347.044 57.549 C 346.905 57.463,346.834 57.316,346.886 57.223 C 346.939 57.130,346.772 56.718,346.515 56.308 C 346.258 55.898,345.980 55.367,345.897 55.127 C 345.815 54.888,345.584 54.692,345.385 54.692 C 344.925 54.692,344.438 54.181,344.438 53.698 C 344.438 53.493,344.289 53.356,344.108 53.393 C 343.927 53.431,343.845 53.355,343.926 53.224 C 344.007 53.093,343.959 52.916,343.820 52.830 C 343.681 52.744,343.567 52.797,343.567 52.947 C 343.567 53.123,343.444 53.106,343.221 52.900 C 343.030 52.723,342.935 52.478,343.010 52.354 C 343.086 52.231,343.027 52.204,342.880 52.295 C 342.733 52.385,342.444 52.291,342.238 52.084 C 342.032 51.878,341.741 51.709,341.593 51.709 C 341.248 51.709,340.267 51.163,340.029 50.839 C 339.920 50.692,339.844 50.737,339.842 50.951 C 339.839 51.231,339.772 51.245,339.540 51.013 C 339.376 50.849,338.789 50.713,338.235 50.711 C 337.493 50.708,337.326 50.644,337.601 50.466 C 337.842 50.310,314.917 50.224,272.654 50.221 C 229.513 50.219,207.334 50.301,207.334 50.465 M93.506 56.289 C 97.305 57.891,97.448 63.213,93.748 65.337 C 92.169 66.244,87.756 65.246,87.756 63.982 C 87.756 63.795,87.672 63.641,87.570 63.640 C 87.172 63.636,86.762 62.235,86.762 60.881 C 86.762 57.244,90.208 54.898,93.506 56.289 M81.214 56.555 C 83.308 57.599,84.349 60.480,83.428 62.679 C 81.386 67.555,74.332 66.090,74.332 60.790 C 74.332 60.050,74.444 59.376,74.580 59.291 C 74.717 59.207,74.829 58.977,74.829 58.782 C 74.829 56.910,79.007 55.454,81.214 56.555 M106.703 56.495 C 111.226 59.080,109.699 65.662,104.577 65.662 C 99.839 65.662,98.087 60.148,101.786 56.878 C 102.651 56.114,105.630 55.882,106.703 56.495 M345.864 221.051 C 343.669 224.020,341.454 225.369,337.402 226.205 C 335.207 226.657,75.947 226.583,73.835 226.129 C 70.104 225.328,68.048 224.157,66.036 221.690 L 65.074 220.510 62.384 220.510 C 60.859 220.510,59.627 220.617,59.540 220.758 C 59.456 220.895,58.393 221.007,57.178 221.007 C 55.964 221.007,54.901 221.119,54.817 221.255 C 54.732 221.392,53.725 221.504,52.579 221.504 C 51.433 221.504,50.426 221.616,50.342 221.753 C 50.257 221.889,49.468 222.001,48.587 222.001 C 47.685 222.001,46.986 222.110,46.986 222.250 C 46.986 222.392,46.240 222.498,45.245 222.498 C 44.288 222.498,43.505 222.600,43.505 222.724 C 43.505 222.848,42.918 223.003,42.200 223.068 C 40.284 223.243,39.698 223.371,38.819 223.810 C 38.384 224.027,38.092 224.100,38.171 223.973 C 38.250 223.846,38.196 223.741,38.051 223.741 C 37.906 223.741,37.787 223.853,37.787 223.990 C 37.787 224.127,37.564 224.239,37.290 224.239 C 37.017 224.239,36.793 224.351,36.793 224.487 C 36.793 224.624,36.560 224.969,36.276 225.253 C 35.718 225.811,36.141 226.725,36.956 226.725 C 37.140 226.725,37.290 226.837,37.290 226.973 C 37.290 227.110,37.495 227.222,37.746 227.222 C 37.997 227.222,38.279 227.299,38.374 227.394 C 38.469 227.489,38.790 227.603,39.088 227.649 C 39.386 227.694,39.708 227.857,39.803 228.010 C 39.897 228.163,40.140 228.225,40.342 228.148 C 40.544 228.070,40.974 228.143,41.299 228.309 C 41.624 228.476,42.448 228.645,43.132 228.685 C 43.815 228.726,44.456 228.888,44.557 229.047 C 44.683 229.244,44.743 229.218,44.748 228.962 C 44.754 228.690,44.808 228.671,44.948 228.892 C 45.059 229.066,45.638 229.185,46.310 229.171 C 46.954 229.158,47.621 229.259,47.792 229.394 C 47.964 229.530,48.884 229.662,49.837 229.689 C 50.790 229.716,51.704 229.849,51.869 229.986 C 52.033 230.122,52.875 230.225,53.741 230.215 C 56.526 230.183,61.017 230.466,61.529 230.706 C 62.017 230.935,64.121 231.078,70.914 231.341 C 72.806 231.415,74.332 231.579,74.332 231.710 C 74.332 231.848,75.925 231.945,78.185 231.945 C 80.588 231.945,82.039 232.039,82.039 232.194 C 82.039 232.350,83.691 232.443,86.499 232.443 C 89.204 232.443,91.019 232.540,91.112 232.691 C 91.207 232.844,93.270 232.940,96.472 232.940 C 99.777 232.940,101.678 233.030,101.678 233.188 C 101.678 233.348,103.952 233.437,108.003 233.437 C 111.951 233.437,114.385 233.530,114.481 233.686 C 114.578 233.843,117.453 233.934,122.285 233.934 C 126.493 233.934,130.010 234.008,130.100 234.099 C 130.285 234.283,131.833 234.316,143.644 234.384 C 148.972 234.414,151.871 234.518,151.774 234.675 C 151.677 234.833,159.448 234.921,173.948 234.926 C 188.461 234.931,196.300 235.019,196.354 235.179 C 196.468 235.517,221.680 235.517,221.794 235.179 C 221.848 235.019,229.594 234.931,243.921 234.926 C 256.344 234.921,266.001 234.823,266.047 234.700 C 266.092 234.580,270.966 234.442,276.880 234.394 C 282.794 234.346,287.632 234.223,287.632 234.121 C 287.632 234.018,291.149 233.934,295.448 233.934 C 300.391 233.934,303.321 233.843,303.418 233.686 C 303.514 233.531,305.902 233.437,309.758 233.437 C 313.613 233.437,316.001 233.343,316.097 233.188 C 316.191 233.035,318.254 232.940,321.457 232.940 C 325.454 232.940,326.663 232.868,326.666 232.629 C 326.669 232.401,326.728 232.409,326.885 232.657 C 327.020 232.871,327.134 232.897,327.192 232.727 C 327.253 232.549,328.811 232.449,331.807 232.431 C 334.294 232.415,336.364 232.304,336.406 232.183 C 336.448 232.062,338.189 231.949,340.274 231.931 C 342.360 231.914,344.007 231.805,343.935 231.688 C 343.863 231.571,345.289 231.414,347.104 231.339 C 355.543 230.991,356.865 230.907,356.987 230.710 C 357.128 230.482,361.563 230.173,364.236 230.204 C 365.267 230.216,366.014 230.103,366.225 229.904 C 366.443 229.697,367.180 229.596,368.303 229.619 C 369.260 229.639,370.174 229.549,370.333 229.420 C 370.492 229.291,371.220 229.172,371.949 229.157 C 372.679 229.142,373.410 229.027,373.574 228.901 C 373.739 228.775,374.382 228.672,375.004 228.672 C 375.626 228.672,376.134 228.570,376.134 228.444 C 376.134 228.319,376.582 228.216,377.129 228.216 C 377.676 228.216,378.123 228.104,378.123 227.968 C 378.123 227.831,378.338 227.719,378.600 227.719 C 379.230 227.719,381.419 226.773,381.656 226.398 C 381.971 225.901,381.786 224.708,381.416 224.850 C 381.235 224.919,381.024 224.811,380.947 224.609 C 380.869 224.407,380.718 224.296,380.611 224.362 C 380.504 224.428,380.279 224.315,380.110 224.112 C 379.941 223.908,379.543 223.741,379.226 223.741 C 378.909 223.741,378.582 223.631,378.498 223.497 C 378.415 223.362,378.101 223.253,377.800 223.254 C 376.609 223.260,374.377 222.921,374.250 222.716 C 374.177 222.596,373.507 222.498,372.763 222.498 C 372.020 222.498,371.411 222.387,371.411 222.250 C 371.411 222.105,370.582 222.001,369.422 222.001 C 368.328 222.001,367.433 221.905,367.433 221.788 C 367.433 221.670,366.513 221.552,365.388 221.525 C 364.263 221.498,363.272 221.360,363.185 221.220 C 363.098 221.079,362.956 220.974,362.868 220.986 C 361.775 221.132,358.238 220.954,358.359 220.758 C 358.458 220.598,357.455 220.510,355.530 220.510 C 353.889 220.510,352.486 220.412,352.412 220.293 C 352.339 220.173,351.208 220.056,349.899 220.032 C 348.591 220.007,347.367 219.929,347.181 219.857 C 346.974 219.778,346.461 220.242,345.864 221.051 " stroke="none" fill="#343444" fill-rule="evenodd"></path><path id="path6" d="M74.169 50.656 C 73.913 50.819,159.922 50.815,193.785 50.650 C 201.032 50.615,177.147 50.561,140.709 50.530 C 104.270 50.499,74.327 50.556,74.169 50.656 M71.846 51.212 C 71.371 51.519,71.882 51.519,72.840 51.212 L 73.462 51.013 72.840 50.992 C 72.498 50.980,72.051 51.079,71.846 51.212 M69.111 52.388 C 67.401 53.500,64.594 56.722,64.990 57.118 C 65.049 57.176,65.288 56.851,65.521 56.394 C 66.063 55.333,68.247 53.142,69.298 52.606 C 69.742 52.379,70.106 52.141,70.106 52.076 C 70.106 51.863,69.743 51.977,69.111 52.388 M64.278 58.301 C 64.065 58.811,63.891 59.445,63.891 59.711 C 63.891 59.977,63.779 60.402,63.643 60.656 C 63.353 61.199,63.162 206.212,63.452 205.756 C 63.552 205.598,63.636 173.174,63.638 133.701 C 63.642 57.786,63.611 60.089,64.673 58.105 C 64.812 57.845,64.867 57.575,64.795 57.503 C 64.724 57.432,64.491 57.791,64.278 58.301 M86.836 60.907 C 86.836 61.659,86.883 61.967,86.940 61.591 C 86.997 61.215,86.997 60.600,86.940 60.224 C 86.883 59.848,86.836 60.155,86.836 60.907 M84.027 83.159 C 78.618 84.271,75.663 86.892,74.140 91.929 C 73.510 94.011,73.345 200.784,73.967 203.827 C 75.116 209.454,78.350 212.555,84.243 213.683 C 87.000 214.210,174.456 214.229,177.129 213.703 C 183.345 212.478,186.414 209.482,187.599 203.480 C 188.034 201.274,188.118 95.891,187.686 93.673 C 186.557 87.881,183.999 84.972,178.612 83.355 C 176.629 82.760,86.874 82.574,84.027 83.159 M125.369 90.714 C 125.187 91.005,125.169 91.260,125.319 91.410 C 125.469 91.559,125.371 91.813,125.052 92.102 C 124.776 92.352,124.549 92.653,124.549 92.771 C 124.549 92.889,124.100 93.725,123.551 94.629 C 122.801 95.863,122.620 96.354,122.822 96.597 C 123.022 96.838,122.937 97.199,122.493 97.995 C 122.164 98.585,121.884 99.424,121.871 99.860 C 121.859 100.296,121.729 100.876,121.583 101.149 C 121.230 101.809,121.247 101.927,121.695 101.927 C 122.102 101.927,121.981 102.995,121.506 103.599 C 121.107 104.107,121.139 106.981,121.548 107.301 C 121.854 107.540,121.850 107.693,121.513 108.419 C 120.959 109.612,121.188 110.973,121.908 110.767 C 124.552 110.012,127.371 109.916,129.619 110.505 C 131.286 110.942,131.457 110.881,131.053 109.996 C 130.659 109.130,130.691 108.639,131.142 108.639 C 131.431 108.639,131.504 108.391,131.453 107.582 C 131.394 106.650,131.447 106.528,131.907 106.541 C 132.409 106.556,132.416 106.517,132.091 105.439 C 131.906 104.823,131.819 104.118,131.898 103.870 C 131.976 103.623,131.901 103.036,131.731 102.566 C 131.503 101.935,131.495 101.623,131.699 101.377 C 132.037 100.970,131.948 98.603,131.578 98.151 C 131.431 97.972,130.974 96.828,130.563 95.609 L 129.815 93.393 130.349 92.961 L 130.883 92.529 130.339 91.510 C 130.040 90.949,129.873 90.477,129.969 90.459 C 130.065 90.442,130.379 90.402,130.668 90.371 C 130.958 90.339,131.312 90.241,131.456 90.151 C 131.601 90.062,131.868 90.136,132.050 90.316 C 132.232 90.496,132.576 90.717,132.815 90.808 C 133.068 90.903,133.250 91.230,133.250 91.585 C 133.250 92.069,133.394 92.215,133.934 92.277 C 134.528 92.345,134.628 92.478,134.695 93.288 C 134.737 93.800,134.877 94.220,135.006 94.220 C 135.134 94.220,135.243 94.919,135.247 95.774 C 135.252 96.673,135.395 97.512,135.587 97.765 C 135.822 98.074,135.882 98.712,135.793 99.956 C 135.716 101.028,135.788 102.074,135.977 102.647 C 136.250 103.475,136.225 103.708,135.762 104.666 C 135.475 105.262,135.239 105.896,135.239 106.075 C 135.239 106.255,135.099 106.410,134.929 106.421 C 134.680 106.437,134.680 106.466,134.929 106.566 C 135.300 106.716,135.343 107.551,134.991 107.769 C 134.854 107.853,134.739 108.223,134.734 108.591 C 134.730 108.959,134.564 109.474,134.367 109.736 C 134.155 110.016,134.068 110.456,134.157 110.807 C 134.274 111.275,134.192 111.434,133.778 111.542 C 133.065 111.729,133.097 111.816,134.248 112.801 C 137.688 115.746,138.324 120.759,135.637 123.758 L 135.121 124.334 135.740 124.809 C 136.413 125.327,138.814 125.497,139.093 125.047 C 139.177 124.910,139.606 124.798,140.046 124.798 C 142.689 124.798,142.659 127.774,139.999 129.522 C 139.457 129.879,139.449 129.929,139.820 130.641 C 140.300 131.562,140.301 131.706,139.831 132.606 C 139.463 133.312,139.480 133.362,140.543 134.719 C 141.811 136.339,142.154 136.970,143.206 139.620 C 143.634 140.697,144.240 142.138,144.552 142.822 C 145.937 145.847,146.154 146.358,146.456 147.296 C 146.632 147.843,146.865 148.397,146.974 148.527 C 147.083 148.657,147.172 148.906,147.172 149.080 C 147.172 149.254,147.491 150.099,147.882 150.957 C 148.659 152.667,149.183 154.270,149.647 156.370 C 149.814 157.122,150.177 158.241,150.455 158.856 C 151.206 160.521,151.920 162.149,152.144 162.710 C 153.220 165.395,152.961 171.790,151.676 174.282 C 150.950 175.689,150.061 176.636,148.726 177.423 C 147.709 178.023,147.353 178.768,147.918 179.117 C 148.590 179.533,148.118 186.335,147.280 188.316 C 147.106 188.726,146.765 189.565,146.522 190.180 C 145.820 191.955,144.338 192.631,143.713 191.463 C 143.198 190.501,142.704 188.777,142.701 187.930 C 142.699 187.445,142.605 186.942,142.492 186.812 C 142.379 186.682,142.132 186.072,141.943 185.457 C 141.754 184.842,141.538 184.282,141.463 184.214 C 141.388 184.145,141.023 183.681,140.650 183.181 C 140.278 182.681,139.551 182.014,139.036 181.700 C 138.520 181.385,137.972 180.960,137.817 180.756 C 137.580 180.445,137.372 180.433,136.512 180.684 C 134.168 181.366,133.519 181.499,131.386 181.730 C 128.455 182.047,125.163 182.041,123.512 181.715 C 119.593 180.940,119.318 180.864,118.027 180.207 C 117.395 179.885,116.843 179.939,116.843 180.323 C 116.843 180.507,116.137 181.486,115.273 182.498 C 112.975 185.193,112.119 186.875,112.119 188.698 C 112.119 192.521,109.272 191.463,108.414 187.321 C 108.244 186.501,107.987 185.423,107.844 184.925 C 107.573 183.984,107.660 182.172,108.131 178.993 C 108.283 177.968,108.431 176.910,108.461 176.642 C 108.516 176.144,108.407 176.104,105.656 175.608 C 100.229 174.629,97.831 170.528,99.184 164.540 C 99.752 162.029,101.050 157.695,101.668 156.246 C 101.785 155.973,102.047 155.301,102.250 154.755 C 103.697 150.859,107.050 144.306,109.335 140.903 C 110.320 139.438,111.125 138.164,111.125 138.072 C 111.125 137.980,111.724 136.998,112.457 135.888 C 113.868 133.752,114.525 131.510,113.739 131.510 C 112.344 131.510,109.385 128.987,109.385 127.798 C 109.385 126.719,110.874 125.598,111.767 126.005 C 114.891 127.428,117.442 125.193,116.091 122.215 C 114.616 118.962,115.250 115.973,117.988 113.276 L 119.597 111.691 118.866 111.388 C 118.324 111.163,118.107 110.882,118.024 110.297 C 117.963 109.864,117.821 109.295,117.709 109.034 C 117.536 108.632,117.588 108.581,118.044 108.700 C 118.607 108.847,118.854 108.090,118.345 107.775 C 118.214 107.694,118.118 107.324,118.131 106.953 C 118.144 106.581,118.000 105.905,117.810 105.449 C 117.505 104.718,117.511 104.587,117.865 104.328 C 118.149 104.121,118.207 103.879,118.066 103.496 C 117.931 103.130,117.981 102.862,118.225 102.660 C 118.650 102.307,118.695 101.393,118.306 101.004 C 117.967 100.664,118.226 100.186,118.750 100.186 C 119.052 100.186,119.103 100.010,118.982 99.378 C 118.525 96.989,118.511 96.457,118.905 96.457 C 119.118 96.457,119.343 96.653,119.406 96.892 C 119.469 97.132,119.533 96.904,119.549 96.387 C 119.593 94.924,120.230 93.584,120.696 93.971 C 121.018 94.239,121.069 94.124,121.069 93.124 C 121.069 91.926,121.555 91.375,122.117 91.936 C 122.309 92.129,122.586 91.928,123.091 91.230 C 123.505 90.659,123.936 90.309,124.133 90.385 C 124.318 90.456,124.617 90.336,124.797 90.119 C 125.266 89.554,125.767 90.076,125.369 90.714 M131.664 95.649 C 131.754 96.025,131.976 96.613,132.156 96.955 C 132.592 97.780,132.645 96.935,132.232 95.749 C 131.896 94.786,131.439 94.706,131.664 95.649 M312.057 105.839 C 312.843 105.889,314.130 105.889,314.916 105.839 C 315.702 105.790,315.059 105.750,313.487 105.750 C 311.914 105.750,311.271 105.790,312.057 105.839 M207.893 164.512 C 212.234 164.550,219.338 164.550,223.679 164.512 C 228.021 164.474,224.469 164.443,215.786 164.443 C 207.104 164.443,203.552 164.474,207.893 164.512 " stroke="none" fill="#636363" fill-rule="evenodd"></path><path id="path7" d="M101.786 56.878 C 98.087 60.148,99.839 65.662,104.577 65.662 C 109.699 65.662,111.226 59.080,106.703 56.495 C 105.630 55.882,102.651 56.114,101.786 56.878 M139.116 133.461 C 139.019 133.619,138.718 133.748,138.449 133.748 C 137.589 133.748,137.622 134.481,138.563 136.320 C 139.064 137.298,139.471 138.239,139.469 138.412 C 139.464 138.831,140.508 141.059,140.759 141.164 C 140.868 141.210,140.957 141.402,140.957 141.592 C 140.957 141.781,141.181 142.335,141.454 142.822 C 141.728 143.309,141.952 143.820,141.952 143.959 C 141.952 144.098,142.490 145.017,143.147 146.003 C 145.870 150.081,146.219 151.724,144.810 153.816 C 143.961 155.077,143.722 155.957,144.156 156.226 C 144.275 156.299,144.450 156.893,144.547 157.546 C 144.863 159.688,145.156 161.445,145.431 162.834 C 145.859 165.006,145.988 168.699,145.736 171.616 C 145.518 174.140,145.535 174.343,146.003 174.868 C 146.277 175.177,146.695 175.923,146.930 176.527 C 147.619 178.295,149.442 177.697,151.185 175.133 C 152.636 172.998,153.277 168.310,152.611 164.714 C 152.277 162.913,152.266 162.882,150.426 158.794 C 150.164 158.213,149.814 157.122,149.647 156.370 C 149.183 154.270,148.659 152.667,147.882 150.957 C 147.491 150.099,147.172 149.254,147.172 149.080 C 147.172 148.906,147.083 148.657,146.974 148.527 C 146.865 148.397,146.632 147.843,146.456 147.296 C 146.125 146.266,146.035 146.052,144.622 142.946 C 144.156 141.920,143.408 140.159,142.960 139.032 C 141.842 136.220,139.505 132.832,139.116 133.461 M112.788 135.386 C 112.333 136.013,111.747 136.936,111.487 137.437 C 111.227 137.937,110.234 139.521,109.280 140.957 C 107.021 144.357,103.669 150.937,102.250 154.755 C 102.047 155.301,101.785 155.973,101.668 156.246 C 101.376 156.932,100.066 161.000,99.747 162.213 C 97.513 170.715,99.234 174.178,106.488 175.780 C 108.187 176.155,108.644 175.975,108.946 174.809 C 109.059 174.374,109.314 174.021,109.516 174.021 C 109.923 174.021,109.991 173.746,109.672 173.387 C 108.921 172.540,108.606 170.304,108.881 167.761 C 109.033 166.350,109.255 163.965,109.373 162.461 C 109.491 160.957,109.663 159.489,109.756 159.199 C 109.864 158.859,109.705 158.242,109.309 157.459 C 107.738 154.355,107.809 153.890,110.931 146.924 C 111.207 146.308,111.643 145.375,111.900 144.849 C 112.157 144.323,112.368 143.736,112.368 143.544 C 112.368 143.352,112.480 143.195,112.617 143.195 C 112.753 143.195,112.865 143.025,112.865 142.818 C 112.865 142.611,112.964 142.248,113.085 142.010 C 113.206 141.773,113.418 141.299,113.557 140.957 C 113.695 140.615,114.008 139.888,114.252 139.341 C 114.496 138.794,114.884 137.650,115.115 136.798 L 115.534 135.249 114.682 134.747 C 113.601 134.109,113.751 134.058,112.788 135.386 M120.612 156.506 C 120.160 157.497,120.248 157.613,121.442 157.613 C 122.725 157.613,122.885 157.259,121.985 156.414 C 121.240 155.714,120.964 155.732,120.612 156.506 M129.538 157.092 C 128.929 157.949,128.904 158.111,129.385 158.111 C 130.194 158.111,131.013 157.528,131.013 156.952 C 131.013 156.118,130.176 156.198,129.538 157.092 M120.323 158.945 C 120.323 159.568,121.032 159.945,121.713 159.683 C 122.170 159.508,121.950 159.188,121.053 158.724 C 120.343 158.357,120.323 158.363,120.323 158.945 M130.205 159.470 C 129.626 160.267,129.650 160.348,130.468 160.348 C 131.512 160.348,132.207 159.770,131.781 159.256 C 131.312 158.691,130.712 158.773,130.205 159.470 M119.646 160.305 C 118.877 160.782,119.171 161.634,120.137 161.727 C 120.650 161.776,121.069 161.705,121.069 161.568 C 121.069 161.098,119.958 160.112,119.646 160.305 M131.649 161.895 C 131.028 162.780,131.155 163.124,132.070 163.036 C 132.949 162.951,133.373 161.979,132.713 161.561 C 132.215 161.245,132.072 161.290,131.649 161.895 " stroke="none" fill="#644c34" fill-rule="evenodd"></path><path id="path8" d="M88.307 64.267 C 88.816 64.798,89.272 65.183,89.321 65.121 C 89.370 65.060,88.954 64.625,88.397 64.155 L 87.383 63.300 88.307 64.267 M90.677 65.562 C 91.122 65.617,91.849 65.617,92.293 65.562 C 92.738 65.507,92.374 65.462,91.485 65.462 C 90.597 65.462,90.233 65.507,90.677 65.562 M124.797 90.119 C 124.617 90.336,124.318 90.456,124.133 90.385 C 123.936 90.309,123.505 90.659,123.091 91.230 C 122.586 91.928,122.309 92.129,122.117 91.936 C 121.555 91.375,121.069 91.926,121.069 93.124 C 121.069 94.124,121.018 94.239,120.696 93.971 C 120.230 93.584,119.593 94.924,119.549 96.387 C 119.533 96.904,119.469 97.132,119.406 96.892 C 119.343 96.653,119.118 96.457,118.905 96.457 C 118.511 96.457,118.525 96.989,118.982 99.378 C 119.103 100.010,119.052 100.186,118.750 100.186 C 118.226 100.186,117.967 100.664,118.306 101.004 C 118.695 101.393,118.650 102.307,118.225 102.660 C 117.981 102.862,117.931 103.130,118.066 103.496 C 118.207 103.879,118.149 104.121,117.865 104.328 C 117.511 104.587,117.505 104.718,117.810 105.449 C 118.000 105.905,118.144 106.581,118.131 106.953 C 118.118 107.324,118.214 107.694,118.345 107.775 C 118.854 108.090,118.607 108.847,118.044 108.700 C 117.588 108.581,117.536 108.632,117.709 109.034 C 117.821 109.295,117.963 109.864,118.024 110.297 C 118.107 110.882,118.324 111.163,118.866 111.388 L 119.597 111.691 117.988 113.276 C 115.735 115.496,114.535 119.410,115.598 121.069 C 115.756 121.317,115.786 120.888,115.685 119.795 C 115.443 117.162,116.044 115.616,118.102 113.576 C 119.819 111.874,120.334 110.354,119.057 110.759 C 118.631 110.895,118.623 110.856,118.953 110.220 C 119.152 109.836,119.217 109.420,119.101 109.274 C 118.607 108.649,118.541 106.698,119.006 106.436 C 119.372 106.230,119.395 106.125,119.132 105.860 C 118.868 105.593,118.769 105.602,118.576 105.906 C 118.377 106.221,118.341 106.211,118.338 105.842 C 118.336 105.603,118.222 105.407,118.086 105.407 C 117.949 105.407,117.837 105.232,117.837 105.017 C 117.837 104.741,117.982 104.674,118.334 104.786 C 118.870 104.956,119.084 104.101,118.583 103.791 C 118.177 103.540,118.287 102.850,118.707 103.011 C 119.133 103.174,119.158 102.933,118.851 101.614 C 118.680 100.876,118.714 100.635,119.011 100.469 C 119.389 100.257,119.383 99.912,118.958 97.452 C 118.809 96.589,118.811 96.587,119.175 97.203 C 119.453 97.675,119.571 97.735,119.664 97.452 C 119.731 97.247,119.843 96.911,119.911 96.706 C 119.990 96.469,120.042 96.531,120.055 96.878 C 120.066 97.177,120.199 97.500,120.352 97.594 C 120.552 97.717,120.578 97.258,120.445 95.936 C 120.278 94.271,120.297 94.138,120.662 94.441 C 121.143 94.840,121.262 94.619,121.371 93.121 C 121.451 92.020,121.919 91.670,122.158 92.532 C 122.311 93.082,122.329 93.075,122.709 92.312 C 123.377 90.970,123.847 90.673,124.537 91.157 C 125.073 91.532,125.085 91.588,124.695 91.874 C 124.462 92.044,124.375 92.248,124.501 92.326 C 124.628 92.404,124.922 92.258,125.154 92.001 C 125.424 91.702,125.483 91.477,125.317 91.374 C 125.140 91.265,125.152 91.061,125.356 90.734 C 125.764 90.081,125.275 89.543,124.797 90.119 M131.418 90.169 C 131.341 90.246,131.022 90.336,130.710 90.369 C 130.398 90.401,130.065 90.442,129.969 90.459 C 129.873 90.477,130.040 90.949,130.339 91.510 L 130.883 92.529 130.349 92.961 L 129.815 93.393 130.563 95.609 C 130.974 96.828,131.431 97.972,131.578 98.151 C 131.948 98.603,132.037 100.970,131.699 101.377 C 131.495 101.623,131.503 101.935,131.731 102.566 C 131.901 103.036,131.976 103.623,131.898 103.870 C 131.819 104.118,131.906 104.823,132.091 105.439 C 132.416 106.517,132.409 106.556,131.907 106.541 C 131.447 106.528,131.394 106.650,131.453 107.582 C 131.504 108.391,131.431 108.639,131.142 108.639 C 130.691 108.639,130.659 109.130,131.053 109.996 C 131.457 110.881,131.286 110.942,129.619 110.505 C 127.371 109.916,124.552 110.012,121.908 110.767 C 121.188 110.973,120.959 109.612,121.513 108.419 C 121.850 107.693,121.854 107.540,121.548 107.301 C 121.139 106.981,121.107 104.107,121.506 103.599 C 121.981 102.995,122.102 101.927,121.695 101.927 C 121.247 101.927,121.230 101.809,121.583 101.149 C 121.729 100.876,121.859 100.296,121.871 99.860 C 121.884 99.424,122.164 98.585,122.493 97.995 C 122.937 97.199,123.022 96.838,122.822 96.597 C 122.620 96.354,122.806 95.856,123.568 94.601 C 124.127 93.681,124.520 92.865,124.442 92.787 C 124.365 92.709,124.301 92.734,124.301 92.842 C 124.301 92.950,124.129 92.895,123.919 92.721 C 123.603 92.458,123.455 92.494,123.049 92.929 C 122.379 93.648,122.396 94.306,123.079 94.089 C 123.556 93.938,123.573 93.972,123.291 94.507 C 122.914 95.222,122.535 95.494,122.126 95.344 C 121.800 95.225,121.765 95.320,121.765 96.333 C 121.765 97.277,121.803 97.359,122.054 96.962 C 122.451 96.334,122.632 96.888,122.285 97.672 C 122.059 98.181,121.866 98.343,121.674 98.184 C 121.265 97.844,120.464 98.803,120.684 99.369 C 120.846 99.789,120.876 99.787,121.211 99.331 C 121.542 98.881,121.566 98.909,121.566 99.751 C 121.566 100.248,121.454 100.723,121.318 100.808 C 121.181 100.892,121.069 101.248,121.069 101.599 C 121.069 102.137,121.011 102.188,120.696 101.927 C 120.254 101.560,120.218 101.763,120.599 102.474 C 120.815 102.878,120.918 102.916,121.082 102.651 C 121.465 102.031,121.625 102.634,121.283 103.407 C 121.093 103.835,120.809 104.117,120.634 104.050 C 120.463 103.985,120.323 104.083,120.323 104.270 C 120.323 104.456,120.491 104.672,120.696 104.751 C 120.914 104.835,121.069 105.207,121.069 105.648 C 121.069 106.152,120.946 106.401,120.696 106.401 C 120.491 106.401,120.323 106.504,120.323 106.630 C 120.323 107.148,120.648 107.644,120.988 107.644 C 121.259 107.644,121.300 107.787,121.149 108.204 C 120.935 108.796,120.959 110.849,121.183 111.073 C 121.255 111.145,121.959 111.047,122.746 110.854 C 124.653 110.387,128.545 110.436,130.217 110.949 C 131.747 111.419,132.102 111.134,131.371 110.019 C 130.893 109.289,131.050 108.900,131.629 109.380 C 131.931 109.631,132.083 109.632,132.380 109.385 C 132.585 109.214,132.757 109.173,132.761 109.292 C 132.765 109.411,132.880 109.317,133.017 109.083 C 133.318 108.566,132.875 107.734,132.206 107.559 C 131.960 107.495,131.759 107.313,131.759 107.154 C 131.759 106.985,131.952 106.926,132.226 107.013 C 132.813 107.200,133.116 106.060,132.594 105.627 C 132.211 105.309,132.136 104.019,132.488 103.802 C 132.615 103.723,132.895 103.909,133.109 104.215 C 133.486 104.754,133.499 104.732,133.499 103.567 C 133.499 102.335,133.277 102.278,132.419 103.294 C 132.298 103.438,132.270 103.355,132.353 103.098 C 132.439 102.830,132.350 102.598,132.128 102.512 C 131.718 102.355,131.615 101.429,132.007 101.429 C 132.144 101.429,132.259 101.569,132.262 101.740 C 132.265 101.911,132.486 101.771,132.753 101.429 C 133.493 100.483,133.351 99.439,132.587 100.204 C 132.398 100.393,132.285 100.283,132.197 99.825 C 132.130 99.470,132.166 99.123,132.279 99.054 C 132.391 98.984,132.420 98.763,132.343 98.563 C 132.266 98.362,132.319 98.198,132.460 98.198 C 132.601 98.198,132.765 98.393,132.824 98.633 C 132.884 98.872,132.877 98.397,132.810 97.576 C 132.602 95.029,131.280 93.205,131.254 95.427 C 131.246 96.063,131.234 96.069,130.875 95.594 C 130.672 95.325,130.558 94.965,130.624 94.794 C 130.689 94.624,130.636 94.418,130.505 94.338 C 130.030 94.044,130.244 93.433,130.764 93.599 C 131.302 93.769,131.463 93.359,130.951 93.124 C 130.780 93.046,130.907 93.049,131.233 93.131 C 131.809 93.276,131.814 93.264,131.419 92.700 C 130.909 91.972,130.903 91.707,131.401 91.898 C 131.661 91.998,131.835 91.869,131.930 91.506 C 132.242 90.315,132.883 91.040,132.799 92.489 C 132.689 94.408,132.999 96.321,133.282 95.463 C 133.424 95.034,133.452 95.226,133.373 96.085 C 133.244 97.477,133.534 97.105,133.994 95.287 C 134.411 93.638,134.991 94.109,134.991 96.096 C 134.991 96.963,135.084 97.728,135.197 97.799 C 135.589 98.041,135.532 102.021,135.129 102.555 C 134.925 102.825,134.758 103.213,134.758 103.418 C 134.757 103.709,134.813 103.695,135.011 103.356 C 135.150 103.117,135.426 102.921,135.625 102.921 C 136.018 102.921,136.107 103.427,135.780 103.804 C 135.667 103.933,135.425 104.515,135.243 105.096 C 135.060 105.677,134.830 106.153,134.731 106.153 C 134.632 106.153,134.495 106.368,134.426 106.631 C 134.339 106.967,134.404 107.071,134.646 106.978 C 134.852 106.899,134.991 107.007,134.991 107.245 C 134.991 107.465,134.879 107.644,134.742 107.644 C 134.605 107.644,134.493 107.952,134.492 108.328 C 134.491 108.704,134.277 109.335,134.016 109.731 C 133.755 110.127,133.593 110.584,133.656 110.748 C 133.719 110.911,133.597 111.189,133.386 111.364 C 132.849 111.810,132.907 112.249,133.561 112.678 C 137.208 115.072,138.054 119.951,135.456 123.600 L 134.934 124.333 135.520 124.957 C 136.131 125.607,137.541 125.673,139.910 125.163 C 142.525 124.601,142.075 128.232,139.346 129.711 C 138.894 129.956,138.886 130.015,139.246 130.433 C 140.155 131.489,139.974 132.571,138.763 133.322 C 138.336 133.587,138.238 133.737,138.490 133.741 C 139.588 133.760,140.428 131.871,139.843 130.701 C 139.453 129.921,139.458 129.882,140.003 129.521 C 142.660 127.765,142.687 124.798,140.046 124.798 C 139.606 124.798,139.177 124.910,139.093 125.047 C 138.814 125.497,136.413 125.327,135.740 124.809 L 135.121 124.334 135.637 123.758 C 138.324 120.759,137.688 115.746,134.248 112.801 C 133.097 111.816,133.065 111.729,133.778 111.542 C 134.192 111.434,134.274 111.275,134.157 110.807 C 134.068 110.456,134.155 110.016,134.367 109.736 C 134.564 109.474,134.730 108.959,134.734 108.591 C 134.739 108.223,134.854 107.853,134.991 107.769 C 135.343 107.551,135.300 106.716,134.929 106.566 C 134.680 106.466,134.680 106.437,134.929 106.421 C 135.099 106.410,135.239 106.255,135.239 106.075 C 135.239 105.896,135.475 105.262,135.762 104.666 C 136.225 103.708,136.250 103.475,135.977 102.647 C 135.788 102.074,135.716 101.028,135.793 99.956 C 135.882 98.712,135.822 98.074,135.587 97.765 C 135.395 97.512,135.252 96.673,135.247 95.774 C 135.243 94.919,135.134 94.220,135.006 94.220 C 134.877 94.220,134.737 93.800,134.695 93.288 C 134.628 92.478,134.528 92.345,133.934 92.277 C 133.389 92.214,133.250 92.070,133.250 91.570 C 133.250 91.151,133.085 90.898,132.753 90.812 C 132.480 90.740,132.256 90.595,132.256 90.489 C 132.256 90.237,131.600 89.987,131.418 90.169 M134.317 93.044 C 134.257 93.355,133.996 93.886,133.735 94.225 L 133.262 94.842 133.256 94.142 C 133.249 93.280,133.653 92.480,134.095 92.480 C 134.304 92.480,134.385 92.687,134.317 93.044 M132.232 95.749 C 132.561 96.693,132.572 97.210,132.271 97.684 C 131.938 98.210,131.261 97.574,131.263 96.738 L 131.265 96.085 131.759 96.830 C 132.256 97.581,132.440 97.530,132.042 96.752 C 131.677 96.038,131.489 94.966,131.730 94.966 C 131.856 94.966,132.082 95.318,132.232 95.749 M134.049 97.539 C 133.883 98.251,133.752 99.222,133.758 99.697 L 133.768 100.559 134.151 99.852 C 134.605 99.015,134.903 96.586,134.577 96.385 C 134.452 96.308,134.214 96.827,134.049 97.539 M119.661 98.836 C 119.579 99.050,119.638 99.352,119.793 99.507 C 120.003 99.717,120.075 99.617,120.075 99.117 C 120.075 98.369,119.888 98.243,119.661 98.836 M134.252 104.798 C 134.259 105.441,134.293 105.475,134.527 105.072 C 134.718 104.743,134.716 104.536,134.519 104.339 C 134.319 104.139,134.247 104.263,134.252 104.798 M119.187 107.724 C 118.988 108.243,119.237 108.582,119.571 108.247 C 119.712 108.106,119.716 107.869,119.580 107.649 C 119.390 107.341,119.330 107.352,119.187 107.724 M121.193 116.149 C 118.744 117.553,120.560 121.311,123.162 120.223 C 123.630 120.028,124.133 119.642,124.281 119.366 C 125.348 117.372,123.116 115.046,121.193 116.149 M129.005 116.575 C 128.190 117.390,128.082 118.227,128.649 119.324 C 129.539 121.046,132.457 120.573,132.825 118.648 C 133.263 116.361,130.641 114.939,129.005 116.575 M123.308 116.470 C 124.981 117.336,124.368 119.867,122.445 120.029 C 120.233 120.215,119.488 117.518,121.442 116.397 C 122.109 116.015,122.452 116.028,123.308 116.470 M131.894 116.707 C 133.226 118.039,132.375 120.075,130.486 120.075 C 128.700 120.075,127.959 118.119,129.254 116.824 C 130.150 115.927,131.073 115.886,131.894 116.707 M115.848 121.700 C 115.848 121.774,116.074 122.277,116.350 122.817 C 117.536 125.143,114.503 127.252,111.767 126.005 C 110.874 125.598,109.385 126.719,109.385 127.798 C 109.385 128.991,112.345 131.510,113.747 131.510 C 114.087 131.510,114.081 132.744,113.735 133.900 C 113.690 134.052,114.084 134.419,114.611 134.715 C 115.480 135.204,115.549 135.316,115.356 135.930 C 114.927 137.294,114.828 138.019,115.093 137.856 C 115.235 137.768,115.351 137.374,115.351 136.979 C 115.351 136.585,115.463 136.194,115.600 136.109 C 116.121 135.787,115.821 135.024,114.978 134.526 C 114.065 133.987,113.782 132.930,114.390 132.322 C 114.752 131.961,114.488 131.262,113.989 131.262 C 112.632 131.262,109.633 128.966,109.633 127.928 C 109.633 126.920,110.566 126.207,111.595 126.430 C 115.268 127.224,117.789 125.309,116.577 122.647 C 116.139 121.686,115.848 121.308,115.848 121.700 M137.477 134.345 C 137.477 134.673,137.924 135.816,138.471 136.886 C 139.018 137.955,139.466 138.647,139.466 138.423 C 139.466 138.199,139.066 137.261,138.577 136.340 C 138.088 135.418,137.742 134.458,137.808 134.206 C 137.873 133.954,137.826 133.748,137.702 133.748 C 137.578 133.748,137.477 134.016,137.477 134.345 M114.269 139.261 C 114.023 139.852,113.705 140.615,113.563 140.957 C 113.421 141.299,113.206 141.773,113.085 142.010 C 112.964 142.248,112.865 142.611,112.865 142.818 C 112.865 143.025,112.753 143.195,112.617 143.195 C 112.480 143.195,112.368 143.352,112.368 143.544 C 112.368 143.736,112.157 144.323,111.900 144.849 C 111.643 145.375,111.207 146.308,110.931 146.924 C 107.809 153.890,107.738 154.355,109.309 157.459 C 109.705 158.242,109.864 158.859,109.756 159.199 C 109.663 159.489,109.491 160.957,109.373 162.461 C 109.255 163.965,109.033 166.350,108.881 167.761 C 108.606 170.304,108.921 172.540,109.672 173.387 C 109.992 173.747,109.923 174.021,109.514 174.021 C 109.311 174.021,109.072 174.329,108.982 174.705 C 108.892 175.081,108.705 175.533,108.565 175.710 C 108.392 175.930,108.397 176.116,108.582 176.301 C 108.777 176.496,108.901 176.302,109.023 175.607 C 109.117 175.077,109.429 174.456,109.716 174.229 C 110.264 173.793,110.235 173.631,109.307 171.908 C 108.987 171.313,109.032 165.871,109.360 165.471 C 109.484 165.319,109.646 164.077,109.719 162.710 C 109.792 161.342,109.925 159.821,110.014 159.329 C 110.143 158.617,110.020 158.126,109.407 156.913 C 108.201 154.523,108.400 153.315,110.929 147.669 C 111.397 146.624,111.768 145.791,112.866 143.319 C 114.122 140.491,114.860 138.612,114.792 138.411 C 114.751 138.287,114.516 138.669,114.269 139.261 M139.477 139.217 C 139.473 139.422,139.691 139.925,139.963 140.336 C 140.592 141.286,140.596 141.071,139.973 139.821 C 139.705 139.283,139.482 139.012,139.477 139.217 M140.977 142.511 C 141.258 143.229,141.922 144.487,142.454 145.308 C 145.416 149.879,145.849 151.593,144.555 153.624 C 143.732 154.917,143.443 156.187,143.907 156.474 C 144.026 156.548,144.202 157.142,144.298 157.794 C 144.542 159.450,144.871 161.453,145.186 163.207 C 145.651 165.800,145.739 168.396,145.463 171.413 C 145.200 174.286,145.206 174.349,145.764 175.013 C 147.227 176.751,147.992 179.774,147.864 183.312 C 147.799 185.103,147.833 186.346,147.939 186.074 C 148.247 185.286,148.209 179.297,147.895 179.103 C 147.745 179.011,147.672 178.674,147.733 178.355 C 147.794 178.036,147.715 177.725,147.557 177.665 C 147.399 177.604,147.116 177.090,146.929 176.523 C 146.742 175.956,146.344 175.228,146.046 174.906 C 145.524 174.343,145.512 174.216,145.735 171.623 C 145.988 168.699,145.860 165.008,145.431 162.834 C 145.156 161.445,144.863 159.688,144.547 157.546 C 144.450 156.893,144.275 156.299,144.156 156.226 C 143.722 155.957,143.961 155.077,144.810 153.816 C 146.219 151.724,145.870 150.081,143.147 146.003 C 142.490 145.017,141.952 144.098,141.952 143.959 C 141.952 143.820,141.728 143.309,141.454 142.822 C 141.181 142.335,140.957 141.772,140.957 141.571 C 140.957 141.370,140.847 141.206,140.712 141.206 C 140.577 141.206,140.697 141.793,140.977 142.511 M120.633 155.935 C 120.496 156.106,120.313 156.526,120.227 156.868 C 120.104 157.351,120.163 157.310,120.490 156.681 C 120.989 155.723,121.295 155.676,122.020 156.449 C 122.828 157.309,122.689 157.576,121.380 157.679 L 120.199 157.772 121.512 157.817 C 123.184 157.874,123.436 157.420,122.312 156.371 C 121.447 155.562,121.020 155.451,120.633 155.935 M129.410 156.705 C 128.477 157.927,128.653 158.945,129.703 158.404 C 130.571 157.957,130.804 158.365,130.135 159.160 C 129.228 160.238,129.403 160.743,130.646 160.634 C 132.272 160.492,132.766 159.643,131.755 158.729 C 131.374 158.384,131.290 158.088,131.403 157.486 C 131.702 155.893,130.414 155.388,129.410 156.705 M131.013 156.952 C 131.013 157.528,130.194 158.111,129.385 158.111 C 128.904 158.111,128.929 157.949,129.538 157.092 C 130.176 156.198,131.013 156.118,131.013 156.952 M120.083 158.591 C 119.942 158.856,119.826 159.230,119.826 159.423 C 119.826 159.616,119.602 159.976,119.329 160.224 C 118.339 161.119,118.663 162.047,119.966 162.047 C 121.246 162.047,121.630 161.602,120.975 160.879 C 120.407 160.251,120.468 160.099,121.291 160.099 C 122.298 160.099,122.501 159.418,121.711 158.686 C 120.955 157.984,120.425 157.954,120.083 158.591 M121.922 159.326 C 122.113 159.635,121.475 159.846,120.844 159.681 C 120.497 159.590,120.323 159.344,120.323 158.945 C 120.323 158.340,121.483 158.616,121.922 159.326 M131.781 159.256 C 132.207 159.770,131.512 160.348,130.468 160.348 C 129.650 160.348,129.626 160.267,130.205 159.470 C 130.712 158.773,131.312 158.691,131.781 159.256 M121.069 161.568 C 121.069 161.705,120.650 161.776,120.137 161.727 C 119.171 161.634,118.877 160.782,119.646 160.305 C 119.958 160.112,121.069 161.098,121.069 161.568 M131.255 161.848 C 130.500 162.909,130.749 163.331,132.132 163.331 C 133.446 163.331,133.718 162.968,133.249 161.835 C 132.835 160.836,131.973 160.841,131.255 161.848 M132.713 161.561 C 133.373 161.979,132.949 162.951,132.070 163.036 C 131.155 163.124,131.028 162.780,131.649 161.895 C 132.072 161.290,132.215 161.245,132.713 161.561 M108.277 177.953 C 108.174 178.679,108.150 179.333,108.222 179.405 C 108.399 179.582,108.720 177.369,108.577 176.958 C 108.514 176.778,108.379 177.226,108.277 177.953 M116.666 180.174 C 116.578 180.413,115.812 181.424,114.965 182.419 C 112.804 184.957,111.871 186.787,111.871 188.487 C 111.871 191.108,109.953 191.310,109.029 188.787 C 108.825 188.230,108.672 188.030,108.668 188.316 C 108.649 190.030,110.297 191.363,111.479 190.589 C 112.048 190.216,112.119 190.004,112.119 188.698 C 112.119 186.875,112.975 185.193,115.273 182.498 C 116.137 181.486,116.843 180.507,116.843 180.323 C 116.843 179.939,117.395 179.885,118.027 180.207 C 119.359 180.885,121.075 181.353,123.058 181.578 C 123.825 181.666,124.020 181.637,123.679 181.486 C 123.406 181.365,122.859 181.258,122.465 181.248 C 121.552 181.226,119.996 180.801,118.648 180.205 C 117.336 179.625,116.872 179.618,116.666 180.174 M107.800 181.013 C 107.587 182.076,107.611 184.522,107.837 184.877 C 107.939 185.037,108.037 184.058,108.056 182.702 C 108.092 180.074,108.047 179.777,107.800 181.013 M136.482 180.485 C 136.277 180.617,135.808 180.727,135.440 180.730 C 135.072 180.732,134.712 180.830,134.639 180.947 C 134.512 181.154,135.719 180.967,136.955 180.590 C 137.358 180.466,137.639 180.524,137.825 180.767 C 137.975 180.965,138.520 181.385,139.036 181.700 C 139.551 182.014,140.278 182.681,140.650 183.181 C 141.023 183.681,141.388 184.145,141.463 184.214 C 141.538 184.282,141.754 184.842,141.943 185.457 C 142.240 186.424,142.697 187.310,142.697 186.918 C 142.697 185.290,139.931 181.231,138.822 181.231 C 138.638 181.231,138.369 181.007,138.222 180.733 C 137.940 180.205,137.100 180.085,136.482 180.485 M131.386 181.479 C 130.193 181.643,130.183 181.650,131.137 181.670 C 131.684 181.682,132.635 181.601,133.250 181.492 C 134.723 181.230,133.276 181.220,131.386 181.479 M125.740 181.912 C 126.600 181.961,127.942 181.960,128.723 181.911 C 129.504 181.862,128.800 181.822,127.160 181.823 C 125.519 181.823,124.880 181.863,125.740 181.912 M108.184 186.078 C 108.180 186.489,108.273 187.048,108.390 187.321 C 108.682 188.001,108.682 186.866,108.390 185.954 C 108.196 185.348,108.191 185.351,108.184 186.078 M147.214 187.715 C 145.751 192.574,144.015 192.953,143.073 188.619 C 142.805 187.388,142.734 187.250,142.721 187.943 C 142.712 188.421,142.876 189.306,143.086 189.909 C 144.115 192.863,145.475 192.824,146.665 189.807 C 146.989 188.987,147.356 188.182,147.480 188.019 C 147.605 187.855,147.671 187.473,147.626 187.170 C 147.565 186.756,147.462 186.893,147.214 187.715 " stroke="none" fill="#796850" fill-rule="evenodd"></path></g></svg>