<svg id="svg" version="1.1" xmlns="http://www.w3.org/2000/svg" xmlns:xlink="http://www.w3.org/1999/xlink" width="400" height="272.86063569682153" viewBox="0, 0, 400,272.86063569682153"><g id="svgg"><path id="path0" d="M176.792 128.677 C 175.772 129.300,168.879 136.371,166.995 138.728 C 163.818 142.703,163.443 145.555,165.816 147.716 C 166.436 148.282,166.610 148.719,166.740 150.043 C 166.828 150.939,167.113 152.102,167.375 152.628 C 167.636 153.154,168.284 154.444,168.815 155.495 C 170.936 159.693,171.021 159.966,171.011 162.594 C 171.002 164.922,170.458 167.115,169.894 167.090 C 169.383 167.068,166.553 163.854,166.553 163.296 C 166.553 163.135,166.430 163.003,166.280 163.003 C 166.130 163.003,166.007 162.832,166.007 162.623 C 166.007 161.966,165.337 161.911,157.247 161.911 L 149.352 161.911 149.352 171.891 L 149.352 181.871 149.966 181.226 C 152.394 178.675,160.126 177.290,164.044 178.703 C 165.085 179.078,166.128 179.386,166.361 179.386 C 166.936 179.386,167.023 180.016,166.737 182.116 C 166.413 184.493,166.686 189.991,167.246 192.355 C 167.692 194.241,167.940 195.621,168.338 198.432 C 168.757 201.393,167.227 207.374,165.515 209.467 C 164.466 210.750,163.110 211.946,162.393 212.221 C 160.659 212.886,161.018 215.154,162.857 215.154 C 163.370 215.154,163.866 215.031,163.959 214.881 C 164.052 214.730,164.541 214.608,165.046 214.608 C 166.323 214.608,171.318 213.553,172.696 212.993 C 174.121 212.414,182.536 208.167,182.617 207.986 C 182.667 207.874,182.863 207.782,183.052 207.782 C 183.242 207.782,184.278 207.042,185.355 206.138 C 187.654 204.207,187.668 204.217,187.995 207.964 C 188.161 209.870,188.113 210.280,187.608 211.270 C 186.651 213.146,187.017 214.168,188.629 214.122 C 191.741 214.034,203.950 205.309,205.393 202.142 C 205.554 201.790,205.765 201.502,205.863 201.502 C 205.961 201.502,206.210 201.072,206.416 200.546 C 206.623 200.020,206.891 199.590,207.013 199.590 C 207.136 199.590,207.235 199.410,207.235 199.190 C 207.235 198.970,207.408 198.386,207.619 197.893 C 208.230 196.463,208.543 195.010,208.890 191.988 L 209.215 189.164 210.205 189.316 C 210.749 189.399,211.663 189.548,212.235 189.646 C 213.375 189.842,214.608 189.045,214.608 188.113 C 214.608 187.645,213.354 186.212,212.945 186.212 C 212.521 186.212,211.010 183.728,211.174 183.300 C 211.320 182.919,211.404 182.920,212.007 183.315 C 212.375 183.557,212.804 183.754,212.960 183.754 C 213.566 183.754,213.326 162.155,212.718 161.996 C 212.245 161.872,212.195 161.600,212.209 159.202 C 212.224 156.781,211.888 154.457,211.318 153.038 C 211.198 152.737,211.039 152.184,210.965 151.809 C 210.855 151.244,209.652 147.557,208.872 145.392 C 207.190 140.724,204.289 136.577,200.665 133.663 C 199.901 133.048,197.220 131.893,196.535 131.884 C 196.281 131.880,195.997 131.754,195.904 131.604 C 195.812 131.454,195.443 131.331,195.085 131.331 C 194.728 131.331,194.367 131.222,194.285 131.088 C 194.202 130.955,193.734 130.779,193.245 130.698 C 192.468 130.570,189.392 129.837,185.392 128.827 C 183.585 128.370,177.468 128.263,176.792 128.677 M78.908 188.532 L 78.908 215.154 109.345 215.154 L 139.782 215.154 139.504 214.424 C 139.352 214.023,139.306 213.500,139.404 213.263 C 140.365 210.922,140.412 209.867,140.601 185.939 C 140.703 172.949,140.741 162.229,140.685 162.116 C 140.628 162.003,126.705 161.911,109.745 161.911 L 78.908 161.911 78.908 188.532 M221.706 182.237 C 221.706 201.105,221.730 202.058,222.221 202.920 C 222.507 203.423,222.804 204.631,222.892 205.651 C 222.978 206.656,223.163 207.700,223.303 207.971 C 224.582 210.444,225.529 213.319,225.529 214.727 L 225.529 215.700 255.017 215.700 L 284.505 215.700 284.505 189.078 L 284.505 162.457 253.106 162.457 L 221.706 162.457 221.706 182.237 M110.660 171.846 C 112.556 172.787,112.491 172.165,112.491 189.433 C 112.491 203.050,112.438 205.074,112.060 205.833 C 111.212 207.532,111.432 207.509,96.496 207.509 L 82.931 207.509 82.034 206.557 C 80.797 205.246,80.765 204.734,80.868 187.986 C 80.967 171.962,80.859 172.739,83.125 171.722 C 84.840 170.952,109.081 171.061,110.660 171.846 M251.195 175.427 C 253.782 175.597,254.355 175.642,258.375 176.002 C 260.592 176.200,261.570 176.813,261.570 178.003 C 261.570 178.253,261.672 178.574,261.796 178.717 C 261.920 178.859,262.483 180.143,263.047 181.570 C 263.611 182.997,264.186 184.440,264.323 184.778 C 264.461 185.116,264.680 185.669,264.810 186.007 C 264.940 186.345,265.187 186.928,265.358 187.304 C 266.064 188.853,266.200 190.663,265.646 191.143 C 265.362 191.390,265.207 191.668,265.301 191.763 C 265.456 191.918,264.915 192.802,263.345 194.961 C 263.044 195.374,262.103 196.676,261.252 197.856 C 258.994 200.986,258.661 201.298,257.973 200.930 C 257.552 200.705,257.355 200.707,257.212 200.939 C 257.038 201.219,250.032 201.194,244.878 200.895 L 243.612 200.822 243.308 199.503 C 243.140 198.777,243.000 197.855,242.995 197.454 C 242.987 196.806,242.947 196.775,242.640 197.179 C 242.338 197.576,242.213 197.419,241.661 195.950 C 240.978 194.129,240.687 193.378,240.293 192.423 C 239.211 189.800,238.617 188.014,238.697 187.626 C 238.749 187.374,238.614 187.032,238.397 186.866 C 237.966 186.538,244.457 176.366,245.032 176.469 C 245.186 176.496,245.352 176.256,245.401 175.934 C 245.467 175.506,245.633 175.386,246.022 175.488 C 246.314 175.564,246.553 175.495,246.553 175.333 C 246.553 175.157,246.961 175.084,247.577 175.149 C 248.140 175.209,249.768 175.334,251.195 175.427 M134.007 178.348 C 134.707 179.048,134.102 179.113,126.859 179.113 C 119.528 179.113,118.197 178.959,118.956 178.200 C 119.303 177.853,133.653 177.994,134.007 178.348 M255.622 182.594 C 255.676 182.857,255.931 183.055,256.188 183.034 C 256.445 183.013,256.655 183.105,256.655 183.239 C 256.655 183.372,256.784 183.481,256.941 183.481 C 257.360 183.481,256.311 182.135,255.884 182.125 C 255.683 182.120,255.567 182.327,255.622 182.594 M255.921 185.256 C 255.922 186.157,255.973 186.493,256.034 186.002 C 256.095 185.511,256.094 184.774,256.031 184.364 C 255.969 183.953,255.919 184.355,255.921 185.256 M137.884 185.392 C 137.884 185.929,137.703 185.938,127.031 185.934 C 116.642 185.930,115.192 185.831,115.613 185.150 C 116.009 184.508,137.884 184.746,137.884 185.392 M241.152 189.257 C 241.293 189.682,241.904 189.757,241.926 189.352 C 241.934 189.201,241.735 189.036,241.485 188.984 C 241.200 188.925,241.075 189.028,241.152 189.257 M137.884 189.761 C 137.884 190.478,116.227 190.639,115.952 189.924 C 115.688 189.236,116.018 189.215,127.008 189.215 C 137.702 189.215,137.884 189.224,137.884 189.761 M255.364 191.399 C 255.364 192.075,255.418 192.352,255.483 192.014 C 255.548 191.676,255.548 191.123,255.483 190.785 C 255.418 190.447,255.364 190.724,255.364 191.399 M137.840 193.558 L 137.933 194.215 126.787 194.018 C 114.983 193.809,115.340 193.836,115.590 193.183 C 115.735 192.807,117.013 192.766,126.750 192.830 L 137.747 192.901 137.840 193.558 M242.253 194.539 C 242.256 195.140,242.312 195.354,242.377 195.014 C 242.443 194.674,242.440 194.183,242.372 193.922 C 242.304 193.661,242.250 193.939,242.253 194.539 M137.884 197.679 C 137.884 198.216,137.702 198.225,126.979 198.225 C 116.407 198.225,115.442 198.154,115.904 197.406 C 116.284 196.792,137.884 197.061,137.884 197.679 M254.198 199.044 C 254.732 199.390,255.290 199.390,255.290 199.044 C 255.290 198.894,254.952 198.773,254.539 198.776 C 253.954 198.779,253.879 198.838,254.198 199.044 M249.420 199.863 C 249.324 200.018,249.553 200.137,249.950 200.137 C 250.334 200.137,250.648 200.014,250.648 199.863 C 250.648 199.713,250.410 199.590,250.119 199.590 C 249.827 199.590,249.513 199.713,249.420 199.863 M137.884 201.272 L 137.884 201.862 131.536 201.682 C 128.044 201.584,123.068 201.503,120.478 201.502 C 116.474 201.502,115.768 201.440,115.768 201.092 C 115.768 200.735,117.179 200.683,126.826 200.683 L 137.884 200.683 137.884 201.272 M134.057 229.829 C 134.055 235.348,133.963 240.000,133.852 240.168 C 133.707 240.388,121.794 240.527,90.815 240.671 L 47.978 240.870 47.334 241.515 C 46.456 242.393,46.474 243.485,47.372 243.710 C 47.747 243.805,48.055 243.991,48.055 244.125 C 48.055 244.265,56.044 244.369,66.894 244.369 C 79.340 244.369,85.734 244.275,85.734 244.094 C 85.734 243.912,93.815 243.843,109.829 243.889 L 133.925 243.959 134.001 247.760 C 134.044 249.912,133.965 251.673,133.818 251.820 C 132.783 252.855,131.797 252.836,185.149 252.831 L 236.451 252.827 236.451 248.342 L 236.451 243.856 273.493 243.771 C 302.823 243.704,310.558 243.615,310.649 243.345 C 310.729 243.104,311.523 243.003,313.353 243.003 C 316.195 243.003,316.724 242.768,316.724 241.502 C 316.724 240.694,316.164 240.000,315.514 240.000 C 315.278 240.000,315.085 239.877,315.085 239.727 C 315.085 239.571,314.266 239.454,313.174 239.454 C 312.082 239.454,311.263 239.571,311.263 239.727 C 311.263 240.057,236.553 240.114,236.349 239.784 C 236.276 239.665,236.176 235.120,236.128 229.683 L 236.041 219.797 230.566 219.796 C 225.347 219.795,223.627 220.015,223.620 220.683 C 223.619 220.795,223.335 220.887,222.990 220.887 C 222.644 220.887,222.245 221.000,222.102 221.137 C 221.960 221.275,221.106 221.446,220.205 221.518 C 216.489 221.813,212.252 222.327,211.741 222.544 C 211.440 222.672,210.396 222.843,209.420 222.925 C 208.444 223.007,206.048 223.216,204.096 223.389 C 200.566 223.702,186.449 223.772,179.932 223.508 C 178.055 223.432,172.526 223.226,167.645 223.050 C 162.765 222.875,158.648 222.654,158.498 222.560 C 158.348 222.466,156.812 222.244,155.085 222.066 C 153.358 221.888,151.147 221.601,150.171 221.429 C 149.195 221.256,147.536 221.054,146.485 220.980 C 145.433 220.906,144.457 220.732,144.314 220.593 C 144.171 220.455,143.656 220.341,143.170 220.341 C 142.683 220.341,142.209 220.218,142.116 220.068 C 142.016 219.907,140.338 219.795,138.004 219.795 L 134.061 219.795 134.057 229.829 M98.020 225.256 L 98.020 229.078 97.099 229.078 C 96.115 229.078,95.836 229.628,95.836 231.570 L 95.836 232.355 105.811 232.355 C 116.980 232.355,116.248 232.503,115.918 230.304 C 115.773 229.337,115.623 229.078,115.205 229.078 C 114.707 229.078,114.676 228.856,114.676 225.256 L 114.676 221.433 106.348 221.433 L 98.020 221.433 98.020 225.256 M251.953 225.461 L 251.877 229.488 250.853 229.573 L 249.829 229.658 249.829 231.552 L 249.829 233.447 260.068 233.447 L 270.307 233.447 270.307 231.553 L 270.307 229.659 269.420 229.574 L 268.532 229.488 268.457 225.461 L 268.381 221.433 260.205 221.433 L 252.028 221.433 251.953 225.461 " stroke="none" fill="#3c3a51" fill-rule="evenodd"></path><path id="path1" d="M297.747 46.962 C 297.646 47.127,295.742 47.235,292.953 47.235 C 290.052 47.235,288.328 47.337,288.328 47.509 C 288.328 47.672,287.235 47.782,285.597 47.782 C 284.096 47.782,282.867 47.887,282.867 48.015 C 282.867 48.144,281.055 48.336,278.840 48.443 C 276.625 48.549,274.771 48.751,274.721 48.892 C 274.671 49.032,273.842 49.147,272.878 49.147 C 271.892 49.147,271.126 49.266,271.126 49.420 C 271.126 49.571,270.398 49.693,269.488 49.693 C 268.578 49.693,267.850 49.814,267.850 49.966 C 267.850 50.116,267.174 50.239,266.348 50.239 C 265.522 50.239,264.846 50.346,264.846 50.477 C 264.846 50.608,263.710 50.803,262.321 50.911 C 260.932 51.019,259.670 51.211,259.517 51.337 C 259.364 51.463,258.688 51.606,258.015 51.654 L 256.792 51.741 256.621 55.700 C 256.528 57.877,256.435 65.956,256.417 73.653 L 256.382 87.647 302.184 87.578 L 347.986 87.509 347.986 70.171 L 347.986 52.833 347.099 52.747 C 346.611 52.700,346.212 52.560,346.212 52.436 C 346.212 52.312,345.812 52.141,345.324 52.056 C 343.225 51.693,342.509 51.523,342.253 51.324 C 342.102 51.208,341.027 51.024,339.863 50.917 C 338.700 50.809,337.747 50.612,337.747 50.480 C 337.747 50.347,337.202 50.239,336.535 50.239 C 335.868 50.239,335.246 50.116,335.154 49.966 C 335.061 49.816,334.385 49.693,333.652 49.693 C 332.919 49.693,332.243 49.570,332.150 49.420 C 332.057 49.270,331.276 49.147,330.414 49.147 C 329.552 49.147,328.730 49.032,328.587 48.893 C 328.444 48.753,326.696 48.551,324.702 48.444 C 322.708 48.337,321.011 48.144,320.932 48.016 C 320.852 47.887,319.634 47.782,318.225 47.782 C 316.812 47.782,315.588 47.659,315.495 47.509 C 315.393 47.344,313.541 47.235,310.853 47.235 C 308.166 47.235,306.313 47.127,306.212 46.962 C 306.111 46.800,304.394 46.689,301.980 46.689 C 299.565 46.689,297.848 46.800,297.747 46.962 M251.718 52.807 C 251.572 52.949,250.058 53.233,248.390 53.431 C 247.674 53.516,247.021 53.693,246.941 53.824 C 246.860 53.954,246.371 54.061,245.854 54.061 C 245.337 54.061,244.915 54.184,244.915 54.334 C 244.915 54.485,244.362 54.608,243.686 54.608 C 243.010 54.608,242.457 54.706,242.457 54.826 C 242.457 54.947,241.505 55.195,240.341 55.378 C 239.177 55.561,237.764 55.783,237.200 55.871 C 236.636 55.958,236.106 56.140,236.023 56.275 C 235.940 56.409,235.518 56.519,235.085 56.519 C 234.653 56.519,234.223 56.642,234.130 56.792 C 234.037 56.942,233.538 57.065,233.021 57.065 C 232.505 57.065,232.082 57.162,232.082 57.282 C 232.082 57.477,230.170 57.903,227.370 58.331 C 226.806 58.417,226.277 58.598,226.194 58.732 C 226.111 58.866,225.689 58.976,225.256 58.976 C 224.823 58.976,224.393 59.099,224.300 59.249 C 224.208 59.399,223.777 59.522,223.345 59.522 C 222.912 59.522,222.485 59.639,222.397 59.783 C 222.308 59.926,221.502 60.126,220.606 60.227 C 219.710 60.329,218.976 60.519,218.976 60.650 C 218.976 60.780,218.553 60.887,218.037 60.887 C 217.520 60.887,217.021 61.010,216.928 61.160 C 216.836 61.311,216.467 61.433,216.109 61.433 C 215.752 61.433,215.383 61.556,215.290 61.706 C 215.197 61.857,214.760 61.980,214.318 61.980 C 213.877 61.980,213.515 62.087,213.515 62.217 C 213.515 62.348,212.782 62.538,211.885 62.639 C 210.989 62.741,210.183 62.941,210.095 63.084 C 210.006 63.228,209.580 63.345,209.147 63.345 C 208.714 63.345,208.284 63.468,208.191 63.618 C 208.098 63.768,207.722 63.891,207.356 63.891 C 206.989 63.891,206.689 64.001,206.689 64.135 C 206.689 64.270,206.229 64.439,205.666 64.512 C 205.102 64.584,204.334 64.724,203.959 64.823 C 202.680 65.158,200.821 65.570,199.929 65.716 C 199.440 65.797,198.972 65.972,198.889 66.105 C 198.807 66.239,198.255 66.348,197.663 66.348 C 197.071 66.348,196.587 66.458,196.587 66.593 C 196.587 66.727,195.603 66.924,194.401 67.031 C 193.199 67.137,192.147 67.334,192.064 67.469 C 191.981 67.603,191.313 67.713,190.580 67.713 C 189.847 67.713,189.171 67.836,189.078 67.986 C 188.986 68.137,188.303 68.259,187.561 68.259 C 186.819 68.259,186.212 68.382,186.212 68.532 C 186.212 68.686,185.438 68.805,184.437 68.805 C 183.461 68.805,182.662 68.907,182.662 69.030 C 182.662 69.281,176.313 69.872,171.468 70.073 C 169.741 70.145,168.211 70.319,168.068 70.460 C 167.926 70.601,166.175 70.717,164.177 70.717 L 160.546 70.717 160.546 79.354 L 160.546 87.992 206.758 87.793 C 232.174 87.684,253.049 87.514,253.146 87.415 C 253.243 87.316,253.373 79.464,253.434 69.966 L 253.546 52.696 252.689 52.696 C 252.217 52.696,251.780 52.746,251.718 52.807 M104.300 53.235 C 103.925 53.359,103.103 53.473,102.473 53.488 C 101.844 53.503,101.253 53.638,101.160 53.788 C 101.068 53.939,100.630 54.061,100.189 54.061 C 99.747 54.061,99.386 54.184,99.386 54.334 C 99.386 54.485,99.024 54.608,98.583 54.608 C 98.141 54.608,97.704 54.730,97.611 54.881 C 97.518 55.031,97.192 55.154,96.885 55.154 C 96.354 55.154,95.911 55.321,93.106 56.582 C 92.430 56.886,91.631 57.231,91.331 57.350 C 89.890 57.920,87.499 59.116,87.418 59.307 C 87.367 59.426,87.091 59.522,86.803 59.522 C 86.515 59.522,86.280 59.645,86.280 59.795 C 86.280 59.945,86.145 60.068,85.980 60.068 C 85.652 60.068,83.769 60.904,83.549 61.147 C 83.474 61.230,83.075 61.472,82.662 61.685 C 82.249 61.898,81.911 62.174,81.911 62.299 C 81.911 62.423,81.776 62.526,81.611 62.526 C 81.190 62.526,79.387 63.393,78.975 63.793 C 78.787 63.976,78.081 64.402,77.405 64.739 C 76.730 65.077,76.177 65.454,76.177 65.577 C 76.177 65.701,75.932 65.802,75.631 65.802 C 75.331 65.802,75.085 65.925,75.085 66.075 C 75.085 66.225,74.901 66.348,74.676 66.348 C 74.451 66.348,74.266 66.452,74.266 66.580 C 74.266 66.707,73.775 67.033,73.174 67.304 C 72.573 67.575,72.082 67.900,72.082 68.028 C 72.082 68.155,71.925 68.259,71.733 68.259 C 71.541 68.259,71.206 68.505,70.990 68.805 C 70.773 69.106,70.435 69.352,70.237 69.352 C 69.762 69.352,68.449 70.199,67.064 71.399 C 66.891 71.549,66.286 71.909,65.719 72.199 C 65.153 72.488,64.340 73.059,63.913 73.467 C 63.486 73.875,62.876 74.291,62.558 74.392 C 62.240 74.493,61.980 74.691,61.980 74.831 C 61.980 74.971,61.826 75.086,61.638 75.086 C 61.451 75.086,60.867 75.455,60.341 75.904 C 59.816 76.354,59.285 76.723,59.161 76.723 C 59.038 76.723,59.130 76.917,59.366 77.153 C 59.726 77.512,59.795 78.416,59.795 82.750 L 59.795 87.918 108.669 87.918 L 157.543 87.918 157.543 79.317 L 157.543 70.717 155.686 70.717 C 154.665 70.717,153.713 70.604,153.570 70.467 C 153.427 70.329,152.082 70.151,150.580 70.071 C 147.300 69.896,142.645 69.295,142.364 69.010 C 142.253 68.898,141.691 68.805,141.115 68.805 C 140.539 68.805,140.068 68.683,140.068 68.532 C 140.068 68.382,139.645 68.259,139.129 68.259 C 138.612 68.259,138.113 68.137,138.020 67.986 C 137.928 67.836,137.559 67.713,137.201 67.713 C 136.844 67.713,136.479 67.598,136.392 67.456 C 136.305 67.315,135.683 67.116,135.011 67.015 C 134.338 66.915,133.788 66.723,133.788 66.590 C 133.788 66.457,133.550 66.348,133.258 66.348 C 132.967 66.348,132.653 66.225,132.560 66.075 C 132.467 65.925,132.152 65.802,131.861 65.802 C 131.570 65.802,131.331 65.679,131.331 65.529 C 131.331 65.379,131.109 65.256,130.837 65.256 C 130.566 65.256,130.105 65.076,129.813 64.855 C 129.522 64.635,129.068 64.450,128.805 64.446 C 128.543 64.441,128.328 64.314,128.328 64.164 C 128.328 64.014,128.082 63.891,127.782 63.891 C 127.481 63.891,127.235 63.768,127.235 63.618 C 127.235 63.468,127.051 63.345,126.826 63.345 C 126.601 63.345,126.416 63.224,126.416 63.077 C 126.416 62.930,126.118 62.734,125.754 62.643 C 125.390 62.551,124.879 62.242,124.619 61.955 C 124.360 61.668,124.038 61.433,123.904 61.433 C 123.771 61.433,123.354 61.126,122.979 60.751 C 122.603 60.375,122.186 60.068,122.052 60.068 C 121.918 60.068,120.694 58.962,119.332 57.611 C 117.970 56.259,116.673 55.154,116.449 55.154 C 116.224 55.154,116.041 55.060,116.041 54.945 C 116.041 54.667,114.045 53.811,112.391 53.379 C 110.894 52.989,105.346 52.890,104.300 53.235 M351.192 70.785 L 351.263 87.509 365.367 87.579 L 379.471 87.650 379.326 85.941 C 379.246 85.001,379.074 84.115,378.942 83.973 C 378.811 83.830,378.703 83.246,378.703 82.676 C 378.703 82.105,378.580 81.638,378.430 81.638 C 378.280 81.638,378.157 81.215,378.157 80.699 C 378.157 80.182,378.046 79.690,377.910 79.606 C 377.773 79.522,377.578 78.839,377.474 78.088 C 377.371 77.338,377.175 76.724,377.039 76.724 C 376.903 76.724,376.792 76.502,376.792 76.232 C 376.792 75.622,376.181 74.271,375.904 74.268 C 375.792 74.267,375.700 74.086,375.700 73.866 C 375.700 73.479,374.886 71.541,374.607 71.263 C 374.532 71.188,374.296 70.788,374.083 70.375 C 373.870 69.962,373.594 69.625,373.469 69.625 C 373.344 69.625,373.242 69.497,373.242 69.340 C 373.242 69.072,373.029 68.763,372.218 67.860 C 372.031 67.651,371.877 67.397,371.877 67.297 C 371.877 67.105,366.894 62.142,365.987 61.430 C 365.698 61.203,364.877 60.650,364.164 60.202 C 363.451 59.753,362.868 59.294,362.867 59.181 C 362.867 59.068,362.683 58.976,362.457 58.976 C 362.232 58.976,362.048 58.881,362.048 58.764 C 362.048 58.648,361.496 58.310,360.822 58.013 C 360.147 57.717,359.594 57.382,359.593 57.270 C 359.592 57.157,359.352 57.065,359.060 57.065 C 358.769 57.065,358.455 56.942,358.362 56.792 C 358.269 56.642,357.955 56.519,357.663 56.519 C 357.372 56.519,357.133 56.416,357.133 56.290 C 357.133 56.164,356.427 55.832,355.563 55.551 C 354.700 55.271,353.876 54.944,353.734 54.824 C 353.591 54.705,353.192 54.608,352.846 54.608 C 352.501 54.608,352.218 54.485,352.218 54.334 C 352.218 54.184,351.972 54.061,351.670 54.061 C 351.127 54.061,351.123 54.199,351.192 70.785 M55.845 79.246 C 55.550 79.411,55.022 79.833,54.673 80.183 C 54.323 80.533,53.938 80.819,53.816 80.819 C 53.695 80.819,53.211 81.188,52.739 81.638 C 52.268 82.089,51.780 82.457,51.656 82.457 C 51.531 82.457,51.179 82.734,50.873 83.072 C 50.568 83.410,49.973 83.932,49.553 84.232 C 49.133 84.532,48.449 85.085,48.032 85.461 C 47.616 85.836,46.929 86.415,46.505 86.746 C 44.888 88.010,44.213 88.693,44.442 88.834 C 44.572 88.915,44.851 88.742,45.062 88.450 C 45.420 87.952,45.810 87.918,51.118 87.918 L 56.792 87.918 56.773 83.891 C 56.751 79.320,56.646 78.796,55.845 79.246 M41.044 91.543 C 39.607 92.800,34.489 97.983,33.038 99.650 C 32.362 100.427,31.225 101.679,30.512 102.434 C 29.799 103.188,29.215 103.949,29.215 104.124 C 29.215 104.299,28.987 104.584,28.709 104.758 C 28.431 104.932,27.609 105.913,26.883 106.940 C 26.156 107.966,25.484 108.867,25.388 108.942 C 25.293 109.017,24.983 109.478,24.699 109.966 C 24.415 110.454,24.086 110.853,23.968 110.853 C 23.851 110.853,23.754 111.099,23.754 111.399 C 23.754 111.700,23.651 111.945,23.524 111.945 C 23.398 111.945,23.063 112.375,22.780 112.901 C 22.496 113.427,22.170 113.857,22.054 113.857 C 21.938 113.857,21.843 114.041,21.843 114.266 C 21.843 114.491,21.720 114.676,21.570 114.676 C 21.420 114.676,21.297 114.922,21.297 115.222 C 21.297 115.522,21.193 115.768,21.065 115.768 C 20.938 115.768,20.604 116.290,20.322 116.928 C 20.041 117.567,19.745 118.150,19.666 118.225 C 19.181 118.685,16.928 123.080,16.928 123.566 C 16.928 123.782,16.805 123.959,16.655 123.959 C 16.505 123.959,16.382 124.205,16.382 124.505 C 16.382 124.805,16.259 125.051,16.109 125.051 C 15.959 125.051,15.836 125.290,15.836 125.581 C 15.836 125.873,15.723 126.181,15.584 126.267 C 15.446 126.353,15.247 126.812,15.142 127.288 C 15.037 127.765,14.721 128.566,14.438 129.068 C 14.156 129.571,13.925 130.217,13.925 130.504 C 13.925 130.791,13.813 131.095,13.676 131.180 C 13.539 131.265,13.344 131.824,13.242 132.423 C 13.141 133.022,12.946 133.582,12.809 133.667 C 12.672 133.751,12.560 134.182,12.560 134.624 C 12.560 135.065,12.437 135.427,12.287 135.427 C 12.137 135.427,12.014 135.633,12.014 135.885 C 12.014 136.391,11.530 138.035,11.171 138.752 C 11.044 139.005,10.858 140.018,10.757 141.005 C 10.656 141.991,10.467 142.799,10.338 142.799 C 10.208 142.799,10.102 143.283,10.102 143.875 C 10.102 144.466,9.980 145.027,9.829 145.119 C 9.679 145.212,9.556 145.827,9.556 146.485 C 9.556 147.143,9.433 147.757,9.283 147.850 C 9.133 147.943,9.010 148.540,9.010 149.177 C 9.010 149.813,8.894 150.451,8.752 150.594 C 8.610 150.737,8.407 152.297,8.302 154.061 C 8.197 155.826,8.015 157.270,7.897 157.270 C 7.555 157.270,7.351 161.857,7.214 172.628 C 7.128 179.375,7.178 182.662,7.365 182.662 C 7.536 182.662,7.645 183.625,7.645 185.119 C 7.645 186.471,7.750 187.577,7.878 187.577 C 8.006 187.577,8.194 188.870,8.296 190.450 C 8.399 192.030,8.601 193.635,8.746 194.017 C 8.891 194.399,9.010 195.195,9.010 195.786 C 9.010 196.377,9.133 196.860,9.283 196.860 C 9.433 196.860,9.556 197.406,9.556 198.073 C 9.556 198.740,9.679 199.361,9.829 199.454 C 9.980 199.547,10.102 200.107,10.102 200.699 C 10.102 201.291,10.208 201.775,10.338 201.775 C 10.467 201.775,10.653 202.543,10.752 203.481 C 10.850 204.420,11.082 205.618,11.267 206.143 L 11.604 207.099 34.130 206.962 L 56.655 206.826 56.724 149.010 L 56.793 91.195 50.121 91.195 C 46.451 91.195,43.134 91.075,42.749 90.929 C 42.152 90.701,41.904 90.791,41.044 91.543 M208.737 90.922 C 208.627 91.100,200.270 91.195,184.557 91.195 L 160.546 91.195 160.546 124.778 L 160.546 158.362 159.044 158.362 L 157.543 158.362 157.543 124.778 L 157.543 91.195 108.669 91.195 L 59.795 91.195 59.795 149.078 L 59.795 206.962 66.485 206.962 L 73.174 206.962 73.174 208.464 L 73.174 209.966 66.485 209.966 L 59.795 209.966 59.795 220.833 C 59.795 229.135,59.715 231.792,59.454 232.091 C 59.266 232.307,59.420 232.220,59.795 231.898 C 61.837 230.149,61.050 230.225,79.249 230.013 C 95.154 229.827,95.836 229.798,95.836 229.312 C 95.836 228.915,96.043 228.805,96.792 228.805 L 97.747 228.805 97.747 224.983 L 97.747 221.160 85.597 221.160 L 73.447 221.160 73.447 189.624 L 73.447 158.087 108.601 158.156 L 143.754 158.225 143.754 181.221 C 143.754 202.863,143.782 204.189,144.218 203.747 C 145.055 202.898,145.409 200.895,145.038 199.100 C 144.643 197.185,144.623 195.709,144.968 193.946 C 145.110 193.221,145.371 191.584,145.549 190.307 C 145.726 189.031,146.047 187.557,146.260 187.033 C 146.580 186.249,146.645 183.630,146.629 172.357 L 146.608 158.635 155.898 158.635 L 165.188 158.635 165.188 159.438 C 165.188 159.879,165.311 160.317,165.461 160.410 C 165.852 160.651,165.804 160.291,165.188 158.362 C 164.574 156.440,164.441 152.521,164.937 150.962 C 165.394 149.528,165.794 148.810,166.048 148.967 C 166.653 149.341,166.187 148.566,165.503 148.061 C 163.744 146.760,163.345 143.685,164.615 141.225 C 165.692 139.139,171.954 132.195,175.339 129.333 C 177.605 127.416,181.447 127.273,187.577 128.877 C 188.102 129.014,189.392 129.322,190.444 129.560 C 191.495 129.798,192.662 130.092,193.038 130.214 C 193.413 130.336,194.212 130.584,194.812 130.765 C 195.413 130.946,196.150 131.192,196.451 131.311 C 196.751 131.431,197.488 131.682,198.089 131.870 C 199.850 132.420,201.591 133.671,203.731 135.925 C 205.725 138.025,206.202 138.749,207.993 142.389 C 208.510 143.440,209.042 144.514,209.176 144.774 C 209.310 145.035,209.420 145.436,209.420 145.666 C 209.420 145.895,209.534 146.296,209.673 146.557 C 209.812 146.817,210.257 148.075,210.662 149.352 C 211.067 150.628,211.494 151.918,211.611 152.218 C 211.888 152.930,212.666 156.627,212.760 157.679 C 212.832 158.492,212.847 158.499,214.676 158.579 L 216.519 158.660 216.520 174.006 C 216.522 186.701,216.589 189.479,216.908 190.092 C 217.121 190.499,217.474 191.175,217.693 191.594 C 218.318 192.790,218.643 193.615,219.069 195.085 C 219.425 196.312,219.468 194.534,219.494 177.543 L 219.522 158.635 254.744 158.635 L 289.966 158.635 289.966 182.867 L 289.966 207.099 319.044 207.028 L 348.123 206.958 348.123 148.803 L 348.123 90.648 302.253 90.648 L 256.382 90.648 256.382 124.505 L 256.382 158.362 254.881 158.362 L 253.379 158.362 253.379 124.505 L 253.379 90.648 231.142 90.648 C 216.613 90.648,208.847 90.743,208.737 90.922 M351.126 148.805 L 351.126 206.962 352.150 206.958 C 353.538 206.953,353.683 206.810,354.287 204.849 C 354.576 203.911,354.904 203.144,355.017 203.142 C 355.130 203.141,355.222 202.833,355.222 202.457 C 355.222 202.082,355.345 201.775,355.495 201.775 C 355.645 201.775,355.768 201.468,355.768 201.092 C 355.768 200.717,355.883 200.410,356.024 200.410 C 356.165 200.410,356.363 199.857,356.465 199.181 C 356.566 198.505,356.758 197.952,356.891 197.952 C 357.024 197.952,357.133 197.710,357.133 197.414 C 357.133 197.119,357.379 196.439,357.679 195.904 C 357.980 195.370,358.225 194.697,358.225 194.411 C 358.225 194.124,358.337 193.820,358.475 193.735 C 358.612 193.650,358.807 193.091,358.908 192.491 C 359.009 191.892,359.204 191.333,359.341 191.248 C 359.478 191.163,359.590 190.794,359.590 190.428 C 359.590 190.061,359.713 189.761,359.863 189.761 C 360.014 189.761,360.137 189.523,360.137 189.231 C 360.137 188.940,360.259 188.625,360.410 188.532 C 360.560 188.440,360.683 188.071,360.683 187.713 C 360.683 187.356,360.798 186.991,360.940 186.904 C 361.081 186.816,361.280 186.193,361.381 185.519 C 361.482 184.845,361.673 184.226,361.806 184.144 C 361.939 184.062,362.048 183.695,362.048 183.329 C 362.048 182.962,362.171 182.662,362.321 182.662 C 362.471 182.662,362.594 182.362,362.594 181.996 C 362.594 181.629,362.717 181.253,362.867 181.160 C 363.017 181.068,363.140 180.699,363.140 180.341 C 363.140 179.984,363.256 179.619,363.397 179.532 C 363.539 179.444,363.737 178.823,363.838 178.151 C 363.939 177.478,364.130 176.928,364.263 176.928 C 364.396 176.928,364.505 176.567,364.505 176.125 C 364.505 175.684,364.628 175.246,364.778 175.154 C 364.928 175.061,365.051 174.683,365.051 174.315 C 365.051 173.946,365.169 173.431,365.313 173.170 C 365.576 172.694,366.064 170.734,366.332 169.078 C 366.411 168.590,366.586 168.191,366.719 168.191 C 366.853 168.191,366.962 167.830,366.962 167.388 C 366.962 166.946,367.085 166.509,367.235 166.416 C 367.386 166.324,367.509 165.894,367.509 165.461 C 367.509 165.028,367.619 164.605,367.755 164.522 C 367.890 164.438,368.086 163.632,368.191 162.730 C 368.296 161.829,368.492 161.023,368.628 160.939 C 368.763 160.855,368.874 160.526,368.874 160.208 C 368.874 159.663,369.228 158.359,369.710 157.133 C 369.828 156.833,369.987 156.280,370.063 155.904 C 370.139 155.529,370.329 154.730,370.486 154.130 C 370.643 153.529,370.775 152.638,370.778 152.150 C 370.782 151.662,370.908 151.263,371.058 151.263 C 371.208 151.263,371.331 150.833,371.331 150.307 C 371.331 149.782,371.441 149.352,371.575 149.352 C 371.710 149.352,371.884 148.891,371.963 148.328 C 372.041 147.765,372.243 146.751,372.411 146.075 C 372.578 145.399,372.861 144.017,373.039 143.003 C 373.217 141.990,373.459 141.160,373.576 141.160 C 373.693 141.160,373.788 140.608,373.788 139.932 C 373.788 139.256,373.911 138.703,374.061 138.703 C 374.212 138.703,374.334 138.298,374.334 137.802 C 374.334 137.306,374.445 136.784,374.580 136.642 C 374.714 136.499,374.886 135.891,374.961 135.290 C 375.236 133.095,375.763 130.363,376.001 129.901 C 376.136 129.641,376.246 129.003,376.246 128.484 C 376.246 127.965,376.369 127.465,376.519 127.372 C 376.669 127.279,376.792 126.665,376.792 126.007 C 376.792 125.349,376.905 124.740,377.043 124.655 C 377.181 124.570,377.382 123.272,377.488 121.772 C 377.594 120.272,377.777 119.044,377.895 119.044 C 378.095 119.044,378.180 118.442,378.573 114.266 C 378.658 113.365,378.840 112.382,378.978 112.082 C 379.115 111.782,379.294 110.676,379.375 109.625 C 379.926 102.487,380.019 100.707,380.039 96.928 C 380.052 94.601,379.986 92.235,379.893 91.672 L 379.724 90.648 365.425 90.648 L 351.126 90.648 351.126 148.805 M166.458 151.536 C 166.620 152.501,167.268 153.993,167.525 153.993 C 167.602 153.993,167.525 153.733,167.355 153.416 C 167.185 153.098,166.878 152.330,166.672 151.709 C 166.323 150.655,166.308 150.643,166.458 151.536 M166.826 163.317 C 166.826 163.404,167.195 163.938,167.645 164.505 C 168.096 165.072,168.459 165.427,168.453 165.294 C 168.441 165.026,166.826 163.065,166.826 163.317 M289.966 215.495 L 289.966 221.160 279.317 221.160 L 268.669 221.160 268.669 224.983 L 268.669 228.805 283.222 228.805 C 297.565 228.805,299.239 228.898,299.247 229.693 C 299.248 229.805,299.371 229.898,299.519 229.898 C 299.668 229.898,300.652 230.451,301.706 231.126 C 302.761 231.802,303.745 232.355,303.894 232.355 C 304.042 232.355,304.164 232.478,304.164 232.628 C 304.164 232.778,304.290 232.901,304.444 232.901 C 304.597 232.901,305.547 233.423,306.553 234.061 C 308.751 235.455,309.358 235.821,309.898 236.077 C 310.123 236.184,310.986 236.711,311.815 237.248 C 314.112 238.736,314.317 238.857,315.542 239.446 C 316.881 240.091,317.602 241.256,317.154 242.051 C 316.508 243.195,316.271 243.276,313.603 243.276 C 312.043 243.276,310.990 243.386,310.990 243.549 C 310.990 243.713,309.898 243.823,308.259 243.823 C 306.621 243.823,305.529 243.932,305.529 244.096 C 305.529 244.246,305.898 244.369,306.348 244.369 C 306.799 244.369,307.167 244.478,307.167 244.612 C 307.167 244.861,307.555 244.951,310.853 245.461 C 314.343 246.002,323.044 245.785,323.438 245.148 C 323.517 245.020,323.859 244.915,324.197 244.915 C 324.535 244.915,325.321 244.669,325.942 244.369 C 326.564 244.068,327.202 243.823,327.361 243.823 C 327.825 243.823,330.472 242.364,330.954 241.843 C 331.196 241.580,331.574 241.365,331.793 241.365 C 332.012 241.365,332.480 241.058,332.833 240.683 C 333.185 240.307,333.583 240.000,333.717 240.000 C 334.530 240.000,341.775 231.677,342.241 230.208 C 342.343 229.887,342.540 229.625,342.681 229.625 C 342.821 229.625,342.935 229.440,342.935 229.215 C 342.935 228.990,343.037 228.805,343.162 228.805 C 343.287 228.805,343.563 228.468,343.776 228.055 C 343.989 227.642,344.225 227.242,344.300 227.167 C 344.375 227.092,344.790 226.355,345.221 225.529 C 345.652 224.703,346.297 223.487,346.654 222.826 C 347.011 222.166,347.304 221.459,347.304 221.256 C 347.304 221.053,347.427 220.887,347.577 220.887 C 347.727 220.887,347.850 220.652,347.850 220.364 C 347.850 220.076,347.972 219.800,348.121 219.750 C 348.269 219.700,348.380 219.352,348.367 218.976 C 348.354 218.601,348.287 216.421,348.219 214.132 L 348.096 209.971 319.031 209.900 L 289.966 209.829 289.966 215.495 M12.560 210.501 C 12.560 210.797,12.726 211.565,12.930 212.209 C 13.134 212.852,13.453 213.932,13.639 214.608 C 13.826 215.283,14.089 216.050,14.225 216.310 C 14.360 216.571,14.471 216.970,14.471 217.198 C 14.471 217.425,14.594 217.611,14.744 217.611 C 14.894 217.611,15.021 217.887,15.026 218.225 C 15.031 218.563,15.215 219.078,15.435 219.370 C 15.656 219.661,15.836 220.122,15.836 220.393 C 15.836 220.665,15.959 220.887,16.109 220.887 C 16.259 220.887,16.382 221.133,16.382 221.433 C 16.382 221.734,16.505 221.980,16.655 221.980 C 16.805 221.980,16.928 222.164,16.928 222.389 C 16.928 222.614,17.051 222.799,17.201 222.799 C 17.352 222.799,17.474 222.973,17.474 223.186 C 17.474 223.673,18.360 225.252,18.635 225.254 C 18.747 225.255,18.840 225.425,18.840 225.632 C 18.840 225.839,19.038 226.173,19.280 226.373 C 19.522 226.574,19.798 226.940,19.894 227.186 C 20.354 228.366,27.731 236.177,28.385 236.177 C 28.528 236.177,28.951 236.485,29.327 236.860 C 29.702 237.235,30.138 237.543,30.295 237.543 C 30.452 237.543,30.580 237.646,30.580 237.773 C 30.580 237.899,31.010 238.234,31.536 238.517 C 32.061 238.800,32.491 239.127,32.491 239.243 C 32.491 239.359,32.727 239.454,33.015 239.454 C 33.303 239.454,33.579 239.551,33.629 239.669 C 33.776 240.016,35.302 241.003,36.041 241.230 C 36.416 241.345,36.785 241.527,36.860 241.635 C 37.039 241.891,41.129 243.823,41.494 243.823 C 41.648 243.823,41.775 243.945,41.775 244.096 C 41.775 244.246,42.009 244.369,42.295 244.369 C 42.581 244.369,43.288 244.596,43.865 244.874 C 45.143 245.490,47.557 246.280,48.160 246.280 C 48.402 246.280,48.601 246.403,48.601 246.553 C 48.601 246.703,48.969 246.826,49.420 246.826 C 49.870 246.826,50.239 246.949,50.239 247.099 C 50.239 247.249,50.600 247.372,51.042 247.372 C 51.484 247.372,51.917 247.489,52.006 247.632 C 52.094 247.776,52.903 247.976,53.803 248.078 C 54.703 248.180,55.505 248.370,55.585 248.500 C 56.188 249.476,56.752 248.669,56.838 246.705 L 56.928 244.673 52.130 244.589 C 48.076 244.518,47.261 244.434,46.874 244.047 C 46.288 243.460,46.285 241.963,46.868 241.318 C 47.290 240.853,47.288 240.819,46.846 240.819 C 46.246 240.819,46.424 240.224,47.131 239.863 C 48.129 239.355,50.648 237.690,50.739 237.479 C 50.790 237.364,50.939 237.270,51.071 237.270 C 51.204 237.270,52.330 236.616,53.574 235.816 C 54.818 235.017,56.425 234.071,57.145 233.714 C 57.864 233.358,58.601 232.886,58.783 232.666 C 58.964 232.445,58.592 232.593,57.955 232.994 L 56.798 233.723 56.726 221.913 L 56.655 210.102 34.608 210.033 C 12.826 209.963,12.560 209.969,12.560 210.501 M351.130 210.444 C 351.139 211.459,351.622 211.773,351.930 210.963 C 352.308 209.968,352.308 209.966,351.672 209.966 C 351.333 209.966,351.128 210.147,351.130 210.444 M114.949 224.983 C 114.949 228.299,115.007 228.805,115.384 228.805 C 115.623 228.805,115.883 229.051,115.962 229.352 C 116.101 229.883,116.334 229.898,124.947 229.898 L 133.788 229.898 133.788 225.529 L 133.788 221.160 124.369 221.160 L 114.949 221.160 114.949 224.983 M236.297 221.516 C 236.222 221.712,236.195 223.463,236.237 225.407 L 236.314 228.942 244.027 229.014 L 251.741 229.087 251.741 225.124 L 251.741 221.160 244.087 221.160 C 238.050 221.160,236.405 221.236,236.297 221.516 M72.901 244.638 L 59.659 244.778 59.659 246.962 C 59.659 249.444,59.874 249.829,61.261 249.829 C 61.789 249.829,62.289 249.940,62.373 250.076 C 62.457 250.212,63.815 250.411,65.392 250.518 C 66.969 250.626,68.259 250.822,68.259 250.954 C 68.259 251.086,69.058 251.195,70.034 251.195 C 71.035 251.195,71.809 251.314,71.809 251.468 C 71.809 251.627,72.719 251.741,73.993 251.741 C 75.195 251.741,76.177 251.856,76.177 251.996 C 76.177 253.128,110.922 253.359,129.829 252.353 L 133.652 252.150 133.728 248.259 L 133.803 244.369 109.973 244.433 C 96.867 244.468,80.184 244.561,72.901 244.638 " stroke="none" fill="#9b8ba3" fill-rule="evenodd"></path><path id="path2" d="M253.780 52.628 C 253.668 52.891,253.501 60.846,253.409 70.307 L 253.242 87.509 228.259 87.674 C 214.519 87.765,193.662 87.857,181.911 87.879 L 160.546 87.918 160.546 79.317 L 160.546 70.717 159.044 70.717 L 157.543 70.717 157.543 79.317 L 157.543 87.918 108.669 87.918 L 59.795 87.918 59.795 82.889 C 59.795 77.595,59.719 76.997,59.047 76.997 C 58.621 76.997,57.611 77.986,57.611 78.404 C 57.611 78.531,57.396 78.635,57.133 78.635 C 56.693 78.635,56.663 79.001,56.751 83.276 L 56.847 87.918 51.146 87.918 C 45.887 87.918,45.416 87.958,45.076 88.429 C 44.857 88.734,44.501 88.887,44.197 88.807 C 43.916 88.734,43.686 88.792,43.686 88.937 C 43.686 89.303,42.815 90.260,42.321 90.437 C 41.003 90.909,43.946 91.195,50.121 91.195 L 56.793 91.195 56.724 149.010 L 56.655 206.826 34.403 206.894 C 13.115 206.958,10.938 207.013,11.660 207.459 C 11.832 207.565,12.013 208.142,12.062 208.741 L 12.150 209.829 34.403 209.966 L 56.655 210.102 56.792 221.878 L 56.928 233.654 58.362 232.734 L 59.795 231.814 59.795 220.890 L 59.795 209.966 66.485 209.966 L 73.174 209.966 73.174 208.464 L 73.174 206.962 66.485 206.962 L 59.795 206.962 59.795 149.078 L 59.795 91.195 108.669 91.195 L 157.543 91.195 157.543 124.778 L 157.543 158.362 159.044 158.362 L 160.546 158.362 160.546 124.778 L 160.546 91.195 184.557 91.195 C 200.270 91.195,208.627 91.100,208.737 90.922 C 208.847 90.743,216.613 90.648,231.142 90.648 L 253.379 90.648 253.379 124.505 L 253.379 158.362 254.881 158.362 L 256.382 158.362 256.382 124.505 L 256.382 90.648 302.253 90.648 L 348.123 90.648 348.123 148.804 L 348.123 206.960 319.113 207.029 L 290.102 207.099 290.102 208.464 L 290.102 209.829 319.113 209.899 L 348.123 209.968 348.127 213.858 C 348.131 217.204,348.359 218.899,348.743 218.422 C 349.126 217.945,349.761 216.179,349.761 215.590 C 349.761 215.200,349.884 214.881,350.034 214.881 C 350.184 214.881,350.307 214.696,350.307 214.471 C 350.307 214.246,350.430 214.061,350.580 214.061 C 350.730 214.061,350.853 213.693,350.853 213.242 C 350.853 212.792,350.990 212.423,351.157 212.423 C 351.363 212.423,351.402 212.025,351.277 211.195 C 351.109 210.076,351.143 209.966,351.656 209.966 C 351.983 209.966,352.218 209.788,352.218 209.540 C 352.218 209.306,352.341 209.190,352.491 209.283 C 352.654 209.384,352.765 209.059,352.765 208.480 C 352.765 207.946,352.887 207.509,353.038 207.509 C 353.188 207.509,353.311 207.386,353.311 207.235 C 353.311 207.085,352.819 206.962,352.218 206.962 L 351.126 206.962 351.126 148.805 L 351.126 90.648 365.461 90.648 L 379.795 90.648 379.791 88.805 C 379.789 87.779,379.690 87.115,379.569 87.306 C 379.397 87.577,376.361 87.635,365.307 87.579 L 351.263 87.509 351.192 70.732 C 351.118 52.928,351.165 53.529,349.829 53.520 C 349.491 53.517,349.215 53.392,349.215 53.242 C 349.215 53.092,348.970 52.969,348.671 52.969 C 348.134 52.969,348.126 53.196,348.057 70.239 L 347.986 87.509 302.148 87.578 L 256.310 87.647 256.433 69.898 L 256.557 52.150 255.270 52.150 C 254.304 52.150,253.933 52.269,253.780 52.628 M165.524 149.429 C 164.457 151.644,164.307 155.606,165.188 158.362 C 165.488 159.302,165.734 160.244,165.734 160.454 C 165.734 161.596,168.935 166.280,169.716 166.280 C 169.944 166.280,170.102 166.006,170.102 165.613 C 170.102 165.247,170.225 164.871,170.375 164.778 C 170.526 164.685,170.648 163.702,170.648 162.594 C 170.648 161.485,170.526 160.502,170.375 160.410 C 170.225 160.317,170.102 160.006,170.102 159.719 C 170.102 159.432,169.857 158.760,169.556 158.225 C 169.256 157.691,169.010 157.147,169.010 157.018 C 169.010 156.888,168.445 155.777,167.754 154.548 C 166.781 152.819,166.464 151.947,166.350 150.689 C 166.186 148.876,165.958 148.529,165.524 149.429 M56.986 244.811 C 56.550 245.248,56.777 248.529,57.270 248.903 C 58.932 250.165,59.886 249.201,59.742 246.405 L 59.659 244.778 58.420 244.697 C 57.739 244.653,57.093 244.704,56.986 244.811 " stroke="none" fill="#e2aeb8" fill-rule="evenodd"></path><path id="path3" d="M179.317 128.255 C 179.956 128.312,181.000 128.312,181.638 128.255 C 182.276 128.197,181.754 128.150,180.478 128.150 C 179.201 128.150,178.679 128.197,179.317 128.255 M169.829 135.017 C 169.166 135.693,168.685 136.246,168.760 136.246 C 168.835 136.246,169.439 135.693,170.102 135.017 C 170.766 134.341,171.247 133.788,171.172 133.788 C 171.097 133.788,170.493 134.341,169.829 135.017 M253.038 162.388 L 284.505 162.460 284.505 189.078 L 284.505 215.697 254.949 215.769 L 225.392 215.840 255.017 215.838 L 284.642 215.836 284.642 189.078 L 284.642 162.321 253.106 162.319 L 221.570 162.317 253.038 162.388 M83.619 171.726 C 81.051 172.357,81.092 172.071,81.092 189.530 C 81.092 206.540,81.082 206.454,83.088 207.180 C 84.591 207.723,109.411 207.641,110.517 207.090 C 112.543 206.079,112.491 206.535,112.491 189.642 C 112.491 173.163,112.493 173.178,110.935 172.122 C 110.112 171.565,85.715 171.211,83.619 171.726 M95.290 173.798 C 95.290 173.878,95.111 174.218,94.892 174.552 C 94.669 174.893,94.458 175.980,94.414 177.024 L 94.334 178.889 95.509 178.951 C 96.318 178.994,96.755 178.886,96.912 178.605 C 97.178 178.131,96.964 174.994,96.643 174.642 C 96.345 174.317,96.632 173.652,97.071 173.652 C 97.871 173.652,98.413 176.014,98.042 177.879 C 97.737 179.411,97.751 179.684,98.163 180.313 C 98.494 180.817,98.576 181.297,98.448 181.978 C 98.281 182.871,98.316 182.935,98.972 182.935 C 99.702 182.935,100.231 183.673,99.726 183.987 C 99.238 184.291,99.242 185.504,99.734 186.207 C 99.993 186.577,100.205 187.032,100.205 187.220 C 100.205 187.407,100.426 187.963,100.696 188.456 C 100.967 188.948,101.418 190.125,101.699 191.071 C 101.980 192.017,102.312 192.853,102.436 192.930 C 102.889 193.210,102.690 196.377,102.184 196.935 C 101.898 197.252,101.701 197.916,101.693 198.595 C 101.665 200.958,100.507 202.153,99.933 200.413 C 99.387 198.759,99.093 198.621,96.333 198.731 C 94.797 198.792,93.775 198.714,93.539 198.518 C 93.094 198.149,91.741 199.576,91.741 200.414 C 91.741 201.093,91.265 201.354,90.773 200.946 C 90.502 200.721,90.375 200.070,90.375 198.908 C 90.375 197.237,90.356 197.191,89.488 196.838 C 87.003 195.825,87.680 192.495,91.668 186.124 C 92.139 185.373,92.135 185.342,91.536 184.852 C 90.717 184.182,90.735 183.481,91.571 183.481 C 92.412 183.481,93.048 182.768,92.603 182.323 C 92.134 181.854,92.229 180.976,92.833 180.205 C 93.248 179.674,93.368 179.086,93.373 177.556 C 93.379 175.669,93.736 174.288,94.329 173.861 C 94.654 173.627,95.290 173.585,95.290 173.798 M248.805 175.478 C 249.068 175.547,249.498 175.547,249.761 175.478 C 250.024 175.410,249.809 175.353,249.283 175.353 C 248.758 175.353,248.543 175.410,248.805 175.478 M246.348 175.751 C 246.611 175.820,246.826 175.974,246.826 176.093 C 246.826 176.436,248.947 177.749,249.482 177.737 C 249.819 177.729,249.718 177.587,249.147 177.270 C 248.696 177.019,248.235 176.840,248.123 176.871 C 248.010 176.903,247.918 176.788,247.918 176.617 C 247.918 176.164,247.049 175.577,246.416 175.603 C 245.960 175.623,245.948 175.647,246.348 175.751 M252.212 175.760 C 252.697 175.821,253.557 175.822,254.124 175.762 C 254.690 175.703,254.294 175.654,253.242 175.653 C 252.191 175.652,251.728 175.700,252.212 175.760 M255.563 175.840 C 255.788 175.983,256.331 176.103,256.769 176.105 C 257.825 176.111,257.595 175.953,256.246 175.746 C 255.502 175.632,255.284 175.662,255.563 175.840 M260.255 176.363 C 260.320 176.577,259.967 177.171,259.470 177.683 C 258.447 178.737,258.145 179.852,259.122 178.967 C 259.428 178.691,259.614 178.297,259.535 178.092 C 259.456 177.887,259.500 177.786,259.632 177.867 C 260.063 178.134,260.851 176.643,260.469 176.285 C 260.216 176.048,260.165 176.066,260.255 176.363 M244.517 176.860 C 244.225 177.620,244.383 178.204,244.702 177.543 C 244.865 177.205,245.102 176.928,245.229 176.928 C 245.357 176.928,245.461 176.826,245.461 176.701 C 245.461 176.317,244.674 176.449,244.517 176.860 M118.956 178.200 C 118.197 178.959,119.528 179.113,126.859 179.113 C 134.102 179.113,134.707 179.048,134.007 178.348 C 133.653 177.994,119.303 177.853,118.956 178.200 M160.208 178.214 C 160.548 178.279,161.039 178.276,161.300 178.208 C 161.561 178.140,161.283 178.086,160.683 178.089 C 160.082 178.092,159.868 178.148,160.208 178.214 M249.696 178.298 C 249.790 178.451,249.969 178.513,250.093 178.436 C 250.217 178.359,250.395 178.498,250.490 178.744 C 250.584 178.990,250.737 179.115,250.830 179.022 C 251.073 178.779,250.381 178.020,249.916 178.020 C 249.701 178.020,249.601 178.145,249.696 178.298 M244.282 178.498 C 244.217 178.611,244.263 178.949,244.384 179.249 C 244.504 179.549,244.612 179.652,244.622 179.476 C 244.633 179.301,244.716 178.963,244.807 178.725 C 244.971 178.299,244.512 178.101,244.282 178.498 M251.199 179.011 C 251.192 179.471,251.932 180.011,252.130 179.691 C 252.221 179.544,252.171 179.346,252.018 179.252 C 251.865 179.158,251.739 179.180,251.736 179.301 C 251.734 179.423,251.613 179.338,251.468 179.113 C 251.322 178.887,251.201 178.842,251.199 179.011 M257.908 179.590 C 257.800 179.928,257.596 180.205,257.456 180.205 C 257.316 180.205,257.201 180.389,257.201 180.614 C 257.201 180.840,257.303 181.024,257.428 181.024 C 257.772 181.024,258.374 179.764,258.231 179.344 C 258.151 179.108,258.035 179.196,257.908 179.590 M252.443 179.900 C 252.352 180.047,252.403 180.244,252.555 180.339 C 252.708 180.433,252.835 180.411,252.837 180.289 C 252.839 180.168,252.960 180.253,253.106 180.478 C 253.251 180.703,253.372 180.749,253.375 180.580 C 253.381 180.119,252.641 179.579,252.443 179.900 M243.747 181.036 C 243.838 181.387,243.712 181.727,243.406 181.951 C 243.139 182.146,242.994 182.426,243.084 182.572 C 243.175 182.718,243.089 183.144,242.895 183.519 C 242.259 184.744,242.120 185.673,242.599 185.489 C 242.844 185.395,242.959 185.136,242.874 184.868 C 242.793 184.615,242.909 184.169,243.130 183.876 C 243.351 183.584,243.536 183.076,243.541 182.746 C 243.546 182.417,243.672 182.072,243.823 181.980 C 244.163 181.769,244.185 180.478,243.848 180.478 C 243.712 180.478,243.666 180.729,243.747 181.036 M253.652 180.890 C 253.652 181.349,254.257 181.687,254.772 181.515 C 254.948 181.456,254.768 181.196,254.372 180.937 C 253.741 180.524,253.652 180.518,253.652 180.890 M94.198 181.160 C 94.198 181.386,94.321 181.570,94.471 181.570 C 94.621 181.570,94.744 181.386,94.744 181.160 C 94.744 180.935,94.621 180.751,94.471 180.751 C 94.321 180.751,94.198 180.935,94.198 181.160 M254.989 182.093 C 255.198 182.225,255.294 182.531,255.202 182.771 C 255.096 183.048,255.179 183.208,255.430 183.208 C 255.823 183.208,256.002 183.686,256.198 185.256 C 256.271 185.837,256.314 185.718,256.346 184.846 C 256.399 183.379,256.840 182.478,257.079 183.345 C 257.214 183.833,258.862 185.153,259.273 185.103 C 259.362 185.092,259.605 185.306,259.811 185.579 C 260.018 185.852,260.200 185.952,260.215 185.802 C 260.231 185.652,260.356 185.775,260.495 186.075 C 260.709 186.540,260.736 186.548,260.680 186.125 C 260.644 185.852,260.258 185.422,259.823 185.169 C 258.732 184.536,256.655 182.570,256.655 182.171 C 256.655 181.973,256.249 181.845,255.631 181.847 C 254.932 181.850,254.728 181.928,254.989 182.093 M240.650 182.457 C 239.710 184.052,239.649 184.188,240.128 183.618 C 240.682 182.957,241.160 182.116,240.981 182.116 C 240.910 182.116,240.761 182.270,240.650 182.457 M256.478 182.517 C 256.653 182.973,256.246 183.325,255.836 183.072 C 255.428 182.819,255.507 182.116,255.943 182.116 C 256.153 182.116,256.393 182.296,256.478 182.517 M254.022 183.314 C 253.700 183.493,253.270 183.776,253.067 183.944 C 252.863 184.111,252.389 184.292,252.014 184.345 C 251.515 184.416,251.446 184.489,251.756 184.615 C 252.291 184.834,254.354 183.907,254.567 183.351 C 254.655 183.122,254.700 182.947,254.667 182.962 C 254.634 182.977,254.344 183.135,254.022 183.314 M250.470 184.993 C 250.193 185.203,249.747 185.379,249.479 185.384 C 249.212 185.389,248.922 185.579,248.834 185.807 C 248.747 186.035,248.535 186.205,248.365 186.184 C 247.659 186.099,247.350 186.229,247.537 186.531 C 247.668 186.743,247.588 186.794,247.300 186.684 C 247.061 186.592,246.719 186.694,246.539 186.910 C 246.101 187.439,246.357 187.406,247.797 186.751 C 248.464 186.447,249.010 186.071,249.010 185.916 C 249.010 185.760,249.141 185.714,249.300 185.813 C 249.460 185.911,249.821 185.784,250.102 185.529 C 250.384 185.274,250.720 185.131,250.849 185.211 C 250.978 185.291,251.242 185.259,251.435 185.139 C 251.712 184.968,251.700 184.889,251.380 184.767 C 251.157 184.681,250.748 184.783,250.470 184.993 M115.613 185.150 C 115.192 185.831,116.642 185.930,127.031 185.934 C 137.703 185.938,137.884 185.929,137.884 185.392 C 137.884 184.746,116.009 184.508,115.613 185.150 M255.563 185.877 C 255.563 186.494,255.674 187.067,255.810 187.151 C 255.951 187.238,255.994 186.805,255.909 186.143 C 255.713 184.606,255.563 184.491,255.563 185.877 M261.043 186.246 C 261.019 186.805,261.729 187.437,261.960 187.063 C 262.051 186.916,262.000 186.718,261.847 186.624 C 261.695 186.530,261.561 186.552,261.551 186.673 C 261.540 186.795,261.426 186.648,261.297 186.348 C 261.116 185.928,261.058 185.905,261.043 186.246 M242.019 186.925 C 241.853 186.994,241.771 187.383,241.836 187.791 C 241.933 188.398,241.896 188.458,241.634 188.123 C 241.361 187.774,241.337 187.787,241.474 188.209 C 241.698 188.901,240.662 188.571,239.659 187.632 C 239.246 187.245,238.898 186.982,238.887 187.048 C 238.875 187.114,238.823 187.396,238.770 187.675 C 238.718 187.954,238.791 188.445,238.934 188.767 C 239.162 189.281,239.176 189.263,239.050 188.617 C 238.969 188.204,239.044 187.798,239.222 187.688 C 239.418 187.567,239.464 187.612,239.343 187.808 C 239.236 187.981,239.285 188.123,239.451 188.123 C 239.858 188.123,241.092 189.478,241.092 189.925 C 241.092 190.165,241.370 190.246,241.941 190.174 C 242.776 190.068,243.397 189.761,242.776 189.761 C 241.739 189.761,243.376 188.334,244.505 188.254 C 244.655 188.243,244.742 188.071,244.698 187.871 C 244.645 187.630,244.801 187.555,245.158 187.648 C 245.476 187.731,245.759 187.633,245.844 187.410 C 246.075 186.809,242.882 188.085,242.404 188.785 C 242.054 189.297,241.939 188.800,242.171 187.774 C 242.297 187.215,242.382 186.767,242.360 186.779 C 242.339 186.791,242.185 186.857,242.019 186.925 M262.272 187.272 C 262.182 187.419,262.232 187.616,262.385 187.711 C 262.537 187.805,262.664 187.783,262.666 187.661 C 262.669 187.540,262.790 187.625,262.935 187.850 C 263.081 188.075,263.202 188.121,263.204 187.952 C 263.210 187.491,262.470 186.951,262.272 187.272 M255.290 188.412 C 255.290 188.721,255.413 188.898,255.563 188.805 C 255.713 188.713,255.836 188.460,255.836 188.243 C 255.836 188.027,255.713 187.850,255.563 187.850 C 255.413 187.850,255.290 188.103,255.290 188.412 M263.522 188.258 C 263.575 188.524,264.014 188.954,264.498 189.213 C 264.982 189.472,265.340 189.733,265.294 189.791 C 265.248 189.850,265.436 190.113,265.711 190.375 C 266.385 191.019,266.347 190.553,265.654 189.672 C 264.774 188.554,263.401 187.643,263.522 188.258 M241.926 189.352 C 241.904 189.757,241.293 189.682,241.152 189.257 C 241.075 189.028,241.200 188.925,241.485 188.984 C 241.735 189.036,241.934 189.201,241.926 189.352 M115.969 189.378 C 115.120 190.227,116.077 190.307,126.992 190.307 C 137.702 190.307,137.884 190.298,137.884 189.761 C 137.884 189.222,116.499 188.848,115.969 189.378 M255.461 190.709 C 255.596 191.854,255.533 192.361,255.190 192.883 C 254.725 193.594,254.609 194.449,254.934 194.775 C 255.237 195.077,255.811 192.503,255.824 190.785 C 255.831 189.903,255.715 189.215,255.561 189.215 C 255.388 189.215,255.351 189.770,255.461 190.709 M243.549 191.126 C 244.075 191.576,244.751 191.932,245.051 191.918 C 245.503 191.896,245.480 191.853,244.915 191.672 C 244.539 191.552,244.341 191.442,244.474 191.427 C 244.840 191.385,243.381 190.307,242.960 190.308 C 242.759 190.308,243.024 190.676,243.549 191.126 M264.225 191.894 C 263.816 192.142,263.483 192.531,263.485 192.759 C 263.489 193.091,263.536 193.101,263.721 192.809 C 263.848 192.609,264.061 192.443,264.194 192.441 C 264.328 192.439,264.406 192.326,264.369 192.191 C 264.331 192.056,264.438 191.945,264.605 191.945 C 264.776 191.945,264.847 192.186,264.767 192.492 C 264.689 192.792,264.721 192.979,264.839 192.906 C 265.140 192.719,265.380 191.697,265.155 191.558 C 265.052 191.494,264.634 191.646,264.225 191.894 M241.881 192.218 C 241.822 192.594,241.848 193.577,241.938 194.403 C 242.027 195.229,242.003 195.969,241.884 196.048 C 241.765 196.127,241.782 196.373,241.921 196.594 C 242.215 197.058,242.196 197.160,242.286 194.539 C 242.317 193.638,242.263 192.594,242.165 192.218 L 241.987 191.536 241.881 192.218 M245.335 192.510 C 245.434 192.670,245.570 192.746,245.637 192.679 C 245.704 192.612,246.273 193.037,246.900 193.622 C 247.528 194.208,248.197 194.627,248.386 194.554 C 248.576 194.482,248.701 194.529,248.666 194.658 C 248.630 194.788,248.719 194.897,248.863 194.901 C 249.007 194.905,249.214 195.133,249.322 195.406 C 249.479 195.805,249.522 195.818,249.537 195.469 C 249.558 194.993,248.827 194.226,248.217 194.083 C 248.006 194.034,247.412 193.594,246.897 193.106 C 246.021 192.276,244.935 191.862,245.335 192.510 M115.590 193.183 C 115.340 193.836,114.983 193.809,126.787 194.018 L 137.933 194.215 137.840 193.558 L 137.747 192.901 126.750 192.830 C 117.013 192.766,115.735 192.807,115.590 193.183 M262.834 193.180 C 262.742 193.421,262.551 193.547,262.410 193.460 C 262.269 193.373,262.077 193.427,261.982 193.579 C 261.888 193.732,261.987 193.857,262.203 193.857 C 262.639 193.857,263.366 193.105,263.144 192.883 C 263.066 192.805,262.927 192.938,262.834 193.180 M260.031 195.084 C 259.945 195.308,259.777 195.432,259.659 195.358 C 259.540 195.285,259.366 195.426,259.271 195.672 C 259.177 195.918,259.026 196.045,258.936 195.955 C 258.780 195.799,257.389 196.731,256.263 197.747 C 255.809 198.157,255.797 198.225,256.181 198.225 C 256.427 198.225,256.748 198.010,256.896 197.747 C 257.043 197.485,257.202 197.322,257.250 197.385 C 257.421 197.611,260.195 195.625,260.200 195.274 C 260.203 195.077,260.319 194.987,260.459 195.074 C 260.599 195.160,260.790 195.106,260.885 194.953 C 260.979 194.801,260.861 194.676,260.622 194.676 C 260.383 194.676,260.117 194.859,260.031 195.084 M262.661 195.563 C 262.259 196.112,262.193 196.303,262.488 196.063 C 262.936 195.700,263.613 194.676,263.406 194.676 C 263.354 194.676,263.019 195.075,262.661 195.563 M249.834 195.532 C 249.830 195.918,250.800 196.802,251.195 196.773 C 251.270 196.767,251.823 197.214,252.423 197.766 C 253.379 198.643,253.686 198.768,254.881 198.766 C 255.722 198.764,256.107 198.675,255.884 198.534 C 255.686 198.408,255.041 198.339,254.451 198.381 C 253.651 198.438,253.379 198.355,253.379 198.052 C 253.379 197.829,253.256 197.723,253.106 197.816 C 252.956 197.909,252.833 197.837,252.833 197.657 C 252.833 197.224,251.999 196.607,251.399 196.596 C 251.137 196.591,250.952 196.439,250.990 196.258 C 251.027 196.077,250.900 195.924,250.707 195.917 C 250.514 195.910,250.239 195.720,250.097 195.495 C 249.872 195.139,249.837 195.144,249.834 195.532 M254.985 195.358 C 254.687 195.840,254.750 197.510,255.054 197.205 C 255.206 197.054,255.290 196.515,255.242 196.007 C 255.193 195.500,255.078 195.208,254.985 195.358 M167.708 196.314 C 167.708 196.840,167.765 197.055,167.833 196.792 C 167.902 196.529,167.902 196.099,167.833 195.836 C 167.765 195.573,167.708 195.788,167.708 196.314 M242.457 196.565 C 242.457 196.703,242.379 197.040,242.284 197.316 C 242.132 197.755,242.164 197.750,242.548 197.270 C 243.056 196.637,243.117 196.314,242.730 196.314 C 242.580 196.314,242.457 196.427,242.457 196.565 M115.904 197.406 C 115.442 198.154,116.407 198.225,126.979 198.225 C 137.702 198.225,137.884 198.216,137.884 197.679 C 137.884 197.061,116.284 196.792,115.904 197.406 M259.866 199.348 C 259.455 199.932,259.172 200.410,259.238 200.410 C 259.433 200.410,260.837 198.493,260.721 198.385 C 260.662 198.330,260.278 198.763,259.866 199.348 M167.996 199.727 C 167.998 200.478,168.051 200.753,168.114 200.338 C 168.177 199.923,168.175 199.308,168.110 198.972 C 168.045 198.637,167.994 198.976,167.996 199.727 M251.013 199.453 C 250.738 199.654,250.602 199.908,250.711 200.017 C 250.819 200.125,251.101 200.054,251.337 199.859 C 251.573 199.663,252.305 199.523,252.965 199.548 C 253.624 199.573,254.225 199.495,254.299 199.375 C 254.535 198.994,251.544 199.065,251.013 199.453 M255.013 199.326 C 254.670 199.543,254.681 199.583,255.085 199.586 C 255.348 199.589,255.563 199.734,255.563 199.909 C 255.563 200.084,255.636 200.155,255.725 200.066 C 256.065 199.726,255.428 199.063,255.013 199.326 M256.113 199.940 C 256.109 200.469,256.702 200.812,257.261 200.604 C 257.492 200.517,257.426 200.400,257.065 200.256 C 256.765 200.137,256.429 199.908,256.318 199.747 C 256.198 199.571,256.116 199.649,256.113 199.940 M245.324 200.409 L 244.505 200.576 245.461 200.805 C 245.986 200.931,248.874 201.053,251.877 201.077 L 257.338 201.121 251.877 200.961 C 248.874 200.873,246.870 200.775,247.424 200.742 C 247.978 200.709,248.509 200.557,248.604 200.404 C 248.788 200.106,246.796 200.110,245.324 200.409 M115.768 201.092 C 115.768 201.440,116.474 201.502,120.478 201.502 C 123.068 201.503,128.044 201.584,131.536 201.682 L 137.884 201.862 137.884 201.272 L 137.884 200.683 126.826 200.683 C 117.179 200.683,115.768 200.735,115.768 201.092 M203.266 205.119 L 201.911 206.553 203.345 205.198 C 204.677 203.939,204.903 203.686,204.700 203.686 C 204.656 203.686,204.011 204.331,203.266 205.119 M165.529 214.796 C 165.792 214.864,166.222 214.864,166.485 214.796 C 166.747 214.727,166.532 214.671,166.007 214.671 C 165.481 214.671,165.266 214.727,165.529 214.796 M133.893 219.916 C 133.810 220.132,133.800 220.532,133.870 220.803 C 133.955 221.129,134.009 221.045,134.030 220.554 L 134.061 219.810 137.952 219.726 L 141.843 219.642 137.944 219.582 C 134.760 219.533,134.017 219.594,133.893 219.916 M230.425 219.724 C 235.879 219.802,236.147 219.831,236.264 220.351 C 236.364 220.795,236.380 220.781,236.350 220.277 L 236.314 219.659 230.512 219.650 L 224.710 219.642 230.425 219.724 M146.553 220.807 C 146.891 220.872,147.444 220.872,147.782 220.807 C 148.119 220.742,147.843 220.689,147.167 220.689 C 146.491 220.689,146.215 220.742,146.553 220.807 M97.856 224.983 C 97.856 227.160,97.898 228.051,97.950 226.962 C 98.002 225.874,98.002 224.092,97.950 223.003 C 97.898 221.915,97.856 222.805,97.856 224.983 M114.784 224.983 C 114.784 227.160,114.827 228.051,114.879 226.962 C 114.930 225.874,114.930 224.092,114.879 223.003 C 114.827 221.915,114.784 222.805,114.784 224.983 M160.751 222.726 C 161.389 222.783,162.433 222.783,163.072 222.726 C 163.710 222.668,163.188 222.621,161.911 222.621 C 160.635 222.621,160.113 222.668,160.751 222.726 M208.809 222.719 C 209.148 222.784,209.640 222.782,209.901 222.713 C 210.162 222.645,209.884 222.591,209.283 222.594 C 208.683 222.597,208.469 222.653,208.809 222.719 M172.359 222.995 C 172.774 223.057,173.388 223.056,173.724 222.991 C 174.060 222.926,173.720 222.875,172.969 222.877 C 172.218 222.879,171.944 222.932,172.359 222.995 M180.961 223.270 C 181.451 223.330,182.188 223.329,182.599 223.267 C 183.009 223.204,182.608 223.155,181.706 223.156 C 180.805 223.158,180.470 223.209,180.961 223.270 M202.116 223.271 C 202.679 223.329,203.601 223.329,204.164 223.271 C 204.727 223.212,204.266 223.163,203.140 223.163 C 202.014 223.163,201.553 223.212,202.116 223.271 M273.857 229.276 C 287.579 229.466,298.367 229.469,298.251 229.283 C 298.182 229.171,291.466 229.106,283.329 229.141 C 275.191 229.175,270.928 229.236,273.857 229.276 M244.300 229.555 C 245.689 229.605,247.962 229.605,249.352 229.555 C 250.741 229.505,249.604 229.465,246.826 229.465 C 244.048 229.465,242.911 229.505,244.300 229.555 M75.495 230.444 L 62.389 230.588 78.960 230.652 C 89.783 230.694,95.589 230.622,95.700 230.444 C 95.810 230.266,94.603 230.193,92.235 230.235 C 90.236 230.270,82.703 230.364,75.495 230.444 M301.396 231.552 C 301.901 231.859,302.373 232.052,302.445 231.980 C 302.583 231.843,301.074 230.989,300.696 230.991 C 300.576 230.991,300.891 231.244,301.396 231.552 M303.317 232.731 C 303.519 232.975,303.844 233.174,304.038 233.174 C 304.232 233.174,304.437 233.311,304.493 233.478 C 304.549 233.646,304.791 233.738,305.032 233.683 C 305.310 233.620,305.009 233.347,304.210 232.936 C 303.316 232.477,303.056 232.417,303.317 232.731 M54.608 235.495 C 54.421 235.720,54.106 235.904,53.908 235.904 C 53.710 235.904,53.479 236.016,53.395 236.152 C 53.117 236.601,54.289 236.134,54.769 235.604 C 55.027 235.319,55.173 235.085,55.093 235.085 C 55.013 235.085,54.794 235.270,54.608 235.495 M308.072 235.574 C 308.492 236.039,309.625 236.580,309.625 236.315 C 309.625 236.269,309.164 235.960,308.601 235.628 C 307.648 235.067,307.611 235.063,308.072 235.574 M50.876 237.781 C 49.439 238.686,49.216 238.910,49.939 238.721 C 50.254 238.639,50.512 238.463,50.512 238.330 C 50.512 238.197,50.666 238.085,50.853 238.080 C 51.254 238.070,52.301 237.324,52.130 237.170 C 52.066 237.112,51.502 237.387,50.876 237.781 M311.811 237.757 C 311.813 237.999,313.479 238.967,313.632 238.814 C 313.693 238.753,313.308 238.446,312.776 238.132 C 312.244 237.818,311.810 237.649,311.811 237.757 M46.848 241.614 C 46.551 241.942,46.419 242.424,46.492 242.911 L 46.608 243.686 46.649 242.888 C 46.671 242.450,46.893 241.866,47.141 241.591 C 47.390 241.317,47.532 241.092,47.457 241.092 C 47.382 241.092,47.108 241.327,46.848 241.614 M48.020 244.444 C 48.137 244.561,50.189 244.622,52.581 244.580 L 56.928 244.504 52.368 244.368 C 49.860 244.293,47.903 244.327,48.020 244.444 M65.988 244.573 C 69.619 244.616,75.640 244.616,79.367 244.573 C 83.094 244.530,80.123 244.495,72.765 244.495 C 65.406 244.495,62.357 244.530,65.988 244.573 " stroke="none" fill="#5f5964" fill-rule="evenodd"></path><path id="path4" d="M177.571 127.958 C 177.099 128.028,176.485 128.343,176.206 128.658 L 175.700 129.231 176.507 128.711 C 177.365 128.158,182.869 127.954,184.710 128.407 C 185.340 128.562,185.420 128.542,185.058 128.322 C 184.555 128.016,179.004 127.746,177.571 127.958 M185.688 128.701 C 185.751 128.756,186.294 128.884,186.894 128.984 C 187.677 129.115,187.870 129.088,187.577 128.888 C 187.208 128.637,185.414 128.459,185.688 128.701 M172.627 131.864 C 169.773 134.698,165.531 139.533,165.920 139.508 C 166.043 139.500,166.819 138.637,167.645 137.589 C 168.471 136.542,170.591 134.255,172.356 132.508 C 174.122 130.761,175.523 129.288,175.469 129.235 C 175.416 129.181,174.137 130.364,172.627 131.864 M188.805 129.420 C 189.106 129.549,189.597 129.654,189.898 129.654 L 190.444 129.654 189.898 129.420 C 189.597 129.291,189.106 129.185,188.805 129.185 L 188.259 129.185 188.805 129.420 M191.263 129.955 C 191.833 130.191,193.507 130.661,194.676 130.913 C 195.733 131.142,194.588 130.663,192.801 130.130 C 191.273 129.674,190.319 129.566,191.263 129.955 M197.406 131.877 C 197.631 132.023,198.000 132.142,198.225 132.142 C 198.589 132.142,198.589 132.112,198.225 131.877 C 198.000 131.732,197.631 131.612,197.406 131.612 C 197.042 131.612,197.042 131.642,197.406 131.877 M200.299 133.201 C 201.186 133.779,202.626 135.008,203.501 135.932 C 204.375 136.855,205.170 137.611,205.268 137.611 C 205.366 137.611,204.589 136.745,203.542 135.688 C 201.809 133.937,199.469 132.150,198.910 132.150 C 198.787 132.150,199.412 132.623,200.299 133.201 M205.724 138.635 C 205.963 139.123,206.216 139.522,206.287 139.522 C 206.558 139.522,206.384 139.087,205.848 138.430 L 205.291 137.747 205.724 138.635 M165.255 140.137 C 163.432 142.421,163.433 146.305,165.257 147.893 C 165.641 148.227,165.565 148.036,165.033 147.325 C 163.914 145.829,163.888 143.029,164.974 141.085 C 165.686 139.813,165.787 139.470,165.255 140.137 M207.018 140.869 C 207.358 141.460,207.683 141.896,207.740 141.839 C 207.858 141.721,206.711 139.795,206.522 139.795 C 206.455 139.795,206.678 140.278,207.018 140.869 M208.893 144.899 C 208.954 145.607,209.382 146.209,209.401 145.613 C 209.411 145.284,209.297 144.939,209.147 144.846 C 208.997 144.754,208.882 144.777,208.893 144.899 M209.634 147.162 C 209.701 147.619,209.869 148.063,210.008 148.149 C 210.156 148.240,210.185 147.983,210.078 147.531 C 209.820 146.440,209.487 146.163,209.634 147.162 M210.952 150.853 C 211.176 151.857,211.332 152.075,211.327 151.377 C 211.325 151.089,211.198 150.669,211.046 150.444 C 210.843 150.145,210.818 150.255,210.952 150.853 M211.500 152.910 C 211.764 154.307,212.155 154.872,211.966 153.584 C 211.878 152.983,211.697 152.372,211.563 152.227 C 211.421 152.071,211.395 152.352,211.500 152.910 M212.210 155.358 C 212.207 155.734,212.303 156.348,212.423 156.724 C 212.717 157.641,212.717 156.650,212.423 155.495 C 212.236 154.759,212.214 154.745,212.210 155.358 M73.447 189.624 L 73.447 221.160 103.618 221.160 L 133.788 221.160 133.788 225.529 L 133.788 229.898 124.947 229.898 C 116.334 229.898,116.101 229.883,115.962 229.352 C 115.879 229.036,115.606 228.819,115.316 228.837 C 114.897 228.863,114.888 228.889,115.262 228.988 C 115.509 229.054,115.775 229.349,115.852 229.643 C 115.988 230.163,116.251 230.176,124.958 230.106 L 133.925 230.034 133.934 224.846 L 133.944 219.659 137.729 219.582 L 141.514 219.506 140.926 218.880 C 140.602 218.536,140.187 217.618,140.002 216.841 L 139.666 215.427 109.150 215.427 L 78.635 215.427 78.635 188.669 L 78.635 161.911 109.761 161.911 L 140.887 161.911 140.909 185.324 C 140.921 198.201,140.999 208.553,141.082 208.328 C 141.166 208.102,141.801 207.119,142.494 206.143 L 143.754 204.369 143.754 181.297 L 143.754 158.225 108.601 158.156 L 73.447 158.087 73.447 189.624 M212.696 158.938 C 212.696 159.180,212.618 159.948,212.523 160.644 C 212.376 161.712,212.420 161.911,212.801 161.911 C 213.215 161.911,213.252 162.870,213.236 173.258 L 213.219 184.604 214.416 185.936 C 215.075 186.668,215.815 187.675,216.060 188.173 C 216.479 189.022,216.507 188.135,216.513 173.879 L 216.519 158.680 214.607 158.589 C 212.993 158.512,212.695 158.567,212.696 158.938 M146.621 171.725 C 146.621 180.156,146.718 184.874,146.894 184.983 C 147.044 185.076,147.167 185.044,147.167 184.912 C 147.167 184.780,147.603 184.163,148.136 183.540 L 149.104 182.409 149.085 172.160 L 149.066 161.911 157.400 161.911 L 165.734 161.911 165.734 161.245 C 165.734 160.878,165.611 160.502,165.461 160.410 C 165.311 160.317,165.188 159.879,165.188 159.438 L 165.188 158.635 155.904 158.635 L 146.621 158.635 146.621 171.725 M219.522 177.876 C 219.522 196.610,219.537 197.142,220.068 198.089 C 220.369 198.623,220.614 199.296,220.614 199.583 C 220.614 199.870,220.737 200.180,220.887 200.273 C 221.038 200.366,221.190 200.834,221.226 201.313 C 221.262 201.792,221.354 193.215,221.431 182.253 L 221.570 162.321 253.106 162.321 L 284.642 162.321 284.642 189.078 L 284.642 215.836 255.121 215.906 L 225.600 215.975 225.445 217.134 C 225.360 217.772,225.208 218.567,225.106 218.902 L 224.922 219.511 230.618 219.585 L 236.314 219.659 236.281 220.478 L 236.248 221.297 243.987 221.221 L 251.726 221.144 251.809 225.043 L 251.893 228.942 251.954 225.051 L 252.014 221.160 260.205 221.160 L 268.396 221.160 268.396 225.119 L 268.396 229.078 283.105 229.078 L 297.814 229.078 300.784 230.879 C 302.418 231.870,303.846 232.737,303.959 232.807 C 304.072 232.876,304.164 232.803,304.164 232.644 C 304.164 232.485,304.042 232.355,303.894 232.355 C 303.745 232.355,302.761 231.802,301.706 231.126 C 300.652 230.451,299.668 229.898,299.519 229.898 C 299.371 229.898,299.248 229.805,299.247 229.693 C 299.239 228.898,297.565 228.805,283.222 228.805 L 268.669 228.805 268.669 224.983 L 268.669 221.160 279.317 221.160 L 289.966 221.160 289.966 189.898 L 289.966 158.635 254.744 158.635 L 219.522 158.635 219.522 177.876 M170.738 162.594 C 170.739 163.645,170.789 164.042,170.848 163.475 C 170.907 162.909,170.906 162.049,170.846 161.564 C 170.785 161.079,170.737 161.543,170.738 162.594 M96.317 228.999 C 96.657 229.064,97.148 229.061,97.409 228.993 C 97.670 228.925,97.392 228.871,96.792 228.874 C 96.191 228.877,95.978 228.933,96.317 228.999 M236.177 229.155 C 236.178 229.599,237.062 229.626,244.370 229.402 L 251.877 229.172 244.027 229.057 C 239.710 228.994,236.177 229.038,236.177 229.155 M69.898 230.161 L 62.116 230.307 61.024 231.038 C 60.423 231.440,59.563 232.096,59.113 232.494 L 58.294 233.219 59.210 232.582 C 60.845 231.447,61.558 231.003,62.202 230.721 C 62.595 230.549,67.506 230.430,75.171 230.408 C 81.957 230.388,89.413 230.287,91.741 230.183 C 96.999 229.950,81.924 229.934,69.898 230.161 M305.533 233.636 C 305.535 233.757,306.119 234.189,306.830 234.596 C 309.928 236.366,310.314 236.595,310.444 236.737 C 310.679 236.994,313.174 238.391,313.174 238.265 C 313.174 238.096,309.796 235.927,308.805 235.460 C 308.580 235.353,307.904 234.939,307.304 234.540 C 305.729 233.492,305.529 233.390,305.533 233.636 M53.844 235.635 C 52.448 236.534,51.188 237.270,51.045 237.270 C 50.902 237.270,50.785 237.400,50.785 237.559 C 50.785 237.879,50.954 237.797,52.609 236.677 C 53.237 236.252,53.828 235.904,53.924 235.904 C 54.078 235.904,55.682 234.795,56.369 234.213 C 57.032 233.651,56.172 234.135,53.844 235.635 M48.998 238.703 C 48.244 239.191,47.393 239.722,47.107 239.883 C 46.408 240.275,46.256 240.819,46.846 240.819 C 47.283 240.819,47.279 240.867,46.800 241.433 L 46.280 242.048 46.920 241.505 C 47.458 241.047,47.496 240.921,47.155 240.706 C 46.839 240.507,47.114 240.219,48.427 239.379 C 50.071 238.326,50.746 237.816,50.495 237.816 C 50.425 237.816,49.752 238.215,48.998 238.703 M316.707 240.653 C 317.024 241.217,317.140 241.686,316.986 241.781 C 316.842 241.870,316.725 242.151,316.728 242.405 C 316.730 242.726,316.838 242.659,317.080 242.184 C 317.435 241.487,317.092 240.260,316.427 239.849 C 316.282 239.759,316.408 240.121,316.707 240.653 M312.569 243.205 C 313.362 243.260,314.591 243.260,315.299 243.204 C 316.008 243.148,315.358 243.102,313.857 243.103 C 312.355 243.104,311.775 243.150,312.569 243.205 M307.517 243.751 C 308.235 243.807,309.340 243.806,309.974 243.749 C 310.608 243.692,310.020 243.646,308.669 243.646 C 307.317 243.647,306.799 243.694,307.517 243.751 M109.821 244.300 L 133.773 244.372 133.857 247.988 L 133.942 251.604 134.002 247.850 L 134.061 244.096 109.966 244.162 L 85.870 244.229 109.821 244.300 M57.406 244.564 C 57.819 244.627,58.495 244.627,58.908 244.564 C 59.321 244.502,58.983 244.450,58.157 244.450 C 57.331 244.450,56.993 244.502,57.406 244.564 M315.570 245.934 C 316.213 245.992,317.195 245.991,317.755 245.932 C 318.314 245.874,317.788 245.826,316.587 245.827 C 315.386 245.828,314.928 245.876,315.570 245.934 " stroke="none" fill="#64647c" fill-rule="evenodd"></path><path id="path5" d="M247.099 175.731 C 247.474 176.003,248.020 176.446,248.311 176.714 C 248.602 176.982,248.931 177.201,249.042 177.201 C 249.153 177.201,249.407 177.357,249.605 177.547 C 250.374 178.282,255.615 181.843,255.929 181.843 C 256.249 181.843,257.201 180.906,257.201 180.592 C 257.201 180.508,257.355 180.277,257.543 180.079 C 257.730 179.881,258.130 179.376,258.430 178.956 C 258.730 178.536,259.253 177.859,259.590 177.452 C 260.577 176.264,260.468 176.229,254.676 175.874 C 251.635 175.688,248.532 175.468,247.782 175.385 L 246.416 175.234 247.099 175.731 M245.635 175.753 C 245.539 175.849,245.461 176.152,245.461 176.428 C 245.461 176.703,245.338 176.928,245.188 176.928 C 245.038 176.928,244.915 177.279,244.915 177.707 C 244.915 178.869,244.356 180.301,244.030 179.976 C 243.851 179.797,243.893 179.437,244.154 178.914 C 244.389 178.442,244.465 177.910,244.341 177.594 C 244.161 177.134,244.131 177.127,244.115 177.543 C 244.104 177.805,243.973 178.020,243.823 178.020 C 243.672 178.020,243.549 178.127,243.549 178.256 C 243.549 178.386,242.382 180.259,240.956 182.418 C 237.937 186.986,238.115 186.408,239.394 187.470 C 240.883 188.705,241.491 188.840,241.543 187.947 C 241.566 187.554,241.736 187.139,241.920 187.026 C 242.104 186.912,242.184 186.704,242.097 186.564 C 241.927 186.289,242.476 184.191,242.803 183.863 C 242.913 183.753,243.003 183.322,243.003 182.906 C 243.003 182.489,243.126 182.072,243.276 181.980 C 243.427 181.887,243.549 181.511,243.549 181.144 C 243.549 180.778,243.672 180.478,243.823 180.478 C 243.973 180.478,244.096 180.778,244.096 181.144 C 244.096 181.511,243.973 181.887,243.823 181.980 C 243.672 182.072,243.549 182.441,243.549 182.799 C 243.549 183.156,243.427 183.525,243.276 183.618 C 243.126 183.711,243.003 184.148,243.003 184.589 C 243.003 185.031,242.904 185.392,242.782 185.392 C 242.475 185.392,241.934 188.784,242.223 188.896 C 242.352 188.947,242.457 189.109,242.457 189.257 C 242.457 189.593,242.841 189.969,244.232 190.998 C 244.833 191.442,245.386 191.868,245.461 191.944 C 245.712 192.198,247.773 193.731,248.464 194.177 C 248.840 194.420,249.418 194.877,249.750 195.193 C 250.081 195.509,250.427 195.768,250.519 195.768 C 250.746 195.768,252.550 197.130,253.321 197.884 C 254.160 198.704,255.385 198.605,256.408 197.634 C 257.154 196.925,258.807 195.768,259.072 195.768 C 259.219 195.768,259.381 195.674,259.431 195.560 C 259.542 195.307,262.321 193.311,262.562 193.311 C 262.657 193.311,262.933 193.084,263.176 192.807 C 263.419 192.531,264.140 191.976,264.778 191.575 C 266.407 190.552,266.530 190.775,262.799 188.000 C 261.597 187.107,260.553 186.304,260.478 186.216 C 260.403 186.129,259.666 185.572,258.840 184.979 C 258.014 184.385,257.297 183.806,257.247 183.691 C 256.985 183.087,256.382 183.558,256.379 184.369 C 256.374 185.862,256.056 187.303,255.770 187.126 C 255.604 187.024,255.571 186.232,255.684 185.084 C 255.786 184.052,255.788 183.208,255.689 183.208 C 255.590 183.208,254.474 183.700,253.210 184.300 C 251.945 184.901,250.814 185.392,250.696 185.392 C 250.577 185.392,249.628 185.822,248.585 186.347 C 247.542 186.872,246.474 187.302,246.212 187.303 C 245.949 187.303,245.734 187.397,245.734 187.510 C 245.734 187.624,245.334 187.877,244.846 188.074 C 244.358 188.271,243.746 188.546,243.485 188.687 C 242.913 188.994,242.456 189.017,242.460 188.737 C 242.463 188.535,245.495 187.031,245.901 187.031 C 246.016 187.031,246.855 186.671,247.765 186.232 C 248.675 185.793,250.096 185.132,250.922 184.762 C 256.040 182.473,255.957 182.559,254.145 181.433 C 253.903 181.283,252.065 179.987,250.061 178.554 C 245.713 175.444,245.855 175.533,245.635 175.753 M259.859 177.919 C 257.908 180.536,257.624 180.893,257.143 181.329 C 256.217 182.168,256.976 183.175,260.205 185.393 C 260.730 185.753,261.222 186.120,261.297 186.207 C 261.372 186.295,262.109 186.844,262.935 187.428 C 263.761 188.012,264.775 188.799,265.188 189.177 C 265.601 189.554,265.938 189.748,265.937 189.607 C 265.936 189.366,264.125 184.582,263.361 182.799 C 263.167 182.348,262.792 181.427,262.526 180.751 C 262.260 180.075,261.877 179.140,261.675 178.673 C 261.473 178.206,261.205 177.546,261.079 177.206 C 260.862 176.619,260.801 176.655,259.859 177.919 M238.976 188.463 C 239.138 188.952,239.456 189.782,239.683 190.307 C 239.910 190.833,240.367 192.037,240.699 192.984 C 241.031 193.930,241.379 194.780,241.471 194.872 C 241.563 194.964,241.638 195.265,241.638 195.540 C 241.638 195.816,241.769 196.041,241.930 196.041 C 242.090 196.041,242.159 195.826,242.083 195.563 C 242.007 195.300,241.879 194.102,241.799 192.901 L 241.653 190.717 242.074 191.945 C 242.362 192.786,242.459 193.820,242.380 195.222 C 242.316 196.348,242.316 197.055,242.381 196.792 C 242.585 195.955,242.927 196.276,243.107 197.474 C 243.630 200.943,243.553 200.748,244.333 200.573 C 245.929 200.216,248.875 200.065,248.601 200.355 C 248.451 200.514,247.898 200.694,247.372 200.756 C 246.846 200.818,248.874 200.887,251.877 200.910 C 256.966 200.949,257.282 200.923,256.525 200.528 C 256.078 200.295,255.625 199.963,255.518 199.791 C 255.285 199.413,251.737 199.485,251.347 199.875 C 251.017 200.205,248.925 200.222,249.128 199.894 C 249.305 199.607,250.872 199.295,252.468 199.228 C 254.135 199.159,254.093 199.040,251.825 197.399 C 250.688 196.577,249.620 195.782,249.452 195.631 C 249.284 195.481,248.655 194.996,248.055 194.554 C 247.454 194.111,246.901 193.677,246.826 193.589 C 246.751 193.501,246.014 192.944,245.188 192.352 C 244.362 191.759,243.523 191.117,243.323 190.925 C 242.712 190.338,241.971 190.028,241.555 190.188 C 241.301 190.286,241.100 190.115,240.992 189.709 C 240.900 189.362,240.342 188.740,239.753 188.327 L 238.682 187.575 238.976 188.463 M255.836 188.243 C 255.836 188.460,255.713 188.713,255.563 188.805 C 255.413 188.898,255.290 188.721,255.290 188.412 C 255.290 188.103,255.413 187.850,255.563 187.850 C 255.713 187.850,255.836 188.027,255.836 188.243 M255.717 191.331 C 255.619 192.495,255.473 194.246,255.392 195.222 C 255.180 197.801,254.744 197.941,254.744 195.429 C 254.744 194.282,254.867 193.267,255.017 193.174 C 255.167 193.081,255.290 192.152,255.290 191.110 C 255.290 189.904,255.400 189.215,255.593 189.215 C 255.804 189.215,255.842 189.856,255.717 191.331 M263.481 193.121 C 262.805 193.588,262.090 194.129,261.892 194.323 C 261.693 194.517,261.440 194.676,261.329 194.676 C 261.218 194.676,260.889 194.893,260.598 195.158 C 260.306 195.423,259.208 196.246,258.157 196.987 C 257.106 197.728,256.205 198.432,256.155 198.553 C 256.105 198.673,255.894 198.771,255.685 198.771 C 255.461 198.771,255.371 198.938,255.464 199.181 C 255.551 199.406,255.782 199.590,255.979 199.590 C 256.176 199.590,256.378 199.683,256.428 199.795 C 256.541 200.051,258.152 200.956,258.494 200.956 C 258.633 200.956,259.161 200.372,259.667 199.659 C 260.172 198.945,260.658 198.300,260.746 198.225 C 260.834 198.150,261.511 197.229,262.250 196.177 C 262.990 195.126,263.754 194.103,263.949 193.904 C 264.382 193.461,264.924 192.477,264.800 192.359 C 264.751 192.311,264.157 192.654,263.481 193.121 " stroke="none" fill="#6ccc6c" fill-rule="evenodd"></path><path id="path6" d="M94.329 173.861 C 93.736 174.288,93.379 175.669,93.373 177.556 C 93.368 179.086,93.248 179.674,92.833 180.205 C 92.229 180.976,92.134 181.854,92.603 182.323 C 93.048 182.768,92.412 183.481,91.571 183.481 C 90.826 183.481,90.643 184.408,91.335 184.674 C 91.944 184.907,92.371 186.213,92.057 186.884 C 91.913 187.190,91.594 187.932,91.346 188.532 C 91.098 189.133,90.778 189.838,90.635 190.099 C 90.293 190.723,90.302 191.945,90.648 191.945 C 91.034 191.945,90.988 193.757,90.586 194.401 C 90.330 194.811,90.325 195.131,90.563 195.762 C 90.734 196.216,90.762 196.587,90.625 196.587 C 90.189 196.587,90.324 200.573,90.773 200.946 C 91.265 201.354,91.741 201.093,91.741 200.414 C 91.741 200.134,92.044 199.544,92.416 199.103 C 93.112 198.276,93.076 197.952,92.287 197.952 C 90.832 197.952,90.495 191.163,91.813 188.396 C 92.207 187.570,92.567 186.587,92.613 186.212 C 92.700 185.501,94.471 184.973,94.471 185.658 C 94.471 185.874,94.629 185.873,95.040 185.653 C 95.490 185.412,95.712 185.443,96.105 185.798 C 96.437 186.099,96.661 186.150,96.784 185.952 C 96.884 185.789,97.072 185.722,97.201 185.802 C 97.331 185.882,97.514 185.823,97.608 185.670 C 97.940 185.133,98.205 185.409,98.978 187.099 C 99.407 188.038,99.827 188.867,99.913 188.942 C 100.479 189.439,100.762 190.374,100.458 190.741 C 100.237 191.007,100.204 191.501,100.353 192.289 C 101.337 197.484,99.797 199.097,94.518 198.398 C 93.601 198.276,93.358 198.308,93.652 198.510 C 93.879 198.666,95.105 198.757,96.408 198.713 C 99.083 198.624,99.391 198.772,99.933 200.413 C 100.842 203.169,102.035 200.029,101.334 196.724 C 100.833 194.361,100.602 191.534,100.851 190.825 C 101.045 190.273,100.873 189.730,99.955 187.997 C 99.168 186.511,98.905 185.764,99.102 185.567 C 99.258 185.411,99.386 185.011,99.386 184.678 C 99.386 184.345,99.531 184.024,99.708 183.965 C 100.296 183.769,99.701 182.935,98.972 182.935 C 98.316 182.935,98.281 182.871,98.448 181.978 C 98.576 181.297,98.494 180.817,98.163 180.313 C 97.751 179.684,97.737 179.411,98.042 177.879 C 98.413 176.014,97.871 173.652,97.071 173.652 C 96.632 173.652,96.345 174.317,96.643 174.642 C 96.964 174.994,97.178 178.131,96.912 178.605 C 96.755 178.886,96.318 178.994,95.509 178.951 L 94.334 178.889 94.414 177.024 C 94.458 175.980,94.669 174.893,94.892 174.552 C 95.467 173.674,95.143 173.275,94.329 173.861 M94.744 181.160 C 94.744 181.386,94.621 181.570,94.471 181.570 C 94.321 181.570,94.198 181.386,94.198 181.160 C 94.198 180.935,94.321 180.751,94.471 180.751 C 94.621 180.751,94.744 180.935,94.744 181.160 M93.720 192.138 C 93.276 193.096,93.290 193.311,93.797 193.311 C 94.258 193.311,94.747 192.279,94.542 191.741 C 94.342 191.214,94.093 191.335,93.720 192.138 M96.237 191.686 C 96.024 192.031,96.845 193.857,97.214 193.857 C 97.578 193.857,97.538 193.011,97.133 192.138 C 96.768 191.352,96.521 191.227,96.237 191.686 M174.812 222.994 C 175.225 223.057,175.901 223.057,176.314 222.994 C 176.727 222.932,176.389 222.880,175.563 222.880 C 174.737 222.880,174.399 222.932,174.812 222.994 " stroke="none" fill="#907448" fill-rule="evenodd"></path><path id="path7" d="M172.137 132.765 L 171.058 133.925 172.218 132.846 C 173.298 131.842,173.504 131.604,173.298 131.604 C 173.253 131.604,172.731 132.126,172.137 132.765 M212.214 157.543 C 212.214 158.068,212.270 158.283,212.338 158.020 C 212.407 157.758,212.407 157.328,212.338 157.065 C 212.270 156.802,212.214 157.017,212.214 157.543 M212.287 159.454 C 212.183 159.926,212.155 160.369,212.225 160.439 C 212.294 160.508,212.430 160.173,212.526 159.693 C 212.622 159.213,212.649 158.770,212.588 158.708 C 212.526 158.646,212.390 158.982,212.287 159.454 M78.769 188.669 L 78.771 215.290 109.078 215.292 L 139.386 215.294 109.148 215.222 L 78.911 215.151 78.839 188.599 L 78.767 162.048 78.769 188.669 M149.138 171.929 C 149.105 177.364,149.171 181.868,149.283 181.938 C 149.470 182.053,149.465 174.600,149.273 165.597 C 149.232 163.645,149.171 166.494,149.138 171.929 M221.506 182.253 C 221.446 202.134,221.447 202.186,222.018 202.867 L 222.590 203.549 222.150 202.811 C 221.758 202.153,221.702 199.908,221.638 182.197 L 221.566 162.321 221.506 182.253 M140.744 188.942 C 140.744 200.130,140.778 204.706,140.819 199.113 C 140.860 193.519,140.860 184.365,140.819 178.771 C 140.778 173.177,140.744 177.754,140.744 188.942 M83.917 171.403 C 83.744 171.514,89.545 171.604,96.808 171.604 C 104.071 171.604,109.804 171.521,109.546 171.419 C 108.910 171.166,84.313 171.152,83.917 171.403 M80.946 189.488 C 80.946 197.522,80.981 200.809,81.024 196.792 C 81.066 192.775,81.066 186.201,81.024 182.184 C 80.981 178.167,80.946 181.454,80.946 189.488 M157.679 178.294 L 156.587 178.489 157.543 178.501 C 158.068 178.507,158.805 178.414,159.181 178.294 C 160.058 178.013,159.248 178.013,157.679 178.294 M162.048 178.294 C 162.348 178.423,162.778 178.528,163.003 178.528 C 163.262 178.528,163.211 178.441,162.867 178.294 C 162.567 178.164,162.137 178.059,161.911 178.059 C 161.653 178.059,161.704 178.146,162.048 178.294 M154.594 178.836 C 154.098 178.953,153.615 179.126,153.521 179.220 C 153.318 179.423,154.986 179.123,155.768 178.816 C 156.464 178.542,155.784 178.554,154.594 178.836 M163.823 178.724 C 163.823 178.908,165.241 179.424,165.376 179.288 C 165.438 179.226,165.114 179.045,164.656 178.885 C 164.197 178.726,163.823 178.653,163.823 178.724 M166.451 182.150 C 166.232 183.241,166.278 188.879,166.512 189.709 C 166.610 190.056,166.689 188.305,166.689 185.818 C 166.689 180.858,166.694 180.932,166.451 182.150 M211.149 183.364 C 211.059 183.599,211.132 183.936,211.311 184.114 C 211.562 184.363,211.595 184.328,211.455 183.959 C 211.225 183.356,211.938 183.306,212.423 183.891 C 212.782 184.323,213.247 184.441,213.236 184.096 C 213.219 183.586,211.320 182.920,211.149 183.364 M212.150 185.392 C 212.471 185.843,212.831 186.212,212.951 186.212 C 213.070 186.212,213.492 186.536,213.888 186.931 C 214.284 187.327,214.608 187.513,214.608 187.343 C 214.608 187.174,214.182 186.758,213.663 186.419 C 213.143 186.080,212.570 185.526,212.388 185.188 C 212.206 184.850,211.947 184.573,211.812 184.573 C 211.677 184.573,211.829 184.942,212.150 185.392 M98.840 185.756 C 98.840 185.831,99.346 186.848,99.965 188.017 C 100.875 189.733,101.045 190.274,100.851 190.825 C 100.717 191.206,100.711 192.356,100.837 193.433 C 100.961 194.492,101.125 195.893,101.201 196.547 L 101.339 197.735 102.000 197.113 C 102.692 196.463,102.988 193.500,102.423 192.887 C 102.291 192.745,101.975 191.952,101.720 191.126 C 101.301 189.768,100.726 188.355,99.839 186.507 C 99.561 185.927,98.840 185.385,98.840 185.756 M90.837 187.509 C 88.434 191.510,87.395 194.961,88.268 196.044 C 89.382 197.428,91.095 197.172,90.541 195.705 C 90.327 195.138,90.339 194.797,90.586 194.401 C 90.988 193.757,91.034 191.945,90.648 191.945 C 90.302 191.945,90.293 190.723,90.635 190.099 C 90.778 189.838,91.096 189.133,91.341 188.532 C 91.586 187.932,91.899 187.227,92.037 186.966 C 92.935 185.264,91.906 185.729,90.837 187.509 M213.926 189.213 C 213.654 189.515,213.558 189.761,213.713 189.761 C 214.056 189.761,214.737 188.981,214.554 188.797 C 214.481 188.725,214.199 188.912,213.926 189.213 M209.149 189.420 C 209.150 189.532,209.733 189.651,210.446 189.684 C 211.353 189.726,211.618 189.665,211.331 189.483 C 210.845 189.175,209.146 189.126,209.149 189.420 M208.779 192.452 C 208.663 193.406,208.627 194.247,208.700 194.320 C 208.895 194.515,209.213 192.140,209.094 191.374 C 209.038 191.012,208.896 191.498,208.779 192.452 M166.857 191.672 C 166.845 192.048,166.953 192.539,167.099 192.765 C 167.436 193.286,167.436 192.725,167.099 191.672 L 166.880 190.990 166.857 191.672 M167.395 194.130 C 167.404 194.355,167.516 194.785,167.645 195.085 L 167.880 195.631 167.895 195.085 C 167.903 194.785,167.791 194.355,167.645 194.130 C 167.410 193.766,167.382 193.766,167.395 194.130 M208.241 195.872 C 208.139 196.140,208.062 196.564,208.072 196.814 C 208.083 197.116,208.178 197.047,208.353 196.610 C 208.498 196.248,208.574 195.824,208.522 195.669 C 208.470 195.513,208.344 195.605,208.241 195.872 M168.036 199.731 C 168.038 201.381,168.121 202.362,168.220 201.911 C 168.457 200.828,168.458 198.262,168.221 197.410 C 168.117 197.037,168.034 198.081,168.036 199.731 M207.543 198.123 C 207.362 198.518,207.278 198.904,207.354 198.981 C 207.431 199.058,207.623 198.779,207.782 198.362 C 207.940 197.945,208.025 197.559,207.970 197.504 C 207.915 197.449,207.723 197.727,207.543 198.123 M205.269 202.323 C 204.670 203.374,204.848 203.373,205.597 202.321 C 205.918 201.870,206.080 201.502,205.957 201.503 C 205.834 201.504,205.524 201.873,205.269 202.323 M202.867 205.023 C 202.041 205.864,200.874 206.960,200.273 207.456 L 199.181 208.360 200.430 207.513 C 201.733 206.629,205.093 203.383,204.633 203.453 C 204.488 203.475,203.693 204.181,202.867 205.023 M167.509 204.232 C 167.406 204.555,167.384 204.881,167.459 204.956 C 167.534 205.031,167.679 204.828,167.782 204.505 C 167.884 204.182,167.907 203.856,167.831 203.781 C 167.756 203.706,167.611 203.909,167.509 204.232 M222.551 204.915 C 222.542 205.666,222.638 206.444,222.765 206.644 C 222.900 206.857,222.946 206.404,222.876 205.552 C 222.710 203.552,222.572 203.280,222.551 204.915 M186.467 205.250 C 185.870 205.926,185.865 205.950,186.418 205.483 C 187.132 204.881,187.281 204.971,187.604 206.198 C 187.834 207.076,187.837 207.072,187.718 206.030 C 187.551 204.559,187.246 204.370,186.467 205.250 M166.094 208.074 C 165.771 208.664,165.596 209.147,165.706 209.147 C 165.919 209.147,166.907 207.225,166.766 207.084 C 166.720 207.038,166.417 207.483,166.094 208.074 M187.932 209.147 C 187.932 209.973,187.983 210.311,188.045 209.898 C 188.108 209.485,188.108 208.809,188.045 208.396 C 187.983 207.983,187.932 208.321,187.932 209.147 M180.956 208.892 C 180.392 209.190,179.932 209.494,179.932 209.568 C 179.932 209.643,180.423 209.453,181.024 209.147 C 181.625 208.840,182.116 208.531,182.116 208.459 C 182.116 208.280,182.114 208.281,180.956 208.892 M198.089 209.034 L 197.270 209.738 198.157 209.151 C 198.645 208.828,199.044 208.510,199.044 208.446 C 199.044 208.241,198.929 208.312,198.089 209.034 M223.813 209.697 C 223.892 210.000,224.065 210.314,224.197 210.396 C 224.329 210.477,224.437 210.775,224.437 211.058 C 224.437 211.341,224.558 211.647,224.707 211.739 C 225.005 211.923,224.873 211.421,224.258 210.034 C 223.816 209.035,223.596 208.869,223.813 209.697 M164.219 210.567 C 163.626 211.198,163.385 211.536,163.685 211.318 C 164.327 210.851,164.644 210.544,165.153 209.897 C 165.835 209.028,165.315 209.402,164.219 210.567 M140.100 210.285 C 140.083 210.535,139.998 210.965,139.911 211.240 C 139.762 211.715,139.770 211.715,140.066 211.254 C 140.238 210.987,140.323 210.557,140.255 210.299 C 140.144 209.876,140.128 209.874,140.100 210.285 M187.126 211.712 C 186.309 213.426,187.410 214.972,189.008 214.353 C 189.559 214.139,189.531 214.115,188.747 214.129 C 187.128 214.157,186.627 213.177,187.447 211.591 C 187.676 211.147,187.797 210.785,187.716 210.785 C 187.635 210.785,187.369 211.202,187.126 211.712 M175.631 211.613 C 175.294 211.748,175.017 211.925,175.017 212.005 C 175.017 212.270,175.452 212.156,175.989 211.749 C 176.593 211.292,176.508 211.260,175.631 211.613 M193.652 211.909 C 192.721 212.505,192.420 212.905,193.242 212.453 C 193.869 212.108,194.850 211.350,194.676 211.344 C 194.601 211.342,194.140 211.596,193.652 211.909 M161.690 212.434 C 161.361 212.740,161.092 213.136,161.092 213.314 C 161.092 213.491,161.290 213.355,161.531 213.010 C 161.772 212.666,162.233 212.278,162.555 212.148 C 162.939 211.993,162.993 211.906,162.714 211.894 C 162.479 211.885,162.018 212.128,161.690 212.434 M139.398 213.203 C 139.310 213.481,139.347 214.004,139.481 214.363 C 139.685 214.910,139.721 214.827,139.697 213.857 C 139.664 212.556,139.628 212.477,139.398 213.203 M170.239 213.655 C 169.488 213.857,168.321 214.149,167.645 214.303 L 166.416 214.583 167.782 214.439 C 169.182 214.291,172.014 213.569,172.014 213.359 C 172.014 213.198,171.804 213.233,170.239 213.655 M163.959 214.881 C 163.759 215.203,164.027 215.203,164.778 214.881 C 165.305 214.654,165.303 214.645,164.726 214.627 C 164.397 214.616,164.052 214.730,163.959 214.881 M144.404 220.691 C 144.536 220.822,144.996 220.886,145.427 220.832 C 146.149 220.742,146.130 220.723,145.188 220.593 C 144.601 220.511,144.266 220.553,144.404 220.691 M148.564 221.186 C 148.918 221.410,151.214 221.551,150.967 221.333 C 150.904 221.278,150.253 221.169,149.519 221.090 C 148.704 221.002,148.333 221.039,148.564 221.186 M220.341 221.160 L 218.840 221.344 220.393 221.389 C 221.248 221.413,222.023 221.311,222.116 221.160 C 222.209 221.010,222.185 220.907,222.064 220.932 C 221.942 220.956,221.167 221.059,220.341 221.160 M236.015 225.119 C 236.015 227.522,236.057 228.469,236.108 227.223 C 236.158 225.976,236.158 224.011,236.107 222.854 C 236.056 221.697,236.015 222.717,236.015 225.119 M102.201 221.365 C 104.576 221.410,108.385 221.410,110.666 221.365 C 112.946 221.319,111.003 221.282,106.348 221.282 C 101.693 221.282,99.827 221.319,102.201 221.365 M256.041 221.365 C 258.331 221.410,262.078 221.410,264.369 221.365 C 266.659 221.319,264.785 221.282,260.205 221.282 C 255.625 221.282,253.751 221.319,256.041 221.365 M152.378 221.805 C 152.440 221.859,153.352 221.972,154.403 222.057 C 155.558 222.149,156.098 222.118,155.768 221.977 C 155.249 221.756,152.139 221.598,152.378 221.805 M214.613 221.970 C 214.350 222.137,214.781 222.170,215.841 222.065 C 216.740 221.977,217.526 221.860,217.588 221.805 C 217.850 221.578,214.982 221.737,214.613 221.970 M158.498 222.526 C 158.591 222.676,158.936 222.790,159.265 222.779 C 159.842 222.761,159.844 222.752,159.317 222.526 C 158.566 222.203,158.299 222.203,158.498 222.526 M210.785 222.526 L 210.102 222.744 210.837 222.771 C 211.241 222.786,211.648 222.676,211.741 222.526 C 211.932 222.215,211.754 222.215,210.785 222.526 M167.918 223.071 C 171.868 223.295,180.370 223.413,180.182 223.241 C 180.119 223.184,176.505 223.075,172.150 222.999 C 166.990 222.910,165.516 222.935,167.918 223.071 M206.143 223.072 L 204.915 223.263 206.143 223.300 C 206.819 223.320,207.556 223.217,207.782 223.072 C 208.263 222.761,208.143 222.761,206.143 223.072 M183.303 223.682 C 183.683 223.924,199.935 223.898,201.080 223.654 C 201.525 223.559,197.636 223.481,192.438 223.481 C 187.241 223.481,183.130 223.571,183.303 223.682 M268.574 229.420 C 268.644 229.532,269.063 229.625,269.504 229.625 L 270.307 229.625 270.307 231.536 L 270.307 233.447 260.068 233.447 L 249.829 233.447 249.829 231.536 L 249.829 229.625 242.997 229.625 L 236.165 229.625 236.240 234.744 L 236.314 239.863 273.788 239.933 C 298.724 239.979,311.263 239.910,311.263 239.728 C 311.263 239.577,311.939 239.454,312.765 239.454 C 313.590 239.454,314.266 239.331,314.266 239.181 C 314.266 239.031,314.092 238.908,313.879 238.908 C 313.392 238.908,311.813 238.022,311.811 237.747 C 311.810 237.635,311.563 237.543,311.263 237.543 C 310.962 237.543,310.717 237.431,310.717 237.294 C 310.717 237.157,310.174 236.782,309.510 236.461 C 308.847 236.140,308.156 235.699,307.975 235.481 C 307.794 235.263,307.477 235.085,307.270 235.085 C 307.063 235.085,306.894 234.962,306.894 234.812 C 306.894 234.662,306.725 234.539,306.518 234.539 C 306.311 234.539,305.989 234.355,305.802 234.130 C 305.615 233.904,305.231 233.720,304.950 233.720 C 304.668 233.720,304.437 233.597,304.437 233.447 C 304.437 233.297,304.254 233.174,304.030 233.174 C 303.806 233.174,303.469 232.928,303.281 232.628 C 303.094 232.328,302.796 232.082,302.619 232.082 C 302.181 232.082,300.618 231.176,300.616 230.922 C 300.615 230.809,300.369 230.717,300.068 230.717 C 299.768 230.717,299.522 230.594,299.522 230.444 C 299.522 230.294,299.348 230.171,299.135 230.171 C 298.923 230.171,298.697 230.017,298.635 229.829 C 298.547 229.564,295.173 229.458,283.485 229.352 C 275.214 229.276,268.505 229.307,268.574 229.420 M115.989 231.195 L 115.904 232.218 105.870 232.290 L 95.836 232.362 95.836 231.471 L 95.836 230.580 79.169 230.653 L 62.502 230.725 61.427 231.403 C 60.836 231.777,60.227 232.082,60.074 232.082 C 59.921 232.082,59.795 232.205,59.795 232.355 C 59.795 232.505,59.638 232.628,59.446 232.628 C 59.254 232.628,58.920 232.874,58.703 233.174 C 58.487 233.474,58.106 233.720,57.857 233.720 C 57.608 233.720,57.252 233.904,57.065 234.130 C 56.878 234.355,56.556 234.539,56.349 234.539 C 56.142 234.539,55.973 234.662,55.973 234.812 C 55.973 234.962,55.807 235.085,55.605 235.085 C 55.403 235.085,55.026 235.320,54.766 235.607 C 54.507 235.894,53.996 236.203,53.632 236.295 C 53.267 236.386,52.969 236.581,52.969 236.729 C 52.969 236.876,52.841 236.997,52.685 236.997 C 52.528 236.997,52.137 237.242,51.814 237.543 C 51.492 237.843,51.067 238.089,50.870 238.089 C 50.673 238.089,50.512 238.198,50.512 238.332 C 50.512 238.466,50.205 238.653,49.829 238.747 C 49.454 238.841,49.147 239.039,49.147 239.186 C 49.147 239.333,48.954 239.454,48.718 239.454 C 48.092 239.454,47.508 240.139,47.513 240.868 C 47.515 241.243,47.599 241.373,47.718 241.186 C 47.867 240.951,58.850 240.820,90.785 240.671 C 121.786 240.527,133.707 240.388,133.852 240.168 C 133.963 240.000,134.055 237.683,134.057 235.017 L 134.061 230.171 125.068 230.171 L 116.074 230.171 115.989 231.195 M85.734 244.027 C 85.734 244.213,102.821 244.211,125.324 244.023 C 130.055 243.983,123.082 243.922,109.829 243.887 C 96.577 243.851,85.734 243.915,85.734 244.027 " stroke="none" fill="#5c445c" fill-rule="evenodd"></path><path id="path8" d="M158.498 178.453 C 150.425 179.555,146.611 183.042,145.534 190.307 C 145.367 191.433,145.096 193.176,144.930 194.179 C 144.745 195.302,144.715 196.613,144.853 197.592 C 145.436 201.734,145.304 202.246,142.749 205.794 C 141.896 206.979,141.111 208.310,141.005 208.753 C 140.899 209.195,140.738 209.679,140.647 209.829 C 139.853 211.141,139.548 215.493,140.116 217.391 C 140.689 219.301,143.483 220.611,146.996 220.616 C 147.616 220.617,148.553 220.726,149.078 220.858 C 149.604 220.990,151.140 221.246,152.491 221.426 C 153.843 221.606,156.116 221.924,157.543 222.133 C 159.057 222.354,164.798 222.631,171.331 222.797 C 177.488 222.954,183.143 223.216,183.898 223.380 C 185.435 223.713,197.593 223.534,203.549 223.092 C 208.520 222.722,214.368 222.017,217.427 221.418 C 218.152 221.276,219.258 221.159,219.884 221.156 C 221.094 221.152,222.976 220.590,224.198 219.868 C 225.332 219.198,225.672 217.611,225.270 214.861 C 224.957 212.724,224.832 212.284,223.972 210.299 C 223.129 208.352,222.539 206.223,222.532 205.105 C 222.528 204.310,222.305 203.605,221.843 202.926 C 221.468 202.373,221.160 201.588,221.160 201.181 C 221.160 200.775,221.038 200.366,220.887 200.273 C 220.737 200.180,220.614 199.870,220.614 199.583 C 220.614 199.296,220.391 198.658,220.118 198.165 C 219.845 197.673,219.409 196.471,219.149 195.495 C 218.692 193.780,218.376 192.905,217.837 191.857 C 217.120 190.463,216.524 189.244,216.077 188.259 C 215.540 187.077,212.477 183.754,211.924 183.754 C 211.273 183.754,212.375 185.189,214.163 186.669 C 216.154 188.317,214.680 190.170,211.595 189.897 L 209.455 189.707 209.315 190.622 C 209.238 191.124,209.104 192.457,209.017 193.584 C 208.696 197.739,206.229 202.587,202.827 205.746 C 199.348 208.977,191.734 213.829,189.109 214.488 C 186.824 215.061,185.862 213.114,187.371 210.972 C 187.923 210.189,187.932 209.167,187.415 206.075 C 187.209 204.844,187.277 204.854,186.160 205.892 C 184.323 207.600,177.317 211.577,173.925 212.837 C 173.249 213.088,172.451 213.393,172.150 213.516 C 170.484 214.196,167.420 214.879,166.007 214.885 C 165.481 214.887,164.533 215.069,163.901 215.289 C 162.226 215.873,160.819 215.190,160.819 213.794 C 160.819 213.082,161.792 211.877,162.368 211.877 C 163.463 211.877,166.224 207.954,167.267 204.915 C 167.991 202.806,167.909 196.706,167.110 193.311 C 166.213 189.493,165.941 182.841,166.587 180.521 C 166.887 179.444,161.439 178.052,158.498 178.453 M92.742 185.575 C 92.642 185.675,92.560 186.020,92.560 186.343 C 92.560 186.665,92.231 187.597,91.830 188.413 C 90.799 190.510,90.643 196.195,91.581 197.468 C 92.455 198.655,98.662 198.780,99.981 197.637 C 100.671 197.039,100.827 194.791,100.353 192.289 C 100.204 191.501,100.237 191.007,100.458 190.741 C 100.762 190.374,100.479 189.439,99.913 188.942 C 99.827 188.867,99.407 188.038,98.978 187.099 C 98.205 185.409,97.940 185.133,97.608 185.670 C 97.514 185.823,97.331 185.882,97.201 185.802 C 97.072 185.722,96.884 185.789,96.784 185.952 C 96.661 186.150,96.437 186.099,96.105 185.798 C 95.712 185.443,95.490 185.412,95.040 185.653 C 94.662 185.856,94.471 185.863,94.471 185.675 C 94.471 185.365,93.034 185.282,92.742 185.575 M94.542 191.741 C 94.747 192.279,94.258 193.311,93.797 193.311 C 93.290 193.311,93.276 193.096,93.720 192.138 C 94.093 191.335,94.342 191.214,94.542 191.741 M97.133 192.138 C 97.538 193.011,97.578 193.857,97.214 193.857 C 96.845 193.857,96.024 192.031,96.237 191.686 C 96.521 191.227,96.768 191.352,97.133 192.138 " stroke="none" fill="#c4647c" fill-rule="evenodd"></path></g></svg>