<?xml version="1.0" encoding="UTF-8" standalone="no"?>
<!DOCTYPE svg PUBLIC "-//W3C//DTD SVG 1.1//EN" "http://www.w3.org/Graphics/SVG/1.1/DTD/svg11.dtd">
<!-- Created with Vectornator (http://vectornator.io/) -->
<svg height="100%" stroke-miterlimit="10" style="fill-rule:nonzero;clip-rule:evenodd;stroke-linecap:round;stroke-linejoin:round;" version="1.1" viewBox="0 0 153.675 140.169" width="100%" xml:space="preserve" xmlns="http://www.w3.org/2000/svg" xmlnsVectornator="http://vectornator.io" xmlns:xlink="http://www.w3.org/1999/xlink">
<defs/>
<g id="Layer-7" vectornatorLayerName="Layer 7">
<path d="M13.7854 75.8465C13.7854 41.3628 42.2948 13.4082 77.4628 13.4082C112.631 13.4082 141.14 41.3628 141.14 75.8465C141.14 110.33 112.631 138.285 77.4628 138.285C42.2948 138.285 13.7854 110.33 13.7854 75.8465Z" fill="#0488ab" fill-rule="nonzero" opacity="1" stroke="#034f8b" stroke-linecap="butt" stroke-linejoin="round" stroke-width="0.781212" vectornatorLayerName="Oval 1"/>
</g>
<g id="Layer-1" vectornatorLayerName="Layer 1">
<path d="M51.1716 80.0088L53.8408 76.1761L108.047 91.028L108.937 92.9492C109.69 93.2914 110.716 95.6136 110.716 95.6136L105.994 96.298" fill="#c9dbe7" fill-rule="nonzero" opacity="1" stroke="none" vectornatorLayerName="Curve 1"/>
</g>
<g id="Layer-10" vectornatorLayerName="Layer 10">
<path d="M49.6771 83.1312L55.9033 73.076L53.839 72.0105L51.8413 75.3401L45.5485 72.6764L43.351 76.0726L49.3441 78.603L47.6128 82.4653L49.6771 83.1312Z" fill="#543827" fill-rule="nonzero" opacity="1" stroke="none" vectornatorLayerName="Curve 1"/>
</g>
<g id="Layer-9" vectornatorLayerName="Layer 9">
<path d="M38.1135 103.485L38.0438 105.855L37.2073 108.922C37.2073 108.922 36.4405 110.874 35.7435 111.78C35.0464 112.686 33.5826 114.917 33.5826 114.917L31.4217 116.869L29.8881 118.123L26.821 119.657L25.0087 120.772L23.6842 122.654L23.1963 124.746L24.7298 125.791L26.7513 126.697L29.679 126.07L31.2822 124.885L32.3975 122.306L31.3519 121.539L32.7461 120.493L35.1161 119.796L37.765 118.751L40.6926 116.799L43.69 114.778L46.6177 112.129L47.9421 111.083L49.8242 107.737L50.0333 104.6L48.6392 101.882L44.2477 100.697L41.6685 101.045L38.1135 103.485Z" fill="#28292d" fill-rule="nonzero" opacity="1" stroke="#28292d" stroke-linecap="butt" stroke-linejoin="round" stroke-width="0.781212" vectornatorLayerName="Curve 1"/>
<path d="M81.9589 107.458L77.2886 106.413L72.4091 106.343L69.2723 107.877L68.5752 109.898L68.6449 113.523L70.527 116.451L73.4547 118.96L77.1491 119.866L79.4495 119.448L79.4495 121.888L76.7309 123.63L74.2215 123.979L73.5941 126.209L75.4762 127.813L77.8462 128.022L79.9374 127.604L81.5407 126L82.7257 124.467L84.8169 123.351L86.211 121.469L86.3504 118.96L85.5836 117.078L83.1439 112.965L81.9589 107.458Z" fill="#28292d" fill-rule="nonzero" opacity="1" stroke="#28292d" stroke-linecap="butt" stroke-linejoin="round" stroke-width="0.781212" vectornatorLayerName="Curve 2"/>
</g>
<g id="Layer-2" vectornatorLayerName="Layer 2">
<path d="M10.268 102.53L6.23575 99.9375L3.6436 94.6092L5.94773 91.153L10.556 86.2568L14.8762 82.9446L19.9165 78.9124L23.2287 76.3202L27.6929 72.864L32.8772 73.4401L36.1894 75.6002L39.2136 79.3444L41.9497 84.3847L42.8138 89.569C42.8138 89.569 43.9658 92.0171 42.5258 94.1772C41.0857 96.3373 37.6295 98.6415 37.6295 98.6415L31.0051 101.09L24.3808 103.826L17.3244 104.402L13.4361 103.682L10.268 102.53Z" fill="#4a4b53" fill-rule="nonzero" opacity="1" stroke="#4a4b53" stroke-linecap="butt" stroke-linejoin="round" stroke-width="0.781212" vectornatorLayerName="Curve 1"/>
</g>
<g id="Layer-3" vectornatorLayerName="Layer 3">
<path d="M83.9738 115.108L80.1983 115.059L74.8443 113.744L69.8661 111.584L65.1697 109.236L60.0036 107.639L55.589 107.357C55.589 107.357 50.7047 106.512 48.8262 106.512C46.9476 106.512 42.533 105.572 42.533 105.572L37.6487 104.07L33.9855 101.909L32.1069 99.2792L32.9523 90.2621L44.5055 84.6264L55.0254 80.6814L64.2304 79.7421L74.4686 79.93L82.8283 80.9632L91 82.3721L95.6964 86.6928L98.7022 92.3285L99.3597 99.2792L98.7961 105.948L96.8236 109.893L92.9725 113.744L87.5247 115.153L83.9738 115.108" fill="#4a4b53" fill-rule="nonzero" opacity="1" stroke="#4a4b53" stroke-linecap="butt" stroke-linejoin="round" stroke-width="0.781212" vectornatorLayerName="Curve 1"/>
</g>
<g id="Layer-4" vectornatorLayerName="Layer 4">
<path d="M44.3176 100.97L45.163 105.666L46.2901 109.893L46.384 113.462L45.163 116.656L43.0965 119.568L41.124 121.258L39.2455 122.386L37.3669 123.043L35.0187 124.734L34.8308 127.27L36.8033 128.585L39.3394 128.961L41.0301 128.867L43.0965 127.364L43.0026 125.11L44.7872 123.513L48.0747 122.48L51.5501 120.695L54.274 119.098L56.5283 116.938L58.219 114.12L59.0644 111.772L59.4401 108.86L60.1915 104.821L59.2522 101.627L55.8708 98.246L48.7322 97.7764L43.754 101.627L72.3083 102.661" fill="#4a4b53" fill-rule="nonzero" opacity="1" stroke="#4a4b53" stroke-linecap="butt" stroke-linejoin="round" stroke-width="0.781212" vectornatorLayerName="Curve 1"/>
<path d="M72.8718 103.036L72.8718 106.981L73.4354 110.551L74.9383 114.871L79.6347 117.032L85.2704 117.783L89.5911 118.722L95.1329 118.535L98.1386 118.253L96.0722 119.756L94.5693 122.949L93.2543 124.922L91.6575 126.706L89.8729 127.27L89.685 129.336L91.3757 130.745L94.4754 131.309L96.7297 130.933L97.9507 128.491L98.5143 126.425L100.581 123.701L101.614 122.104L103.023 119.286L103.962 117.126L104.338 114.965L101.99 114.026L99.6414 113.932L96.26 112.335L96.7297 108.484L98.3264 104.633L96.4479 100.5L88.1822 95.9917L78.6015 97.8703L73.7172 99.6549L72.8718 103.036Z" fill="#4a4b53" fill-rule="nonzero" opacity="1" stroke="#4a4b53" stroke-linecap="butt" stroke-linejoin="round" stroke-width="0.781212" vectornatorLayerName="Curve 2"/>
</g>
<clipPath id="ArtboardFrame">
<rect height="140.169" width="153.675" x="0" y="0"/>
</clipPath>
<g clip-path="url(#ArtboardFrame)" id="Layer-5" vectornatorLayerName="Layer 5">
<path d="M88.8827 83.6182L93.289 81.2577L98.0101 75.2777L99.1116 68.5108L98.6395 60.1703L97.2232 54.3477L95.4922 45.3777L93.7611 39.3977L93.9185 32.9456L95.8069 25.392L99.1116 19.0972L102.574 12.9599L107.295 9.02567L112.803 4.14725L111.386 8.71093L114.848 7.76672L120.356 5.56356L125.707 3.83251L131.529 3.51778L129.012 7.29461L134.677 6.66514L140.657 8.55356L144.906 12.4878L146.637 19.8841L146.637 26.6509L144.591 33.4177L142.073 38.2962L141.601 42.7025L142.231 48.8398L144.748 55.4493L137.824 53.5609L133.261 49.1546L130.113 44.2761L128.539 40.0272L130.113 31.8441L126.808 40.814L125.392 46.1646L123.661 51.2003L121.93 55.764L117.681 59.8556L115.006 62.2161L113.59 69.4551L112.173 75.7498L109.97 82.0445C109.97 82.0445 107.61 84.8771 105.878 86.4508C104.147 88.0245 101.472 90.2277 101.472 90.2277L98.9543 92.5882L95.4922 95.2634L88.8827 83.6182Z" fill="#4a4b53" fill-rule="nonzero" opacity="1" stroke="#4a4b53" stroke-linecap="butt" stroke-linejoin="round" stroke-width="0.781212" vectornatorLayerName="Curve 1"/>
<path d="M32.8158 77.8331L34.8373 74.6963L36.7891 71.3504L39.5076 69.1895L42.4353 67.9348L45.0841 68.5621L46.8965 71.2807L47.6633 74.2084L46.7571 76.9269L45.4327 79.0878L43.9688 81.2487L41.5988 82.852L38.7408 83.7581L32.8158 77.8331Z" fill="#4a4b53" fill-rule="nonzero" opacity="1" stroke="#4a4b53" stroke-linecap="butt" stroke-linejoin="round" stroke-width="0.781212" vectornatorLayerName="Curve 2"/>
<path d="M26.1276 74.2198L23.1963 75.9321L22.4295 72.1172L22.9872 68.4924L25.3572 65.983L27.3787 64.8677L29.6093 64.7283L31.2822 66.6103L31.9793 68.4924L32.1884 71.2807L31.4217 72.8142L30.8359 72.864L29.4261 72.864L26.1276 74.2308" fill="#28292d" fill-rule="nonzero" opacity="1" stroke="#28292d" stroke-linecap="butt" stroke-linejoin="round" stroke-width="0.781212" vectornatorLayerName="Curve 3"/>
<g opacity="1" vectornatorLayerName="Curve 4">
<path d="M197.438-11.9062C197.415-11.9092 197.407-11.8928 197.375-11.875C197.349-11.8601 197.32-11.8872 197.312-11.875C197.307-11.8664 197.268-11.8446 197.281-11.8438C197.363-11.8386 197.449-11.818 197.531-11.8125C197.612-11.8107 197.632-11.7873 197.688-11.7812C198.164-11.729 198.647-11.6696 199.125-11.625C200.085-11.5353 201.023-11.4049 201.969-11.2188C202.225-11.1683 202.493-11.1111 202.75-11.0625C203.007-11.0139 203.377-11.1372 203.5-10.9062C203.639-10.6461 203.611-10.7894 203.656-10.7188C203.641-10.765 203.644-10.8342 203.625-10.875C203.813-10.8328 204-10.7955 204.188-10.75C204.24-10.7618 204.203-10.8232 204.281-10.8125C204.3-10.8008 204.326-10.8142 204.344-10.8438C204.346-10.7676 204.371-10.7883 204.375-10.7188C205.011-10.5598 205.667-10.45 206.281-10.25C207.172-9.96005 209.229-9.32914 208-8.15625C207.141-7.33656 206.014-7.09101 204.844-7C204.835-7.02929 204.867-7.07469 204.844-7.09375C204.752-7.70899 204.66-7.85617 204.562-8.09375C204.46-7.80511 204.353-7.47594 204.25-7.3125C204.139-7.1373 203.858-7.45042 203.656-7.5C203.291-7.58999 202.843-7.64856 202.469-7.6875C201.548-7.78314 200.624-7.71161 199.719-7.53125C199.536-7.49483 199.368-7.41816 199.188-7.375C196.368-7.76558 193.548-8.23157 190.688-8.09375C189.082-8.01642 187.412-7.57529 186.156-6.53125C185.813-6.24608 185.318-5.84309 185.219-5.375C185.064-4.64635 186.207-4.46647 186.656-4.40625C188.238-4.19417 189.923-4.31979 191.5-4.5625C194.331-4.9981 196.831-6.48463 199.625-7.03125C199.666-7.02615 199.709-7.03627 199.75-7.03125C200.73-6.91201 201.701-6.75298 202.688-6.71875C203.211-6.70059 203.762-6.75441 204.312-6.78125C204.361-6.72159 204.328-6.62258 204.406-6.59375C204.498-6.51699 204.694-6.57766 204.812-6.71875C204.842-6.75378 204.795-6.77516 204.812-6.8125C206.036-6.9282 207.227-7.19253 208.125-8.0625C209.807-9.69199 206.175-10.4694 205.156-10.7188C204.931-10.7739 204.592-10.822 204.344-10.875C204.314-10.8813 204.277-10.9007 204.25-10.9062C204.029-10.952 203.815-10.9875 203.594-11.0312C203.508-11.0481 203.429-11.0774 203.344-11.0938C202.742-11.2085 202.105-11.3419 201.5-11.4375C201.075-11.5046 200.66-11.5369 200.25-11.5938C200.072-11.6188 199.898-11.668 199.719-11.6875C199.44-11.7178 199.155-11.7245 198.875-11.75C198.479-11.7973 198.084-11.8692 197.688-11.9062C197.675-11.9074 197.598-11.8954 197.531-11.9062C197.499-11.9102 197.47-11.902 197.438-11.9062ZM204.562-8.09375C204.754-8.63328 204.865-9.16631 204.562-8.96875C204.224-8.74809 204.367-8.57092 204.562-8.09375ZM204.375-10.7188C204.314-10.7341 204.249-10.735 204.188-10.75C203.835-10.6703 203.796-10.4997 203.656-10.7188C203.927-9.90726 203.755-8.38473 204.375-8.75C205.042-9.1428 204.468-8.93173 204.375-10.7188ZM191.594-7.78125C193.921-7.8087 196.228-7.47108 198.531-7.15625C195.894-6.41352 193.395-5.20774 190.625-4.90625C189.398-4.77268 188.135-4.68551 186.906-4.84375C186.693-4.87115 185.63-5.01945 185.719-5.46875C185.825-6.00756 186.665-6.52461 187.094-6.78125C188.429-7.58111 190.069-7.76327 191.594-7.78125ZM204.031-7.28125C204.043-7.20191 204.152-7.11183 204.188-7C204.092-6.99815 204.001-6.96877 203.906-6.96875C203.963-7.15139 204.013-7.41 204.031-7.28125ZM202.719-7.09375C202.903-7.06096 203.068-7.01423 203.25-6.96875C203.269-6.96407 203.292-6.97768 203.312-6.96875C203.148-6.97365 202.972-6.93048 202.812-6.9375C202.436-6.95407 202.062-7.0309 201.688-7.0625C202.031-7.04909 202.378-7.15434 202.719-7.09375Z" fill="#28292d" stroke="none"/>
</g>
<g opacity="1" vectornatorLayerName="Curve 5">
<path d="M-7.8125 191.844C-8.32304 192.086-8.69501 192.631-9.03125 193.062C-9.37721 193.506-9.70805 193.977-10.0312 194.438C-10.5915 195.236-11.1336 196.052-11.6562 196.875C-14.754 201.756-17.5318 206.958-19.125 212.531C-19.1223 212.554-19.0663 212.567-19.0312 212.562C-18.9962 212.558-18.9973 212.523-19 212.5C-17.401 206.905-14.5619 201.75-11.375 196.906C-10.8389 196.091-10.2922 195.289-9.71875 194.5C-9.39091 194.049-9.06965 193.59-8.71875 193.156C-8.56448 192.966-8.35518 192.746-8.1875 192.562C-8.12523 192.494-8.04735 192.419-7.96875 192.344C-8.00247 192.448-8.05056 192.555-8.09375 192.656C-8.25031 193.022-8.43948 193.367-8.625 193.719C-9.53355 195.442-10.5424 197.122-11.5625 198.781C-12.5405 200.372-13.5577 201.958-14.5625 203.531C-14.5789 203.631-14.4665 203.725-14.3125 203.75C-14.1585 203.775-14.0164 203.694-14 203.594C-12.8864 201.829-11.7576 200.073-10.6875 198.281C-9.70693 196.64-8.72287 194.982-7.90625 193.25C-7.81275 193.052-7.70643 192.86-7.625 192.656C-7.56977 192.518-7.5367 192.363-7.5 192.219C-7.44208 191.991-7.49431 191.693-7.8125 191.844Z" fill="#28292d" stroke="none"/>
</g>
</g>
<g id="Layer-6" vectornatorLayerName="Layer 6"/>
<g id="Layer-8" vectornatorLayerName="Layer 8">
<path d="M23.4468 88.6329C23.4468 86.2491 25.3855 84.3166 27.7769 84.3166C30.1683 84.3166 32.1069 86.2491 32.1069 88.6329C32.1069 91.0167 30.1683 92.9492 27.7769 92.9492C25.3855 92.9492 23.4468 91.0167 23.4468 88.6329Z" fill="#c3c6de" fill-rule="nonzero" opacity="1" stroke="#4a4b53" stroke-linecap="butt" stroke-linejoin="round" stroke-width="0.781212" vectornatorLayerName="Oval 1"/>
</g>
<g id="Layer-8-copy" vectornatorLayerName="Layer 8 copy">
<path d="M26.1276 88.6329C26.1276 87.7586 26.866 87.0498 27.7769 87.0498C28.6877 87.0498 29.4261 87.7586 29.4261 88.6329C29.4261 89.5072 28.6877 90.216 27.7769 90.216C26.866 90.216 26.1276 89.5072 26.1276 88.6329Z" fill="#28292d" fill-rule="nonzero" opacity="1" stroke="#a68532" stroke-linecap="butt" stroke-linejoin="round" stroke-width="1.10415" vectornatorLayerName="Oval 1"/>
</g>
<g id="Layer-11" vectornatorLayerName="Layer 11">
<path d="M45.018 106.52C45.018 98.9212 50.5602 89.0367 55.8525 83.7443C56.9458 82.651 60.6371 78.4657 62.6678 79.1426C63.7189 79.493 60.1157 80.0691 61.0368 79.6086" fill="#543827" fill-rule="nonzero" opacity="1" stroke="none" vectornatorLayerName="Curve 1"/>
<path d="M60.862 79.8416C66.5375 84.7062 63.5815 94.7806 63.0173 100.986C62.7889 103.499 61.3329 108.294 60.5708 108.209" fill="#543827" fill-rule="nonzero" opacity="1" stroke="none" vectornatorLayerName="Curve 2"/>
</g>
<g id="Layer-12" vectornatorLayerName="Layer 12"/>
</svg>
